  0
SECTION
  2
HEADER
  9
$ANGBASE
  50
0.0
  9
$ANGDIR
  70
  1
  9
$MEASUREMENT
  70
0
  0
ENDSEC
  0
SECTION
  2
TABLES
  0
TABLE
  2
LTYPE
  70
4
  0
LTYPE
  5
40F
  2
CONTINUOUS
  70
0
  3
Solid line
  72
65
  73
0
  40
0.0
  0
LTYPE
  5
410
  2
DASHDOT
 70
0
  3
Dash Dot ____ _ ____ _
 72
65
 73
4
 40
2.0
 49
1.25
 49
-0.25
 49
0.25
 49
-0.25
  0
LTYPE
  5
411
  2
DASHED
 70
0
  3
Dashed __ __ __ __ __
 72
65
 73
2
 40
0.75
 49
0.5
 49
-0.25
  0
LTYPE
  5
43B
  2
DOTTED
 70
0
  3
Dotted .  .  .  .
 72
65
 73
2
 40
0.2
 49
0.0
 49
-0.2
  0
ENDTAB
  0
TABLE
  2
STYLE
  70
4
  0
STYLE
  2
KICAD
  70
0
  40
0
  41
1
  42
1
  50
0
  71
0
  3
isocp.shx
  0
STYLE
  2
KICADB
  70
0
  40
0
  41
1
  42
1
  50
0
  71
0
  3
isocp.shx
  0
STYLE
  2
KICADI
  70
0
  40
0
  41
1
  42
1
  50
15
  71
0
  3
isocp.shx
  0
STYLE
  2
KICADBI
  70
0
  40
0
  41
1
  42
1
  50
15
  71
0
  3
isocp.shx
  0
ENDTAB
  0
TABLE
  2
LAYER
  70
30
  0
LAYER
  2
BLACK
  70
0
  62
7
  6
CONTINUOUS
  0
LAYER
  2
GRAY1
  70
0
  62
251
  6
CONTINUOUS
  0
LAYER
  2
GRAY2
  70
0
  62
8
  6
CONTINUOUS
  0
LAYER
  2
GRAY3
  70
0
  62
9
  6
CONTINUOUS
  0
LAYER
  2
WHITE
  70
0
  62
7
  6
CONTINUOUS
  0
LAYER
  2
LYELLOW
  70
0
  62
51
  6
CONTINUOUS
  0
LAYER
  2
BLUE1
  70
0
  62
178
  6
CONTINUOUS
  0
LAYER
  2
GREEN1
  70
0
  62
98
  6
CONTINUOUS
  0
LAYER
  2
CYAN1
  70
0
  62
138
  6
CONTINUOUS
  0
LAYER
  2
RED1
  70
0
  62
18
  6
CONTINUOUS
  0
LAYER
  2
MAGENTA1
  70
0
  62
228
  6
CONTINUOUS
  0
LAYER
  2
BROWN1
  70
0
  62
58
  6
CONTINUOUS
  0
LAYER
  2
BLUE2
  70
0
  62
5
  6
CONTINUOUS
  0
LAYER
  2
GREEN2
  70
0
  62
3
  6
CONTINUOUS
  0
LAYER
  2
CYAN2
  70
0
  62
4
  6
CONTINUOUS
  0
LAYER
  2
RED2
  70
0
  62
1
  6
CONTINUOUS
  0
LAYER
  2
MAGENTA2
  70
0
  62
6
  6
CONTINUOUS
  0
LAYER
  2
BROWN2
  70
0
  62
54
  6
CONTINUOUS
  0
LAYER
  2
BLUE3
  70
0
  62
171
  6
CONTINUOUS
  0
LAYER
  2
GREEN3
  70
0
  62
91
  6
CONTINUOUS
  0
LAYER
  2
CYAN3
  70
0
  62
131
  6
CONTINUOUS
  0
LAYER
  2
RED3
  70
0
  62
11
  6
CONTINUOUS
  0
LAYER
  2
MAGENTA3
  70
0
  62
221
  6
CONTINUOUS
  0
LAYER
  2
YELLOW3
  70
0
  62
2
  6
CONTINUOUS
  0
LAYER
  2
BLUE4
  70
0
  62
5
  6
CONTINUOUS
  0
LAYER
  2
GREEN4
  70
0
  62
3
  6
CONTINUOUS
  0
LAYER
  2
CYAN4
  70
0
  62
4
  6
CONTINUOUS
  0
LAYER
  2
RED4
  70
0
  62
1
  6
CONTINUOUS
  0
LAYER
  2
MAGENTA4
  70
0
  62
6
  6
CONTINUOUS
  0
LAYER
  2
YELLOW4
  70
0
  62
2
  6
CONTINUOUS
  0
ENDTAB
  0
ENDSEC
  0
SECTION
  2
ENTITIES
0
LINE
8
BLACK
6
CONTINUOUS
10
146.5
20
-102.75
11
141.4
21
-102.75
0
LINE
8
BLACK
6
CONTINUOUS
10
146.5
20
-97.25
11
141.4
21
-97.25
0
LINE
8
BLACK
6
CONTINUOUS
10
116.5
20
-102.75
11
121.6
21
-102.75
0
LINE
8
BLACK
6
CONTINUOUS
10
116.5
20
-97.25
11
121.6
21
-97.25
0
ARC
8
BLACK
10
116.5
20
-100
40
2.75
50
90
51
270
0
ARC
8
BLACK
10
146.5
20
-100
40
2.75
50
-90
51
90
0
LINE
8
BLACK
6
CONTINUOUS
10
138.792
20
-92.7
11
138.519
21
-92.2262
0
LINE
8
BLACK
6
CONTINUOUS
10
138.519
20
-92.2262
11
138.303
21
-91.853
0
LINE
8
BLACK
6
CONTINUOUS
10
137.876
20
-91.1124
11
137.839
21
-91.0484
0
LINE
8
BLACK
6
CONTINUOUS
10
138.303
20
-91.853
11
138.139
21
-91.5684
0
LINE
8
BLACK
6
CONTINUOUS
10
137.933
20
-91.2114
11
137.876
21
-91.1124
0
LINE
8
BLACK
6
CONTINUOUS
10
140.271
20
-95.2615
11
139.872
21
-94.5706
0
LINE
8
BLACK
6
CONTINUOUS
10
137.795
20
-90.9722
11
137.773
21
-90.9342
0
LINE
8
BLACK
6
CONTINUOUS
10
137.814
20
-91.0061
11
137.795
21
-90.9722
0
LINE
8
BLACK
6
CONTINUOUS
10
137.839
20
-91.0484
11
137.814
21
-91.0061
0
LINE
8
BLACK
6
CONTINUOUS
10
139.872
20
-94.5706
11
139.483
21
-93.8968
0
LINE
8
BLACK
6
CONTINUOUS
10
138.018
20
-91.359
11
137.933
21
-91.2114
0
LINE
8
BLACK
6
CONTINUOUS
10
138.139
20
-91.5684
11
138.018
21
-91.359
0
LINE
8
BLACK
6
CONTINUOUS
10
139.118
20
-93.265
11
138.792
21
-92.7
0
LINE
8
BLACK
6
CONTINUOUS
10
139.483
20
-93.8968
11
139.118
21
-93.265
0
LINE
8
BLACK
6
CONTINUOUS
10
141.041
20
-96.5953
11
140.666
21
-95.9447
0
LINE
8
BLACK
6
CONTINUOUS
10
140.666
20
-95.9447
11
140.271
21
-95.2615
0
LINE
8
BLACK
6
CONTINUOUS
10
141.4
20
-97.25
11
141.041
21
-96.5953
0
LINE
8
BLACK
6
CONTINUOUS
10
137.746
20
-90.889
11
137.715
21
-90.8378
0
LINE
8
BLACK
6
CONTINUOUS
10
137.773
20
-90.9342
11
137.746
21
-90.889
0
LINE
8
BLACK
6
CONTINUOUS
10
136.919
20
-109.891
11
136.997
21
-109.861
0
LINE
8
BLACK
6
CONTINUOUS
10
136.76
20
-109.938
11
136.84
21
-109.917
0
LINE
8
BLACK
6
CONTINUOUS
10
136.527
20
-109.974
11
136.602
21
-109.966
0
LINE
8
BLACK
6
CONTINUOUS
10
136.455
20
-109.98
11
136.527
21
-109.974
0
LINE
8
BLACK
6
CONTINUOUS
10
137.289
20
-109.694
11
137.355
21
-109.643
0
LINE
8
BLACK
6
CONTINUOUS
10
139.766
20
-105.666
11
140.163
21
-104.978
0
LINE
8
BLACK
6
CONTINUOUS
10
139.382
20
-106.331
11
139.766
21
-105.666
0
LINE
8
BLACK
6
CONTINUOUS
10
137.073
20
-109.825
11
137.148
21
-109.786
0
LINE
8
BLACK
6
CONTINUOUS
10
139.026
20
-106.948
11
139.382
21
-106.331
0
LINE
8
BLACK
6
CONTINUOUS
10
137.864
20
-108.96
11
137.915
21
-108.872
0
LINE
8
BLACK
6
CONTINUOUS
10
137.53
20
-109.469
11
137.581
21
-109.407
0
LINE
8
BLACK
6
CONTINUOUS
10
137.831
20
-109.017
11
137.864
21
-108.96
0
LINE
8
BLACK
6
CONTINUOUS
10
136.191
20
-109.985
11
136.23
21
-109.985
0
LINE
8
BLACK
6
CONTINUOUS
10
135.796
20
-109.985
11
135.961
21
-109.985
0
LINE
8
BLACK
6
CONTINUOUS
10
138.455
20
-107.936
11
138.713
21
-107.49
0
LINE
8
BLACK
6
CONTINUOUS
10
137.915
20
-108.872
11
137.992
21
-108.739
0
LINE
8
BLACK
6
CONTINUOUS
10
137.581
20
-109.407
11
137.627
21
-109.346
0
LINE
8
BLACK
6
CONTINUOUS
10
136.681
20
-109.954
11
136.76
21
-109.938
0
LINE
8
BLACK
6
CONTINUOUS
10
137.705
20
-109.229
11
137.738
21
-109.177
0
LINE
8
BLACK
6
CONTINUOUS
10
137.627
20
-109.346
11
137.668
21
-109.286
0
LINE
8
BLACK
6
CONTINUOUS
10
137.668
20
-109.286
11
137.705
21
-109.229
0
LINE
8
BLACK
6
CONTINUOUS
10
136.388
20
-109.983
11
136.455
21
-109.98
0
LINE
8
BLACK
6
CONTINUOUS
10
136.072
20
-109.985
11
136.143
21
-109.985
0
LINE
8
BLACK
6
CONTINUOUS
10
137.355
20
-109.643
11
137.417
21
-109.588
0
LINE
8
BLACK
6
CONTINUOUS
10
136.602
20
-109.966
11
136.681
21
-109.954
0
LINE
8
BLACK
6
CONTINUOUS
10
136.23
20
-109.985
11
136.274
21
-109.985
0
LINE
8
BLACK
6
CONTINUOUS
10
135.961
20
-109.985
11
136.072
21
-109.985
0
LINE
8
BLACK
6
CONTINUOUS
10
137.809
20
-109.055
11
137.831
21
-109.017
0
LINE
8
BLACK
6
CONTINUOUS
10
138.254
20
-108.284
11
138.455
21
-107.936
0
LINE
8
BLACK
6
CONTINUOUS
10
137.766
20
-109.13
11
137.789
21
-109.089
0
LINE
8
BLACK
6
CONTINUOUS
10
137.789
20
-109.089
11
137.809
21
-109.055
0
LINE
8
BLACK
6
CONTINUOUS
10
136.327
20
-109.985
11
136.388
21
-109.983
0
LINE
8
BLACK
6
CONTINUOUS
10
138.713
20
-107.49
11
139.026
21
-106.948
0
LINE
8
BLACK
6
CONTINUOUS
10
138.102
20
-108.547
11
138.254
21
-108.284
0
LINE
8
BLACK
6
CONTINUOUS
10
137.417
20
-109.588
11
137.476
21
-109.53
0
LINE
8
BLACK
6
CONTINUOUS
10
136.274
20
-109.985
11
136.327
21
-109.985
0
LINE
8
BLACK
6
CONTINUOUS
10
136.84
20
-109.917
11
136.919
21
-109.891
0
LINE
8
BLACK
6
CONTINUOUS
10
137.992
20
-108.739
11
138.102
21
-108.547
0
LINE
8
BLACK
6
CONTINUOUS
10
136.143
20
-109.985
11
136.191
21
-109.985
0
LINE
8
BLACK
6
CONTINUOUS
10
137.22
20
-109.742
11
137.289
21
-109.694
0
LINE
8
BLACK
6
CONTINUOUS
10
137.738
20
-109.177
11
137.766
21
-109.13
0
LINE
8
BLACK
6
CONTINUOUS
10
137.476
20
-109.53
11
137.53
21
-109.469
0
LINE
8
BLACK
6
CONTINUOUS
10
137.148
20
-109.786
11
137.22
21
-109.742
0
LINE
8
BLACK
6
CONTINUOUS
10
136.997
20
-109.861
11
137.073
21
-109.825
0
LINE
8
BLACK
6
CONTINUOUS
10
126.795
20
-109.985
11
126.835
21
-109.985
0
LINE
8
BLACK
6
CONTINUOUS
10
126.835
20
-109.985
11
126.877
21
-109.985
0
LINE
8
BLACK
6
CONTINUOUS
10
126.689
20
-109.984
11
126.746
21
-109.985
0
LINE
8
BLACK
6
CONTINUOUS
10
134.818
20
-109.985
11
135.24
21
-109.985
0
LINE
8
BLACK
6
CONTINUOUS
10
134.28
20
-109.985
11
134.818
21
-109.985
0
LINE
8
BLACK
6
CONTINUOUS
10
129.101
20
-109.985
11
129.792
21
-109.985
0
LINE
8
BLACK
6
CONTINUOUS
10
128.502
20
-109.985
11
129.101
21
-109.985
0
LINE
8
BLACK
6
CONTINUOUS
10
132.911
20
-109.985
11
133.635
21
-109.985
0
LINE
8
BLACK
6
CONTINUOUS
10
132.136
20
-109.985
11
132.911
21
-109.985
0
LINE
8
BLACK
6
CONTINUOUS
10
126.746
20
-109.985
11
126.795
21
-109.985
0
LINE
8
BLACK
6
CONTINUOUS
10
128.019
20
-109.985
11
128.502
21
-109.985
0
LINE
8
BLACK
6
CONTINUOUS
10
131.338
20
-109.985
11
132.136
21
-109.985
0
LINE
8
BLACK
6
CONTINUOUS
10
126.877
20
-109.985
11
126.935
21
-109.985
0
LINE
8
BLACK
6
CONTINUOUS
10
126.935
20
-109.985
11
127.026
21
-109.985
0
LINE
8
BLACK
6
CONTINUOUS
10
126.483
20
-109.971
11
126.557
21
-109.978
0
LINE
8
BLACK
6
CONTINUOUS
10
129.792
20
-109.985
11
130.548
21
-109.985
0
LINE
8
BLACK
6
CONTINUOUS
10
127.164
20
-109.985
11
127.365
21
-109.985
0
LINE
8
BLACK
6
CONTINUOUS
10
126.406
20
-109.961
11
126.483
21
-109.971
0
LINE
8
BLACK
6
CONTINUOUS
10
126.557
20
-109.978
11
126.626
21
-109.982
0
LINE
8
BLACK
6
CONTINUOUS
10
130.548
20
-109.985
11
131.338
21
-109.985
0
LINE
8
BLACK
6
CONTINUOUS
10
127.026
20
-109.985
11
127.164
21
-109.985
0
LINE
8
BLACK
6
CONTINUOUS
10
135.561
20
-109.985
11
135.796
21
-109.985
0
LINE
8
BLACK
6
CONTINUOUS
10
135.24
20
-109.985
11
135.561
21
-109.985
0
LINE
8
BLACK
6
CONTINUOUS
10
133.635
20
-109.985
11
134.28
21
-109.985
0
LINE
8
BLACK
6
CONTINUOUS
10
126.626
20
-109.982
11
126.689
21
-109.984
0
LINE
8
BLACK
6
CONTINUOUS
10
127.645
20
-109.985
11
128.019
21
-109.985
0
LINE
8
BLACK
6
CONTINUOUS
10
127.365
20
-109.985
11
127.645
21
-109.985
0
LINE
8
BLACK
6
CONTINUOUS
10
125.398
20
-109.318
11
125.442
21
-109.379
0
LINE
8
BLACK
6
CONTINUOUS
10
125.246
20
-109.074
11
125.267
21
-109.11
0
LINE
8
BLACK
6
CONTINUOUS
10
124.194
20
-107.252
11
124.478
21
-107.744
0
LINE
8
BLACK
6
CONTINUOUS
10
126.089
20
-109.878
11
126.167
21
-109.906
0
LINE
8
BLACK
6
CONTINUOUS
10
125.724
20
-109.671
11
125.792
21
-109.721
0
LINE
8
BLACK
6
CONTINUOUS
10
125.49
20
-109.441
11
125.542
21
-109.502
0
LINE
8
BLACK
6
CONTINUOUS
10
125.66
20
-109.618
11
125.724
21
-109.671
0
LINE
8
BLACK
6
CONTINUOUS
10
124.478
20
-107.744
11
124.704
21
-108.136
0
LINE
8
BLACK
6
CONTINUOUS
10
123.097
20
-105.351
11
123.489
21
-106.03
0
LINE
8
BLACK
6
CONTINUOUS
10
122.305
20
-103.981
11
122.697
21
-104.66
0
LINE
8
BLACK
6
CONTINUOUS
10
125.097
20
-108.817
11
125.159
21
-108.924
0
LINE
8
BLACK
6
CONTINUOUS
10
126.012
20
-109.845
11
126.089
21
-109.878
0
LINE
8
BLACK
6
CONTINUOUS
10
126.327
20
-109.947
11
126.406
21
-109.961
0
LINE
8
BLACK
6
CONTINUOUS
10
126.247
20
-109.929
11
126.327
21
-109.947
0
LINE
8
BLACK
6
CONTINUOUS
10
126.167
20
-109.906
11
126.247
21
-109.929
0
LINE
8
BLACK
6
CONTINUOUS
10
125.267
20
-109.11
11
125.292
21
-109.154
0
LINE
8
BLACK
6
CONTINUOUS
10
125.863
20
-109.766
11
125.936
21
-109.808
0
LINE
8
BLACK
6
CONTINUOUS
10
125.226
20
-109.039
11
125.246
21
-109.074
0
LINE
8
BLACK
6
CONTINUOUS
10
125.323
20
-109.204
11
125.358
21
-109.259
0
LINE
8
BLACK
6
CONTINUOUS
10
125.936
20
-109.808
11
126.012
21
-109.845
0
LINE
8
BLACK
6
CONTINUOUS
10
125.792
20
-109.721
11
125.863
21
-109.766
0
LINE
8
BLACK
6
CONTINUOUS
10
125.599
20
-109.561
11
125.66
21
-109.618
0
LINE
8
BLACK
6
CONTINUOUS
10
125.292
20
-109.154
11
125.323
21
-109.204
0
LINE
8
BLACK
6
CONTINUOUS
10
125.199
20
-108.994
11
125.226
21
-109.039
0
LINE
8
BLACK
6
CONTINUOUS
10
125.159
20
-108.924
11
125.199
21
-108.994
0
LINE
8
BLACK
6
CONTINUOUS
10
124.704
20
-108.136
11
124.878
21
-108.436
0
LINE
8
BLACK
6
CONTINUOUS
10
125.006
20
-108.659
11
125.097
21
-108.817
0
LINE
8
BLACK
6
CONTINUOUS
10
122.697
20
-104.66
11
123.097
21
-105.351
0
LINE
8
BLACK
6
CONTINUOUS
10
121.6
20
-102.75
11
121.935
21
-103.339
0
LINE
8
BLACK
6
CONTINUOUS
10
125.542
20
-109.502
11
125.599
21
-109.561
0
LINE
8
BLACK
6
CONTINUOUS
10
121.935
20
-103.339
11
122.305
21
-103.981
0
LINE
8
BLACK
6
CONTINUOUS
10
123.489
20
-106.03
11
123.859
21
-106.672
0
LINE
8
BLACK
6
CONTINUOUS
10
124.878
20
-108.436
11
125.006
21
-108.659
0
LINE
8
BLACK
6
CONTINUOUS
10
125.442
20
-109.379
11
125.49
21
-109.441
0
LINE
8
BLACK
6
CONTINUOUS
10
125.358
20
-109.259
11
125.398
21
-109.318
0
LINE
8
BLACK
6
CONTINUOUS
10
123.859
20
-106.672
11
124.194
21
-107.252
0
LINE
8
BLACK
6
CONTINUOUS
10
124.916
20
-91.5488
11
124.756
21
-91.8268
0
LINE
8
BLACK
6
CONTINUOUS
10
125.273
20
-90.9308
11
125.251
21
-90.9694
0
LINE
8
BLACK
6
CONTINUOUS
10
124.276
20
-92.6578
11
123.954
21
-93.2164
0
LINE
8
BLACK
6
CONTINUOUS
10
125.677
20
-90.4195
11
125.615
21
-90.4751
0
LINE
8
BLACK
6
CONTINUOUS
10
126.427
20
-90.0885
11
126.348
21
-90.1012
0
LINE
8
BLACK
6
CONTINUOUS
10
125.504
20
-90.5949
11
125.454
21
-90.6566
0
LINE
8
BLACK
6
CONTINUOUS
10
126.706
20
-90.0676
11
126.644
21
-90.0696
0
LINE
8
BLACK
6
CONTINUOUS
10
126.806
20
-90.0668
11
126.76
21
-90.0669
0
LINE
8
BLACK
6
CONTINUOUS
10
125.956
20
-90.2339
11
125.883
21
-90.2743
0
LINE
8
BLACK
6
CONTINUOUS
10
123.591
20
-93.8437
11
123.204
21
-94.515
0
LINE
8
BLACK
6
CONTINUOUS
10
125.454
20
-90.6566
11
125.409
21
-90.7178
0
LINE
8
BLACK
6
CONTINUOUS
10
125.3
20
-90.885
11
125.273
21
-90.9308
0
LINE
8
BLACK
6
CONTINUOUS
10
125.557
20
-90.5339
11
125.504
21
-90.5949
0
LINE
8
BLACK
6
CONTINUOUS
10
126.11
20
-90.1664
11
126.032
21
-90.1978
0
LINE
8
BLACK
6
CONTINUOUS
10
122.41
20
-95.8902
11
122.032
21
-96.5444
0
LINE
8
BLACK
6
CONTINUOUS
10
125.332
20
-90.8334
11
125.3
21
-90.885
0
LINE
8
BLACK
6
CONTINUOUS
10
126.032
20
-90.1978
11
125.956
21
-90.2339
0
LINE
8
BLACK
6
CONTINUOUS
10
123.954
20
-93.2164
11
123.591
21
-93.8437
0
LINE
8
BLACK
6
CONTINUOUS
10
122.032
20
-96.5444
11
121.6
21
-97.25
0
LINE
8
BLACK
6
CONTINUOUS
10
125.251
20
-90.9694
11
125.231
21
-91.0032
0
LINE
8
BLACK
6
CONTINUOUS
10
125.172
20
-91.1061
11
125.117
21
-91.2018
0
LINE
8
BLACK
6
CONTINUOUS
10
126.846
20
-90.0668
11
126.806
21
-90.0668
0
LINE
8
BLACK
6
CONTINUOUS
10
125.742
20
-90.3673
11
125.677
21
-90.4195
0
LINE
8
BLACK
6
CONTINUOUS
10
126.576
20
-90.0733
11
126.503
21
-90.0794
0
LINE
8
BLACK
6
CONTINUOUS
10
126.76
20
-90.0669
11
126.706
21
-90.0676
0
LINE
8
BLACK
6
CONTINUOUS
10
123.204
20
-94.515
11
122.805
21
-95.2055
0
LINE
8
BLACK
6
CONTINUOUS
10
125.208
20
-91.0443
11
125.172
21
-91.1061
0
LINE
8
BLACK
6
CONTINUOUS
10
125.409
20
-90.7178
11
125.368
21
-90.7772
0
LINE
8
BLACK
6
CONTINUOUS
10
125.883
20
-90.2743
11
125.811
21
-90.3189
0
LINE
8
BLACK
6
CONTINUOUS
10
126.644
20
-90.0696
11
126.576
21
-90.0733
0
LINE
8
BLACK
6
CONTINUOUS
10
125.117
20
-91.2018
11
125.034
21
-91.3449
0
LINE
8
BLACK
6
CONTINUOUS
10
124.756
20
-91.8268
11
124.545
21
-92.1924
0
LINE
8
BLACK
6
CONTINUOUS
10
122.805
20
-95.2055
11
122.41
21
-95.8902
0
LINE
8
BLACK
6
CONTINUOUS
10
125.811
20
-90.3189
11
125.742
21
-90.3673
0
LINE
8
BLACK
6
CONTINUOUS
10
125.231
20
-91.0032
11
125.208
21
-91.0443
0
LINE
8
BLACK
6
CONTINUOUS
10
126.189
20
-90.1397
11
126.11
21
-90.1664
0
LINE
8
BLACK
6
CONTINUOUS
10
125.368
20
-90.7772
11
125.332
21
-90.8334
0
LINE
8
BLACK
6
CONTINUOUS
10
126.269
20
-90.1181
11
126.189
21
-90.1397
0
LINE
8
BLACK
6
CONTINUOUS
10
125.034
20
-91.3449
11
124.916
21
-91.5488
0
LINE
8
BLACK
6
CONTINUOUS
10
126.89
20
-90.0668
11
126.846
21
-90.0668
0
LINE
8
BLACK
6
CONTINUOUS
10
126.348
20
-90.1012
11
126.269
21
-90.1181
0
LINE
8
BLACK
6
CONTINUOUS
10
126.956
20
-90.0668
11
126.89
21
-90.0668
0
LINE
8
BLACK
6
CONTINUOUS
10
124.545
20
-92.1924
11
124.276
21
-92.6578
0
LINE
8
BLACK
6
CONTINUOUS
10
125.615
20
-90.4751
11
125.557
21
-90.5339
0
LINE
8
BLACK
6
CONTINUOUS
10
126.503
20
-90.0794
11
126.427
21
-90.0885
0
LINE
8
BLACK
6
CONTINUOUS
10
136.343
20
-90.0677
11
136.288
21
-90.067
0
LINE
8
BLACK
6
CONTINUOUS
10
137.018
20
-90.2006
11
136.94
21
-90.1687
0
LINE
8
BLACK
6
CONTINUOUS
10
127.212
20
-90.0668
11
127.058
21
-90.0668
0
LINE
8
BLACK
6
CONTINUOUS
10
129.991
20
-90.0668
11
129.28
21
-90.0668
0
LINE
8
BLACK
6
CONTINUOUS
10
130.759
20
-90.0668
11
129.991
21
-90.0668
0
LINE
8
BLACK
6
CONTINUOUS
10
137.307
20
-90.3714
11
137.239
21
-90.3226
0
LINE
8
BLACK
6
CONTINUOUS
10
133.113
20
-90.0668
11
132.348
21
-90.0668
0
LINE
8
BLACK
6
CONTINUOUS
10
136.094
20
-90.0668
11
135.996
21
-90.0668
0
LINE
8
BLACK
6
CONTINUOUS
10
136.623
20
-90.0894
11
136.547
21
-90.08
0
LINE
8
BLACK
6
CONTINUOUS
10
137.715
20
-90.8378
11
137.679
21
-90.7819
0
LINE
8
BLACK
6
CONTINUOUS
10
134.943
20
-90.0668
11
134.437
21
-90.0668
0
LINE
8
BLACK
6
CONTINUOUS
10
135.847
20
-90.0668
11
135.632
21
-90.0668
0
LINE
8
BLACK
6
CONTINUOUS
10
137.594
20
-90.6616
11
137.544
21
-90.5999
0
LINE
8
BLACK
6
CONTINUOUS
10
137.544
20
-90.5999
11
137.491
21
-90.5388
0
LINE
8
BLACK
6
CONTINUOUS
10
135.632
20
-90.0668
11
135.336
21
-90.0668
0
LINE
8
BLACK
6
CONTINUOUS
10
136.201
20
-90.0668
11
136.158
21
-90.0668
0
LINE
8
BLACK
6
CONTINUOUS
10
136.702
20
-90.1024
11
136.623
21
-90.0894
0
LINE
8
BLACK
6
CONTINUOUS
10
134.437
20
-90.0668
11
133.818
21
-90.0668
0
LINE
8
BLACK
6
CONTINUOUS
10
137.094
20
-90.237
11
137.018
21
-90.2006
0
LINE
8
BLACK
6
CONTINUOUS
10
131.554
20
-90.0668
11
130.759
21
-90.0668
0
LINE
8
BLACK
6
CONTINUOUS
10
136.861
20
-90.1417
11
136.782
21
-90.1197
0
LINE
8
BLACK
6
CONTINUOUS
10
137.434
20
-90.4798
11
137.372
21
-90.4239
0
LINE
8
BLACK
6
CONTINUOUS
10
127.058
20
-90.0668
11
126.956
21
-90.0668
0
LINE
8
BLACK
6
CONTINUOUS
10
136.158
20
-90.0668
11
136.094
21
-90.0668
0
LINE
8
BLACK
6
CONTINUOUS
10
127.433
20
-90.0668
11
127.212
21
-90.0668
0
LINE
8
BLACK
6
CONTINUOUS
10
128.653
20
-90.0668
11
128.138
21
-90.0668
0
LINE
8
BLACK
6
CONTINUOUS
10
136.547
20
-90.08
11
136.474
21
-90.0737
0
LINE
8
BLACK
6
CONTINUOUS
10
136.406
20
-90.0698
11
136.343
21
-90.0677
0
LINE
8
BLACK
6
CONTINUOUS
10
137.491
20
-90.5388
11
137.434
21
-90.4798
0
LINE
8
BLACK
6
CONTINUOUS
10
137.167
20
-90.2778
11
137.094
21
-90.237
0
LINE
8
BLACK
6
CONTINUOUS
10
137.372
20
-90.4239
11
137.307
21
-90.3714
0
LINE
8
BLACK
6
CONTINUOUS
10
127.736
20
-90.0668
11
127.433
21
-90.0668
0
LINE
8
BLACK
6
CONTINUOUS
10
128.138
20
-90.0668
11
127.736
21
-90.0668
0
LINE
8
BLACK
6
CONTINUOUS
10
129.28
20
-90.0668
11
128.653
21
-90.0668
0
LINE
8
BLACK
6
CONTINUOUS
10
132.348
20
-90.0668
11
131.554
21
-90.0668
0
LINE
8
BLACK
6
CONTINUOUS
10
135.336
20
-90.0668
11
134.943
21
-90.0668
0
LINE
8
BLACK
6
CONTINUOUS
10
135.996
20
-90.0668
11
135.847
21
-90.0668
0
LINE
8
BLACK
6
CONTINUOUS
10
136.782
20
-90.1197
11
136.702
21
-90.1024
0
LINE
8
BLACK
6
CONTINUOUS
10
136.241
20
-90.0668
11
136.201
21
-90.0668
0
LINE
8
BLACK
6
CONTINUOUS
10
136.94
20
-90.1687
11
136.861
21
-90.1417
0
LINE
8
BLACK
6
CONTINUOUS
10
137.239
20
-90.3226
11
137.167
21
-90.2778
0
LINE
8
BLACK
6
CONTINUOUS
10
137.638
20
-90.7227
11
137.594
21
-90.6616
0
LINE
8
BLACK
6
CONTINUOUS
10
137.679
20
-90.7819
11
137.638
21
-90.7227
0
LINE
8
BLACK
6
CONTINUOUS
10
133.818
20
-90.0668
11
133.113
21
-90.0668
0
LINE
8
BLACK
6
CONTINUOUS
10
136.288
20
-90.067
11
136.241
21
-90.0668
0
LINE
8
BLACK
6
CONTINUOUS
10
136.474
20
-90.0737
11
136.406
21
-90.0698
0
LINE
8
BLACK
6
CONTINUOUS
10
140.56
20
-104.29
11
140.942
21
-103.628
0
LINE
8
BLACK
6
CONTINUOUS
10
140.163
20
-104.978
11
140.56
21
-104.29
0
LINE
8
BLACK
6
CONTINUOUS
10
140.942
20
-103.628
11
141.4
21
-102.75
  0
ENDSEC
  0
EOF
