  0
SECTION
  2
HEADER
  9
$ANGBASE
  50
0.0
  9
$ANGDIR
  70
  1
  9
$MEASUREMENT
  70
0
  0
ENDSEC
  0
SECTION
  2
TABLES
  0
TABLE
  2
LTYPE
  70
4
  0
LTYPE
  5
40F
  2
CONTINUOUS
  70
0
  3
Solid line
  72
65
  73
0
  40
0.0
  0
LTYPE
  5
410
  2
DASHDOT
 70
0
  3
Dash Dot ____ _ ____ _
 72
65
 73
4
 40
2.0
 49
1.25
 49
-0.25
 49
0.25
 49
-0.25
  0
LTYPE
  5
411
  2
DASHED
 70
0
  3
Dashed __ __ __ __ __
 72
65
 73
2
 40
0.75
 49
0.5
 49
-0.25
  0
LTYPE
  5
43B
  2
DOTTED
 70
0
  3
Dotted .  .  .  .
 72
65
 73
2
 40
0.2
 49
0.0
 49
-0.2
  0
ENDTAB
  0
TABLE
  2
STYLE
  70
4
  0
STYLE
  2
KICAD
  70
0
  40
0
  41
1
  42
1
  50
0
  71
0
  3
isocp.shx
  0
STYLE
  2
KICADB
  70
0
  40
0
  41
1
  42
1
  50
0
  71
0
  3
isocp.shx
  0
STYLE
  2
KICADI
  70
0
  40
0
  41
1
  42
1
  50
15
  71
0
  3
isocp.shx
  0
STYLE
  2
KICADBI
  70
0
  40
0
  41
1
  42
1
  50
15
  71
0
  3
isocp.shx
  0
ENDTAB
  0
TABLE
  2
LAYER
  70
30
  0
LAYER
  2
BLACK
  70
0
  62
7
  6
CONTINUOUS
  0
LAYER
  2
GRAY1
  70
0
  62
251
  6
CONTINUOUS
  0
LAYER
  2
GRAY2
  70
0
  62
8
  6
CONTINUOUS
  0
LAYER
  2
GRAY3
  70
0
  62
9
  6
CONTINUOUS
  0
LAYER
  2
WHITE
  70
0
  62
7
  6
CONTINUOUS
  0
LAYER
  2
LYELLOW
  70
0
  62
51
  6
CONTINUOUS
  0
LAYER
  2
BLUE1
  70
0
  62
178
  6
CONTINUOUS
  0
LAYER
  2
GREEN1
  70
0
  62
98
  6
CONTINUOUS
  0
LAYER
  2
CYAN1
  70
0
  62
138
  6
CONTINUOUS
  0
LAYER
  2
RED1
  70
0
  62
18
  6
CONTINUOUS
  0
LAYER
  2
MAGENTA1
  70
0
  62
228
  6
CONTINUOUS
  0
LAYER
  2
BROWN1
  70
0
  62
58
  6
CONTINUOUS
  0
LAYER
  2
BLUE2
  70
0
  62
5
  6
CONTINUOUS
  0
LAYER
  2
GREEN2
  70
0
  62
3
  6
CONTINUOUS
  0
LAYER
  2
CYAN2
  70
0
  62
4
  6
CONTINUOUS
  0
LAYER
  2
RED2
  70
0
  62
1
  6
CONTINUOUS
  0
LAYER
  2
MAGENTA2
  70
0
  62
6
  6
CONTINUOUS
  0
LAYER
  2
BROWN2
  70
0
  62
54
  6
CONTINUOUS
  0
LAYER
  2
BLUE3
  70
0
  62
171
  6
CONTINUOUS
  0
LAYER
  2
GREEN3
  70
0
  62
91
  6
CONTINUOUS
  0
LAYER
  2
CYAN3
  70
0
  62
131
  6
CONTINUOUS
  0
LAYER
  2
RED3
  70
0
  62
11
  6
CONTINUOUS
  0
LAYER
  2
MAGENTA3
  70
0
  62
221
  6
CONTINUOUS
  0
LAYER
  2
YELLOW3
  70
0
  62
2
  6
CONTINUOUS
  0
LAYER
  2
BLUE4
  70
0
  62
5
  6
CONTINUOUS
  0
LAYER
  2
GREEN4
  70
0
  62
3
  6
CONTINUOUS
  0
LAYER
  2
CYAN4
  70
0
  62
4
  6
CONTINUOUS
  0
LAYER
  2
RED4
  70
0
  62
1
  6
CONTINUOUS
  0
LAYER
  2
MAGENTA4
  70
0
  62
6
  6
CONTINUOUS
  0
LAYER
  2
YELLOW4
  70
0
  62
2
  6
CONTINUOUS
  0
ENDTAB
  0
ENDSEC
  0
SECTION
  2
ENTITIES
0
LINE
8
BLACK
6
CONTINUOUS
10
149
20
-102.7
11
146.4
21
-102.7
0
LINE
8
BLACK
6
CONTINUOUS
10
149
20
-97.3
11
146.4
21
-97.3
0
ARC
8
BLACK
10
149
20
-100
40
2.7
50
-90
51
90
0
LINE
8
BLACK
6
CONTINUOUS
10
124
20
-102.7
11
126.5
21
-102.7
0
LINE
8
BLACK
6
CONTINUOUS
10
124
20
-97.3
11
126.5
21
-97.3
0
ARC
8
BLACK
10
124
20
-100
40
2.7
50
90
51
270
0
LINE
8
BLACK
6
CONTINUOUS
10
141.148
20
-109.957
11
141.187
21
-109.957
0
LINE
8
BLACK
6
CONTINUOUS
10
142.177
20
-109.714
11
142.246
21
-109.666
0
LINE
8
BLACK
6
CONTINUOUS
10
141.232
20
-109.957
11
141.285
21
-109.957
0
LINE
8
BLACK
6
CONTINUOUS
10
140.518
20
-109.957
11
140.754
21
-109.957
0
LINE
8
BLACK
6
CONTINUOUS
10
142.434
20
-109.502
11
142.488
21
-109.441
0
LINE
8
BLACK
6
CONTINUOUS
10
142.375
20
-109.56
11
142.434
21
-109.502
0
LINE
8
BLACK
6
CONTINUOUS
10
142.312
20
-109.615
11
142.375
21
-109.56
0
LINE
8
BLACK
6
CONTINUOUS
10
141.718
20
-109.91
11
141.798
21
-109.889
0
LINE
8
BLACK
6
CONTINUOUS
10
142.246
20
-109.666
11
142.312
21
-109.615
0
LINE
8
BLACK
6
CONTINUOUS
10
142.105
20
-109.758
11
142.177
21
-109.714
0
LINE
8
BLACK
6
CONTINUOUS
10
140.919
20
-109.957
11
141.03
21
-109.957
0
LINE
8
BLACK
6
CONTINUOUS
10
142.031
20
-109.797
11
142.105
21
-109.758
0
LINE
8
BLACK
6
CONTINUOUS
10
141.346
20
-109.955
11
141.413
21
-109.952
0
LINE
8
BLACK
6
CONTINUOUS
10
141.285
20
-109.957
11
141.346
21
-109.955
0
LINE
8
BLACK
6
CONTINUOUS
10
139.775
20
-109.957
11
140.197
21
-109.957
0
LINE
8
BLACK
6
CONTINUOUS
10
141.955
20
-109.833
11
142.031
21
-109.797
0
LINE
8
BLACK
6
CONTINUOUS
10
140.197
20
-109.957
11
140.518
21
-109.957
0
LINE
8
BLACK
6
CONTINUOUS
10
139.238
20
-109.957
11
139.775
21
-109.957
0
LINE
8
BLACK
6
CONTINUOUS
10
141.638
20
-109.926
11
141.718
21
-109.91
0
LINE
8
BLACK
6
CONTINUOUS
10
141.56
20
-109.938
11
141.638
21
-109.926
0
LINE
8
BLACK
6
CONTINUOUS
10
141.484
20
-109.946
11
141.56
21
-109.938
0
LINE
8
BLACK
6
CONTINUOUS
10
141.187
20
-109.957
11
141.232
21
-109.957
0
LINE
8
BLACK
6
CONTINUOUS
10
141.101
20
-109.957
11
141.148
21
-109.957
0
LINE
8
BLACK
6
CONTINUOUS
10
140.754
20
-109.957
11
140.919
21
-109.957
0
LINE
8
BLACK
6
CONTINUOUS
10
141.877
20
-109.863
11
141.955
21
-109.833
0
LINE
8
BLACK
6
CONTINUOUS
10
141.798
20
-109.889
11
141.877
21
-109.863
0
LINE
8
BLACK
6
CONTINUOUS
10
141.03
20
-109.957
11
141.101
21
-109.957
0
LINE
8
BLACK
6
CONTINUOUS
10
141.413
20
-109.952
11
141.484
21
-109.946
0
LINE
8
BLACK
6
CONTINUOUS
10
131.285
20
-109.919
11
131.364
21
-109.933
0
LINE
8
BLACK
6
CONTINUOUS
10
129.964
20
-108.631
11
130.055
21
-108.789
0
LINE
8
BLACK
6
CONTINUOUS
10
132.977
20
-109.957
11
133.46
21
-109.957
0
LINE
8
BLACK
6
CONTINUOUS
10
131.441
20
-109.943
11
131.514
21
-109.949
0
LINE
8
BLACK
6
CONTINUOUS
10
130.399
20
-109.351
11
130.448
21
-109.413
0
LINE
8
BLACK
6
CONTINUOUS
10
129.436
20
-107.716
11
129.662
21
-108.108
0
LINE
8
BLACK
6
CONTINUOUS
10
132.323
20
-109.957
11
132.603
21
-109.957
0
LINE
8
BLACK
6
CONTINUOUS
10
130.618
20
-109.59
11
130.682
21
-109.643
0
LINE
8
BLACK
6
CONTINUOUS
10
131.704
20
-109.957
11
131.752
21
-109.957
0
LINE
8
BLACK
6
CONTINUOUS
10
131.647
20
-109.956
11
131.704
21
-109.957
0
LINE
8
BLACK
6
CONTINUOUS
10
130.157
20
-108.966
11
130.183
21
-109.011
0
LINE
8
BLACK
6
CONTINUOUS
10
130.183
20
-109.011
11
130.203
21
-109.046
0
LINE
8
BLACK
6
CONTINUOUS
10
131.364
20
-109.933
11
131.441
21
-109.943
0
LINE
8
BLACK
6
CONTINUOUS
10
130.682
20
-109.643
11
130.75
21
-109.693
0
LINE
8
BLACK
6
CONTINUOUS
10
131.125
20
-109.878
11
131.205
21
-109.901
0
LINE
8
BLACK
6
CONTINUOUS
10
130.224
20
-109.082
11
130.25
21
-109.126
0
LINE
8
BLACK
6
CONTINUOUS
10
129.151
20
-107.224
11
129.436
21
-107.716
0
LINE
8
BLACK
6
CONTINUOUS
10
130.203
20
-109.046
11
130.224
21
-109.082
0
LINE
8
BLACK
6
CONTINUOUS
10
137.868
20
-109.957
11
138.593
21
-109.957
0
LINE
8
BLACK
6
CONTINUOUS
10
137.093
20
-109.957
11
137.868
21
-109.957
0
LINE
8
BLACK
6
CONTINUOUS
10
131.984
20
-109.957
11
132.122
21
-109.957
0
LINE
8
BLACK
6
CONTINUOUS
10
130.5
20
-109.474
11
130.557
21
-109.533
0
LINE
8
BLACK
6
CONTINUOUS
10
132.603
20
-109.957
11
132.977
21
-109.957
0
LINE
8
BLACK
6
CONTINUOUS
10
131.893
20
-109.957
11
131.984
21
-109.957
0
LINE
8
BLACK
6
CONTINUOUS
10
130.316
20
-109.231
11
130.355
21
-109.29
0
LINE
8
BLACK
6
CONTINUOUS
10
136.296
20
-109.957
11
137.093
21
-109.957
0
LINE
8
BLACK
6
CONTINUOUS
10
131.752
20
-109.957
11
131.793
21
-109.957
0
LINE
8
BLACK
6
CONTINUOUS
10
130.821
20
-109.738
11
130.894
21
-109.78
0
LINE
8
BLACK
6
CONTINUOUS
10
130.448
20
-109.413
11
130.5
21
-109.474
0
LINE
8
BLACK
6
CONTINUOUS
10
130.055
20
-108.789
11
130.117
21
-108.896
0
LINE
8
BLACK
6
CONTINUOUS
10
131.047
20
-109.85
11
131.125
21
-109.878
0
LINE
8
BLACK
6
CONTINUOUS
10
130.969
20
-109.817
11
131.047
21
-109.85
0
LINE
8
BLACK
6
CONTINUOUS
10
126.5
20
-102.7
11
127.263
21
-103.953
0
LINE
8
BLACK
6
CONTINUOUS
10
130.25
20
-109.126
11
130.281
21
-109.176
0
LINE
8
BLACK
6
CONTINUOUS
10
129.662
20
-108.108
11
129.835
21
-108.408
0
LINE
8
BLACK
6
CONTINUOUS
10
128.446
20
-106.002
11
128.817
21
-106.644
0
LINE
8
BLACK
6
CONTINUOUS
10
128.817
20
-106.644
11
129.151
21
-107.224
0
LINE
8
BLACK
6
CONTINUOUS
10
134.75
20
-109.957
11
135.505
21
-109.957
0
LINE
8
BLACK
6
CONTINUOUS
10
132.122
20
-109.957
11
132.323
21
-109.957
0
LINE
8
BLACK
6
CONTINUOUS
10
133.46
20
-109.957
11
134.059
21
-109.957
0
LINE
8
BLACK
6
CONTINUOUS
10
131.514
20
-109.949
11
131.584
21
-109.954
0
LINE
8
BLACK
6
CONTINUOUS
10
131.793
20
-109.957
11
131.835
21
-109.957
0
LINE
8
BLACK
6
CONTINUOUS
10
130.355
20
-109.29
11
130.399
21
-109.351
0
LINE
8
BLACK
6
CONTINUOUS
10
128.054
20
-105.323
11
128.446
21
-106.002
0
LINE
8
BLACK
6
CONTINUOUS
10
130.894
20
-109.78
11
130.969
21
-109.817
0
LINE
8
BLACK
6
CONTINUOUS
10
130.557
20
-109.533
11
130.618
21
-109.59
0
LINE
8
BLACK
6
CONTINUOUS
10
127.263
20
-103.953
11
127.655
21
-104.632
0
LINE
8
BLACK
6
CONTINUOUS
10
130.281
20
-109.176
11
130.316
21
-109.231
0
LINE
8
BLACK
6
CONTINUOUS
10
131.584
20
-109.954
11
131.647
21
-109.956
0
LINE
8
BLACK
6
CONTINUOUS
10
130.117
20
-108.896
11
130.157
21
-108.966
0
LINE
8
BLACK
6
CONTINUOUS
10
129.835
20
-108.408
11
129.964
21
-108.631
0
LINE
8
BLACK
6
CONTINUOUS
10
138.593
20
-109.957
11
139.238
21
-109.957
0
LINE
8
BLACK
6
CONTINUOUS
10
127.655
20
-104.632
11
128.054
21
-105.323
0
LINE
8
BLACK
6
CONTINUOUS
10
135.505
20
-109.957
11
136.296
21
-109.957
0
LINE
8
BLACK
6
CONTINUOUS
10
131.835
20
-109.957
11
131.893
21
-109.957
0
LINE
8
BLACK
6
CONTINUOUS
10
131.205
20
-109.901
11
131.285
21
-109.919
0
LINE
8
BLACK
6
CONTINUOUS
10
130.75
20
-109.693
11
130.821
21
-109.738
0
LINE
8
BLACK
6
CONTINUOUS
10
134.059
20
-109.957
11
134.75
21
-109.957
0
LINE
8
BLACK
6
CONTINUOUS
10
141.819
20
-90.1136
11
141.739
21
-90.0916
0
LINE
8
BLACK
6
CONTINUOUS
10
136.512
20
-90.0387
11
135.717
21
-90.0387
0
LINE
8
BLACK
6
CONTINUOUS
10
137.306
20
-90.0387
11
136.512
21
-90.0387
0
LINE
8
BLACK
6
CONTINUOUS
10
138.776
20
-90.0387
11
138.07
21
-90.0387
0
LINE
8
BLACK
6
CONTINUOUS
10
141.581
20
-90.0613
11
141.504
21
-90.052
0
LINE
8
BLACK
6
CONTINUOUS
10
141.66
20
-90.0743
11
141.581
21
-90.0613
0
LINE
8
BLACK
6
CONTINUOUS
10
142.73
20
-90.9061
11
142.704
21
-90.8609
0
LINE
8
BLACK
6
CONTINUOUS
10
142.196
20
-90.2946
11
142.125
21
-90.2497
0
LINE
8
BLACK
6
CONTINUOUS
10
142.704
20
-90.8609
11
142.672
21
-90.8097
0
LINE
8
BLACK
6
CONTINUOUS
10
141.975
20
-90.1725
11
141.898
21
-90.1407
0
LINE
8
BLACK
6
CONTINUOUS
10
142.752
20
-90.9441
11
142.73
21
-90.9061
0
LINE
8
BLACK
6
CONTINUOUS
10
140.805
20
-90.0387
11
140.59
21
-90.0387
0
LINE
8
BLACK
6
CONTINUOUS
10
141.159
20
-90.0387
11
141.115
21
-90.0387
0
LINE
8
BLACK
6
CONTINUOUS
10
142.636
20
-90.7538
11
142.596
21
-90.6947
0
LINE
8
BLACK
6
CONTINUOUS
10
141.301
20
-90.0397
11
141.246
21
-90.0389
0
LINE
8
BLACK
6
CONTINUOUS
10
141.898
20
-90.1407
11
141.819
21
-90.1136
0
LINE
8
BLACK
6
CONTINUOUS
10
142.391
20
-90.4517
11
142.33
21
-90.3958
0
LINE
8
BLACK
6
CONTINUOUS
10
141.199
20
-90.0387
11
141.159
21
-90.0387
0
LINE
8
BLACK
6
CONTINUOUS
10
142.265
20
-90.3433
11
142.196
21
-90.2946
0
LINE
8
BLACK
6
CONTINUOUS
10
142.125
20
-90.2497
11
142.051
21
-90.2089
0
LINE
8
BLACK
6
CONTINUOUS
10
141.739
20
-90.0916
11
141.66
21
-90.0743
0
LINE
8
BLACK
6
CONTINUOUS
10
142.796
20
-91.0203
11
142.772
21
-90.9781
0
LINE
8
BLACK
6
CONTINUOUS
10
142.33
20
-90.3958
11
142.265
21
-90.3433
0
LINE
8
BLACK
6
CONTINUOUS
10
142.502
20
-90.5718
11
142.449
21
-90.5107
0
LINE
8
BLACK
6
CONTINUOUS
10
138.07
20
-90.0387
11
137.306
21
-90.0387
0
LINE
8
BLACK
6
CONTINUOUS
10
142.833
20
-91.0843
11
142.796
21
-91.0203
0
LINE
8
BLACK
6
CONTINUOUS
10
139.395
20
-90.0387
11
138.776
21
-90.0387
0
LINE
8
BLACK
6
CONTINUOUS
10
142.051
20
-90.2089
11
141.975
21
-90.1725
0
LINE
8
BLACK
6
CONTINUOUS
10
142.449
20
-90.5107
11
142.391
21
-90.4517
0
LINE
8
BLACK
6
CONTINUOUS
10
142.551
20
-90.6335
11
142.502
21
-90.5718
0
LINE
8
BLACK
6
CONTINUOUS
10
141.431
20
-90.0456
11
141.363
21
-90.0417
0
LINE
8
BLACK
6
CONTINUOUS
10
140.954
20
-90.0387
11
140.805
21
-90.0387
0
LINE
8
BLACK
6
CONTINUOUS
10
141.115
20
-90.0387
11
141.052
21
-90.0387
0
LINE
8
BLACK
6
CONTINUOUS
10
141.504
20
-90.052
11
141.431
21
-90.0456
0
LINE
8
BLACK
6
CONTINUOUS
10
140.293
20
-90.0387
11
139.9
21
-90.0387
0
LINE
8
BLACK
6
CONTINUOUS
10
141.363
20
-90.0417
11
141.301
21
-90.0397
0
LINE
8
BLACK
6
CONTINUOUS
10
142.89
20
-91.1834
11
142.833
21
-91.0843
0
LINE
8
BLACK
6
CONTINUOUS
10
134.949
20
-90.0387
11
134.237
21
-90.0387
0
LINE
8
BLACK
6
CONTINUOUS
10
142.672
20
-90.8097
11
142.636
21
-90.7538
0
LINE
8
BLACK
6
CONTINUOUS
10
135.717
20
-90.0387
11
134.949
21
-90.0387
0
LINE
8
BLACK
6
CONTINUOUS
10
141.052
20
-90.0387
11
140.954
21
-90.0387
0
LINE
8
BLACK
6
CONTINUOUS
10
141.246
20
-90.0389
11
141.199
21
-90.0387
0
LINE
8
BLACK
6
CONTINUOUS
10
139.9
20
-90.0387
11
139.395
21
-90.0387
0
LINE
8
BLACK
6
CONTINUOUS
10
142.596
20
-90.6947
11
142.551
21
-90.6335
0
LINE
8
BLACK
6
CONTINUOUS
10
140.59
20
-90.0387
11
140.293
21
-90.0387
0
LINE
8
BLACK
6
CONTINUOUS
10
142.772
20
-90.9781
11
142.752
21
-90.9441
0
LINE
8
BLACK
6
CONTINUOUS
10
131.718
20
-90.0388
11
131.663
21
-90.0396
0
LINE
8
BLACK
6
CONTINUOUS
10
130.412
20
-90.6285
11
130.367
21
-90.6898
0
LINE
8
BLACK
6
CONTINUOUS
10
133.096
20
-90.0387
11
132.694
21
-90.0387
0
LINE
8
BLACK
6
CONTINUOUS
10
130.84
20
-90.2462
11
130.769
21
-90.2908
0
LINE
8
BLACK
6
CONTINUOUS
10
131.226
20
-90.09
11
131.147
21
-90.1116
0
LINE
8
BLACK
6
CONTINUOUS
10
129.874
20
-91.5207
11
129.713
21
-91.7987
0
LINE
8
BLACK
6
CONTINUOUS
10
130.7
20
-90.3393
11
130.635
21
-90.3914
0
LINE
8
BLACK
6
CONTINUOUS
10
131.764
20
-90.0387
11
131.718
21
-90.0388
0
LINE
8
BLACK
6
CONTINUOUS
10
131.147
20
-90.1116
11
131.068
21
-90.1383
0
LINE
8
BLACK
6
CONTINUOUS
10
131.461
20
-90.0513
11
131.385
21
-90.0604
0
LINE
8
BLACK
6
CONTINUOUS
10
130.326
20
-90.7491
11
130.29
21
-90.8053
0
LINE
8
BLACK
6
CONTINUOUS
10
131.914
20
-90.0387
11
131.848
21
-90.0387
0
LINE
8
BLACK
6
CONTINUOUS
10
130.189
20
-90.9752
11
130.165
21
-91.0163
0
LINE
8
BLACK
6
CONTINUOUS
10
129.234
20
-92.6298
11
128.911
21
-93.1883
0
LINE
8
BLACK
6
CONTINUOUS
10
129.502
20
-92.1643
11
129.234
21
-92.6298
0
LINE
8
BLACK
6
CONTINUOUS
10
130.573
20
-90.4471
11
130.515
21
-90.5058
0
LINE
8
BLACK
6
CONTINUOUS
10
131.385
20
-90.0604
11
131.306
21
-90.0731
0
LINE
8
BLACK
6
CONTINUOUS
10
132.39
20
-90.0387
11
132.169
21
-90.0387
0
LINE
8
BLACK
6
CONTINUOUS
10
131.306
20
-90.0731
11
131.226
21
-90.09
0
LINE
8
BLACK
6
CONTINUOUS
10
127.763
20
-95.1774
11
127.367
21
-95.8621
0
LINE
8
BLACK
6
CONTINUOUS
10
128.161
20
-94.4869
11
127.763
21
-95.1774
0
LINE
8
BLACK
6
CONTINUOUS
10
128.549
20
-93.8156
11
128.161
21
-94.4869
0
LINE
8
BLACK
6
CONTINUOUS
10
128.911
20
-93.1883
11
128.549
21
-93.8156
0
LINE
8
BLACK
6
CONTINUOUS
10
129.713
20
-91.7987
11
129.502
21
-92.1643
0
LINE
8
BLACK
6
CONTINUOUS
10
131.663
20
-90.0396
11
131.601
21
-90.0415
0
LINE
8
BLACK
6
CONTINUOUS
10
130.13
20
-91.078
11
130.074
21
-91.1737
0
LINE
8
BLACK
6
CONTINUOUS
10
130.209
20
-90.9413
11
130.189
21
-90.9752
0
LINE
8
BLACK
6
CONTINUOUS
10
130.515
20
-90.5058
11
130.461
21
-90.5668
0
LINE
8
BLACK
6
CONTINUOUS
10
131.803
20
-90.0387
11
131.764
21
-90.0387
0
LINE
8
BLACK
6
CONTINUOUS
10
130.367
20
-90.6898
11
130.326
21
-90.7491
0
LINE
8
BLACK
6
CONTINUOUS
10
130.461
20
-90.5668
11
130.412
21
-90.6285
0
LINE
8
BLACK
6
CONTINUOUS
10
132.016
20
-90.0387
11
131.914
21
-90.0387
0
LINE
8
BLACK
6
CONTINUOUS
10
131.848
20
-90.0387
11
131.803
21
-90.0387
0
LINE
8
BLACK
6
CONTINUOUS
10
130.769
20
-90.2908
11
130.7
21
-90.3393
0
LINE
8
BLACK
6
CONTINUOUS
10
130.914
20
-90.2058
11
130.84
21
-90.2462
0
LINE
8
BLACK
6
CONTINUOUS
10
132.169
20
-90.0387
11
132.016
21
-90.0387
0
LINE
8
BLACK
6
CONTINUOUS
10
131.068
20
-90.1383
11
130.99
21
-90.1698
0
LINE
8
BLACK
6
CONTINUOUS
10
131.533
20
-90.0452
11
131.461
21
-90.0513
0
LINE
8
BLACK
6
CONTINUOUS
10
132.694
20
-90.0387
11
132.39
21
-90.0387
0
LINE
8
BLACK
6
CONTINUOUS
10
130.231
20
-90.9027
11
130.209
21
-90.9413
0
LINE
8
BLACK
6
CONTINUOUS
10
130.29
20
-90.8053
11
130.258
21
-90.857
0
LINE
8
BLACK
6
CONTINUOUS
10
134.237
20
-90.0387
11
133.611
21
-90.0387
0
LINE
8
BLACK
6
CONTINUOUS
10
130.635
20
-90.3914
11
130.573
21
-90.4471
0
LINE
8
BLACK
6
CONTINUOUS
10
130.99
20
-90.1698
11
130.914
21
-90.2058
0
LINE
8
BLACK
6
CONTINUOUS
10
129.992
20
-91.3168
11
129.874
21
-91.5207
0
LINE
8
BLACK
6
CONTINUOUS
10
133.611
20
-90.0387
11
133.096
21
-90.0387
0
LINE
8
BLACK
6
CONTINUOUS
10
130.074
20
-91.1737
11
129.992
21
-91.3168
0
LINE
8
BLACK
6
CONTINUOUS
10
130.165
20
-91.0163
11
130.13
21
-91.078
0
LINE
8
BLACK
6
CONTINUOUS
10
131.601
20
-90.0415
11
131.533
21
-90.0452
0
LINE
8
BLACK
6
CONTINUOUS
10
127.367
20
-95.8621
11
126.5
21
-97.3
0
LINE
8
BLACK
6
CONTINUOUS
10
130.258
20
-90.857
11
130.231
21
-90.9027
0
LINE
8
BLACK
6
CONTINUOUS
10
145.229
20
-95.2335
11
144.83
21
-94.5425
0
LINE
8
BLACK
6
CONTINUOUS
10
145.623
20
-95.9166
11
145.229
21
-95.2335
0
LINE
8
BLACK
6
CONTINUOUS
10
142.976
20
-91.3309
11
142.89
21
-91.1834
0
LINE
8
BLACK
6
CONTINUOUS
10
143.097
20
-91.5403
11
142.976
21
-91.3309
0
LINE
8
BLACK
6
CONTINUOUS
10
143.261
20
-91.8249
11
143.097
21
-91.5403
0
LINE
8
BLACK
6
CONTINUOUS
10
143.476
20
-92.1982
11
143.261
21
-91.8249
0
LINE
8
BLACK
6
CONTINUOUS
10
143.75
20
-92.6719
11
143.476
21
-92.1982
0
LINE
8
BLACK
6
CONTINUOUS
10
144.076
20
-93.2369
11
143.75
21
-92.6719
0
LINE
8
BLACK
6
CONTINUOUS
10
144.441
20
-93.8688
11
144.076
21
-93.2369
0
LINE
8
BLACK
6
CONTINUOUS
10
146.4
20
-97.3
11
145.623
21
-95.9166
0
LINE
8
BLACK
6
CONTINUOUS
10
144.83
20
-94.5425
11
144.441
21
-93.8688
0
LINE
8
BLACK
6
CONTINUOUS
10
144.723
20
-105.638
11
145.121
21
-104.95
0
LINE
8
BLACK
6
CONTINUOUS
10
145.121
20
-104.95
11
145.518
21
-104.262
0
LINE
8
BLACK
6
CONTINUOUS
10
142.584
20
-109.318
11
142.626
21
-109.258
0
LINE
8
BLACK
6
CONTINUOUS
10
142.663
20
-109.201
11
142.696
21
-109.148
0
LINE
8
BLACK
6
CONTINUOUS
10
143.212
20
-108.256
11
143.413
21
-107.908
0
LINE
8
BLACK
6
CONTINUOUS
10
142.747
20
-109.061
11
142.766
21
-109.027
0
LINE
8
BLACK
6
CONTINUOUS
10
142.626
20
-109.258
11
142.663
21
-109.201
0
LINE
8
BLACK
6
CONTINUOUS
10
142.766
20
-109.027
11
142.789
21
-108.989
0
LINE
8
BLACK
6
CONTINUOUS
10
143.06
20
-108.519
11
143.212
21
-108.256
0
LINE
8
BLACK
6
CONTINUOUS
10
143.984
20
-106.919
11
144.339
21
-106.303
0
LINE
8
BLACK
6
CONTINUOUS
10
142.488
20
-109.441
11
142.538
21
-109.379
0
LINE
8
BLACK
6
CONTINUOUS
10
142.696
20
-109.148
11
142.724
21
-109.101
0
LINE
8
BLACK
6
CONTINUOUS
10
145.518
20
-104.262
11
146.4
21
-102.7
0
LINE
8
BLACK
6
CONTINUOUS
10
142.724
20
-109.101
11
142.747
21
-109.061
0
LINE
8
BLACK
6
CONTINUOUS
10
142.873
20
-108.844
11
142.949
21
-108.711
0
LINE
8
BLACK
6
CONTINUOUS
10
142.949
20
-108.711
11
143.06
21
-108.519
0
LINE
8
BLACK
6
CONTINUOUS
10
143.413
20
-107.908
11
143.67
21
-107.462
0
LINE
8
BLACK
6
CONTINUOUS
10
143.67
20
-107.462
11
143.984
21
-106.919
0
LINE
8
BLACK
6
CONTINUOUS
10
142.822
20
-108.932
11
142.873
21
-108.844
0
LINE
8
BLACK
6
CONTINUOUS
10
144.339
20
-106.303
11
144.723
21
-105.638
0
LINE
8
BLACK
6
CONTINUOUS
10
142.789
20
-108.989
11
142.822
21
-108.932
0
LINE
8
BLACK
6
CONTINUOUS
10
142.538
20
-109.379
11
142.584
21
-109.318
  0
ENDSEC
  0
EOF
