  0
SECTION
  2
HEADER
  9
$ANGBASE
  50
0.0
  9
$ANGDIR
  70
  1
  9
$MEASUREMENT
  70
0
  0
ENDSEC
  0
SECTION
  2
TABLES
  0
TABLE
  2
LTYPE
  70
4
  0
LTYPE
  5
40F
  2
CONTINUOUS
  70
0
  3
Solid line
  72
65
  73
0
  40
0.0
  0
LTYPE
  5
410
  2
DASHDOT
 70
0
  3
Dash Dot ____ _ ____ _
 72
65
 73
4
 40
2.0
 49
1.25
 49
-0.25
 49
0.25
 49
-0.25
  0
LTYPE
  5
411
  2
DASHED
 70
0
  3
Dashed __ __ __ __ __
 72
65
 73
2
 40
0.75
 49
0.5
 49
-0.25
  0
LTYPE
  5
43B
  2
DOTTED
 70
0
  3
Dotted .  .  .  .
 72
65
 73
2
 40
0.2
 49
0.0
 49
-0.2
  0
ENDTAB
  0
TABLE
  2
STYLE
  70
4
  0
STYLE
  2
KICAD
  70
0
  40
0
  41
1
  42
1
  50
0
  71
0
  3
isocp.shx
  0
STYLE
  2
KICADB
  70
0
  40
0
  41
1
  42
1
  50
0
  71
0
  3
isocp.shx
  0
STYLE
  2
KICADI
  70
0
  40
0
  41
1
  42
1
  50
15
  71
0
  3
isocp.shx
  0
STYLE
  2
KICADBI
  70
0
  40
0
  41
1
  42
1
  50
15
  71
0
  3
isocp.shx
  0
ENDTAB
  0
TABLE
  2
LAYER
  70
30
  0
LAYER
  2
BLACK
  70
0
  62
7
  6
CONTINUOUS
  0
LAYER
  2
GRAY1
  70
0
  62
251
  6
CONTINUOUS
  0
LAYER
  2
GRAY2
  70
0
  62
8
  6
CONTINUOUS
  0
LAYER
  2
GRAY3
  70
0
  62
9
  6
CONTINUOUS
  0
LAYER
  2
WHITE
  70
0
  62
7
  6
CONTINUOUS
  0
LAYER
  2
LYELLOW
  70
0
  62
51
  6
CONTINUOUS
  0
LAYER
  2
BLUE1
  70
0
  62
178
  6
CONTINUOUS
  0
LAYER
  2
GREEN1
  70
0
  62
98
  6
CONTINUOUS
  0
LAYER
  2
CYAN1
  70
0
  62
138
  6
CONTINUOUS
  0
LAYER
  2
RED1
  70
0
  62
18
  6
CONTINUOUS
  0
LAYER
  2
MAGENTA1
  70
0
  62
228
  6
CONTINUOUS
  0
LAYER
  2
BROWN1
  70
0
  62
58
  6
CONTINUOUS
  0
LAYER
  2
BLUE2
  70
0
  62
5
  6
CONTINUOUS
  0
LAYER
  2
GREEN2
  70
0
  62
3
  6
CONTINUOUS
  0
LAYER
  2
CYAN2
  70
0
  62
4
  6
CONTINUOUS
  0
LAYER
  2
RED2
  70
0
  62
1
  6
CONTINUOUS
  0
LAYER
  2
MAGENTA2
  70
0
  62
6
  6
CONTINUOUS
  0
LAYER
  2
BROWN2
  70
0
  62
54
  6
CONTINUOUS
  0
LAYER
  2
BLUE3
  70
0
  62
171
  6
CONTINUOUS
  0
LAYER
  2
GREEN3
  70
0
  62
91
  6
CONTINUOUS
  0
LAYER
  2
CYAN3
  70
0
  62
131
  6
CONTINUOUS
  0
LAYER
  2
RED3
  70
0
  62
11
  6
CONTINUOUS
  0
LAYER
  2
MAGENTA3
  70
0
  62
221
  6
CONTINUOUS
  0
LAYER
  2
YELLOW3
  70
0
  62
2
  6
CONTINUOUS
  0
LAYER
  2
BLUE4
  70
0
  62
5
  6
CONTINUOUS
  0
LAYER
  2
GREEN4
  70
0
  62
3
  6
CONTINUOUS
  0
LAYER
  2
CYAN4
  70
0
  62
4
  6
CONTINUOUS
  0
LAYER
  2
RED4
  70
0
  62
1
  6
CONTINUOUS
  0
LAYER
  2
MAGENTA4
  70
0
  62
6
  6
CONTINUOUS
  0
LAYER
  2
YELLOW4
  70
0
  62
2
  6
CONTINUOUS
  0
ENDTAB
  0
ENDSEC
  0
SECTION
  2
ENTITIES
0
LINE
8
BLACK
6
CONTINUOUS
10
131.786
20
-110.032
11
131.759
21
-110.032
0
LINE
8
BLACK
6
CONTINUOUS
10
131.759
20
-110.032
11
131.759
21
-110.032
0
LINE
8
BLACK
6
CONTINUOUS
10
131.759
20
-110.032
11
131.752
21
-110.032
0
LINE
8
BLACK
6
CONTINUOUS
10
131.752
20
-110.032
11
131.746
21
-110.032
0
LINE
8
BLACK
6
CONTINUOUS
10
131.746
20
-110.032
11
131.746
21
-110.032
0
LINE
8
BLACK
6
CONTINUOUS
10
131.746
20
-110.032
11
131.71
21
-110.032
0
LINE
8
BLACK
6
CONTINUOUS
10
131.71
20
-110.032
11
131.709
21
-110.032
0
LINE
8
BLACK
6
CONTINUOUS
10
131.709
20
-110.032
11
131.703
21
-110.032
0
LINE
8
BLACK
6
CONTINUOUS
10
131.703
20
-110.032
11
131.697
21
-110.032
0
LINE
8
BLACK
6
CONTINUOUS
10
131.697
20
-110.032
11
131.696
21
-110.032
0
LINE
8
BLACK
6
CONTINUOUS
10
131.696
20
-110.032
11
131.652
21
-110.031
0
LINE
8
BLACK
6
CONTINUOUS
10
131.652
20
-110.031
11
131.651
21
-110.031
0
LINE
8
BLACK
6
CONTINUOUS
10
131.651
20
-110.031
11
131.645
21
-110.031
0
LINE
8
BLACK
6
CONTINUOUS
10
131.645
20
-110.031
11
131.639
21
-110.031
0
LINE
8
BLACK
6
CONTINUOUS
10
131.639
20
-110.031
11
131.639
21
-110.031
0
LINE
8
BLACK
6
CONTINUOUS
10
131.639
20
-110.031
11
131.586
21
-110.029
0
LINE
8
BLACK
6
CONTINUOUS
10
131.586
20
-110.029
11
131.585
21
-110.029
0
LINE
8
BLACK
6
CONTINUOUS
10
131.585
20
-110.029
11
131.58
21
-110.029
0
LINE
8
BLACK
6
CONTINUOUS
10
131.58
20
-110.029
11
131.574
21
-110.028
0
LINE
8
BLACK
6
CONTINUOUS
10
131.574
20
-110.028
11
131.573
21
-110.028
0
LINE
8
BLACK
6
CONTINUOUS
10
131.573
20
-110.028
11
131.515
21
-110.025
0
LINE
8
BLACK
6
CONTINUOUS
10
131.515
20
-110.025
11
131.514
21
-110.025
0
LINE
8
BLACK
6
CONTINUOUS
10
131.514
20
-110.025
11
131.508
21
-110.024
0
LINE
8
BLACK
6
CONTINUOUS
10
131.508
20
-110.024
11
131.503
21
-110.024
0
LINE
8
BLACK
6
CONTINUOUS
10
131.503
20
-110.024
11
131.502
21
-110.024
0
LINE
8
BLACK
6
CONTINUOUS
10
131.502
20
-110.024
11
131.439
21
-110.018
0
LINE
8
BLACK
6
CONTINUOUS
10
131.439
20
-110.018
11
131.437
21
-110.018
0
LINE
8
BLACK
6
CONTINUOUS
10
131.437
20
-110.018
11
131.432
21
-110.017
0
LINE
8
BLACK
6
CONTINUOUS
10
131.432
20
-110.017
11
131.427
21
-110.017
0
LINE
8
BLACK
6
CONTINUOUS
10
131.427
20
-110.017
11
131.426
21
-110.016
0
LINE
8
BLACK
6
CONTINUOUS
10
131.426
20
-110.016
11
131.359
21
-110.008
0
LINE
8
BLACK
6
CONTINUOUS
10
131.359
20
-110.008
11
131.357
21
-110.008
0
LINE
8
BLACK
6
CONTINUOUS
10
131.357
20
-110.008
11
131.352
21
-110.007
0
LINE
8
BLACK
6
CONTINUOUS
10
131.352
20
-110.007
11
131.347
21
-110.006
0
LINE
8
BLACK
6
CONTINUOUS
10
131.347
20
-110.006
11
131.346
21
-110.006
0
LINE
8
BLACK
6
CONTINUOUS
10
131.346
20
-110.006
11
131.276
21
-109.993
0
LINE
8
BLACK
6
CONTINUOUS
10
131.276
20
-109.993
11
131.274
21
-109.993
0
LINE
8
BLACK
6
CONTINUOUS
10
131.274
20
-109.993
11
131.27
21
-109.992
0
LINE
8
BLACK
6
CONTINUOUS
10
131.27
20
-109.992
11
131.265
21
-109.992
0
LINE
8
BLACK
6
CONTINUOUS
10
131.265
20
-109.992
11
131.263
21
-109.991
0
LINE
8
BLACK
6
CONTINUOUS
10
131.263
20
-109.991
11
131.192
21
-109.975
0
LINE
8
BLACK
6
CONTINUOUS
10
131.192
20
-109.975
11
131.19
21
-109.975
0
LINE
8
BLACK
6
CONTINUOUS
10
131.19
20
-109.975
11
131.186
21
-109.973
0
LINE
8
BLACK
6
CONTINUOUS
10
131.186
20
-109.973
11
131.182
21
-109.972
0
LINE
8
BLACK
6
CONTINUOUS
10
131.182
20
-109.972
11
131.18
21
-109.972
0
LINE
8
BLACK
6
CONTINUOUS
10
131.18
20
-109.972
11
131.108
21
-109.951
0
LINE
8
BLACK
6
CONTINUOUS
10
131.108
20
-109.951
11
131.106
21
-109.951
0
LINE
8
BLACK
6
CONTINUOUS
10
131.106
20
-109.951
11
131.102
21
-109.949
0
LINE
8
BLACK
6
CONTINUOUS
10
131.102
20
-109.949
11
131.098
21
-109.948
0
LINE
8
BLACK
6
CONTINUOUS
10
131.098
20
-109.948
11
131.096
21
-109.947
0
LINE
8
BLACK
6
CONTINUOUS
10
131.096
20
-109.947
11
131.025
21
-109.922
0
LINE
8
BLACK
6
CONTINUOUS
10
131.025
20
-109.922
11
131.023
21
-109.921
0
LINE
8
BLACK
6
CONTINUOUS
10
131.023
20
-109.921
11
131.019
21
-109.92
0
LINE
8
BLACK
6
CONTINUOUS
10
131.019
20
-109.92
11
131.015
21
-109.918
0
LINE
8
BLACK
6
CONTINUOUS
10
131.015
20
-109.918
11
131.013
21
-109.917
0
LINE
8
BLACK
6
CONTINUOUS
10
131.013
20
-109.917
11
130.944
21
-109.888
0
LINE
8
BLACK
6
CONTINUOUS
10
130.944
20
-109.888
11
130.942
21
-109.887
0
LINE
8
BLACK
6
CONTINUOUS
10
130.942
20
-109.887
11
130.938
21
-109.885
0
LINE
8
BLACK
6
CONTINUOUS
10
130.938
20
-109.885
11
130.934
21
-109.883
0
LINE
8
BLACK
6
CONTINUOUS
10
130.934
20
-109.883
11
130.932
21
-109.882
0
LINE
8
BLACK
6
CONTINUOUS
10
130.932
20
-109.882
11
130.865
21
-109.849
0
LINE
8
BLACK
6
CONTINUOUS
10
130.865
20
-109.849
11
130.863
21
-109.848
0
LINE
8
BLACK
6
CONTINUOUS
10
130.863
20
-109.848
11
130.859
21
-109.846
0
LINE
8
BLACK
6
CONTINUOUS
10
130.859
20
-109.846
11
130.855
21
-109.844
0
LINE
8
BLACK
6
CONTINUOUS
10
130.855
20
-109.844
11
130.853
21
-109.843
0
LINE
8
BLACK
6
CONTINUOUS
10
130.853
20
-109.843
11
130.787
21
-109.806
0
LINE
8
BLACK
6
CONTINUOUS
10
130.787
20
-109.806
11
130.785
21
-109.805
0
LINE
8
BLACK
6
CONTINUOUS
10
130.785
20
-109.805
11
130.782
21
-109.802
0
LINE
8
BLACK
6
CONTINUOUS
10
130.782
20
-109.802
11
130.778
21
-109.8
0
LINE
8
BLACK
6
CONTINUOUS
10
130.778
20
-109.8
11
130.776
21
-109.799
0
LINE
8
BLACK
6
CONTINUOUS
10
130.776
20
-109.799
11
130.713
21
-109.758
0
LINE
8
BLACK
6
CONTINUOUS
10
130.713
20
-109.758
11
130.711
21
-109.757
0
LINE
8
BLACK
6
CONTINUOUS
10
130.711
20
-109.757
11
130.707
21
-109.754
0
LINE
8
BLACK
6
CONTINUOUS
10
130.707
20
-109.754
11
130.704
21
-109.752
0
LINE
8
BLACK
6
CONTINUOUS
10
130.704
20
-109.752
11
130.702
21
-109.751
0
LINE
8
BLACK
6
CONTINUOUS
10
130.702
20
-109.751
11
130.641
21
-109.706
0
LINE
8
BLACK
6
CONTINUOUS
10
130.641
20
-109.706
11
130.639
21
-109.705
0
LINE
8
BLACK
6
CONTINUOUS
10
130.639
20
-109.705
11
130.636
21
-109.702
0
LINE
8
BLACK
6
CONTINUOUS
10
130.636
20
-109.702
11
130.633
21
-109.7
0
LINE
8
BLACK
6
CONTINUOUS
10
130.633
20
-109.7
11
130.631
21
-109.698
0
LINE
8
BLACK
6
CONTINUOUS
10
130.631
20
-109.698
11
130.573
21
-109.651
0
LINE
8
BLACK
6
CONTINUOUS
10
130.573
20
-109.651
11
130.571
21
-109.649
0
LINE
8
BLACK
6
CONTINUOUS
10
130.571
20
-109.649
11
130.568
21
-109.646
0
LINE
8
BLACK
6
CONTINUOUS
10
130.568
20
-109.646
11
130.565
21
-109.644
0
LINE
8
BLACK
6
CONTINUOUS
10
130.565
20
-109.644
11
130.563
21
-109.642
0
LINE
8
BLACK
6
CONTINUOUS
10
130.563
20
-109.642
11
130.509
21
-109.591
0
LINE
8
BLACK
6
CONTINUOUS
10
130.509
20
-109.591
11
130.507
21
-109.59
0
LINE
8
BLACK
6
CONTINUOUS
10
130.507
20
-109.59
11
130.504
21
-109.587
0
LINE
8
BLACK
6
CONTINUOUS
10
130.504
20
-109.587
11
130.501
21
-109.584
0
LINE
8
BLACK
6
CONTINUOUS
10
130.501
20
-109.584
11
130.5
21
-109.582
0
LINE
8
BLACK
6
CONTINUOUS
10
130.5
20
-109.582
11
130.449
21
-109.529
0
LINE
8
BLACK
6
CONTINUOUS
10
130.449
20
-109.529
11
130.447
21
-109.528
0
LINE
8
BLACK
6
CONTINUOUS
10
130.447
20
-109.528
11
130.444
21
-109.524
0
LINE
8
BLACK
6
CONTINUOUS
10
130.444
20
-109.524
11
130.441
21
-109.521
0
LINE
8
BLACK
6
CONTINUOUS
10
130.441
20
-109.521
11
130.44
21
-109.519
0
LINE
8
BLACK
6
CONTINUOUS
10
130.44
20
-109.519
11
130.394
21
-109.465
0
LINE
8
BLACK
6
CONTINUOUS
10
130.394
20
-109.465
11
130.393
21
-109.464
0
LINE
8
BLACK
6
CONTINUOUS
10
130.393
20
-109.464
11
130.39
21
-109.46
0
LINE
8
BLACK
6
CONTINUOUS
10
130.39
20
-109.46
11
130.386
21
-109.456
0
LINE
8
BLACK
6
CONTINUOUS
10
130.386
20
-109.456
11
130.385
21
-109.455
0
LINE
8
BLACK
6
CONTINUOUS
10
130.385
20
-109.455
11
130.343
21
-109.401
0
LINE
8
BLACK
6
CONTINUOUS
10
130.343
20
-109.401
11
130.342
21
-109.4
0
LINE
8
BLACK
6
CONTINUOUS
10
130.342
20
-109.4
11
130.339
21
-109.396
0
LINE
8
BLACK
6
CONTINUOUS
10
130.339
20
-109.396
11
130.336
21
-109.392
0
LINE
8
BLACK
6
CONTINUOUS
10
130.336
20
-109.392
11
130.335
21
-109.391
0
LINE
8
BLACK
6
CONTINUOUS
10
130.335
20
-109.391
11
130.298
21
-109.338
0
LINE
8
BLACK
6
CONTINUOUS
10
130.298
20
-109.338
11
130.297
21
-109.337
0
LINE
8
BLACK
6
CONTINUOUS
10
130.297
20
-109.337
11
130.294
21
-109.333
0
LINE
8
BLACK
6
CONTINUOUS
10
130.294
20
-109.333
11
130.291
21
-109.329
0
LINE
8
BLACK
6
CONTINUOUS
10
130.291
20
-109.329
11
130.29
21
-109.327
0
LINE
8
BLACK
6
CONTINUOUS
10
130.29
20
-109.327
11
130.257
21
-109.278
0
LINE
8
BLACK
6
CONTINUOUS
10
130.257
20
-109.278
11
130.256
21
-109.277
0
LINE
8
BLACK
6
CONTINUOUS
10
130.256
20
-109.277
11
130.253
21
-109.272
0
LINE
8
BLACK
6
CONTINUOUS
10
130.253
20
-109.272
11
130.25
21
-109.268
0
LINE
8
BLACK
6
CONTINUOUS
10
130.25
20
-109.268
11
130.249
21
-109.267
0
LINE
8
BLACK
6
CONTINUOUS
10
130.249
20
-109.267
11
130.22
21
-109.221
0
LINE
8
BLACK
6
CONTINUOUS
10
130.22
20
-109.221
11
130.22
21
-109.221
0
LINE
8
BLACK
6
CONTINUOUS
10
130.22
20
-109.221
11
130.217
21
-109.216
0
LINE
8
BLACK
6
CONTINUOUS
10
130.217
20
-109.216
11
130.214
21
-109.211
0
LINE
8
BLACK
6
CONTINUOUS
10
130.214
20
-109.211
11
130.214
21
-109.21
0
LINE
8
BLACK
6
CONTINUOUS
10
130.214
20
-109.21
11
130.189
21
-109.17
0
LINE
8
BLACK
6
CONTINUOUS
10
130.189
20
-109.17
11
130.189
21
-109.17
0
LINE
8
BLACK
6
CONTINUOUS
10
130.189
20
-109.17
11
130.186
21
-109.164
0
LINE
8
BLACK
6
CONTINUOUS
10
130.186
20
-109.164
11
130.183
21
-109.159
0
LINE
8
BLACK
6
CONTINUOUS
10
130.183
20
-109.159
11
130.182
21
-109.159
0
LINE
8
BLACK
6
CONTINUOUS
10
130.182
20
-109.159
11
130.163
21
-109.126
0
LINE
8
BLACK
6
CONTINUOUS
10
130.163
20
-109.126
11
130.163
21
-109.125
0
LINE
8
BLACK
6
CONTINUOUS
10
130.163
20
-109.125
11
130.159
21
-109.12
0
LINE
8
BLACK
6
CONTINUOUS
10
130.159
20
-109.12
11
130.156
21
-109.114
0
LINE
8
BLACK
6
CONTINUOUS
10
130.156
20
-109.114
11
130.156
21
-109.114
0
LINE
8
BLACK
6
CONTINUOUS
10
130.156
20
-109.114
11
130.142
21
-109.089
0
LINE
8
BLACK
6
CONTINUOUS
10
130.142
20
-109.089
11
130.142
21
-109.089
0
LINE
8
BLACK
6
CONTINUOUS
10
130.142
20
-109.089
11
130.137
21
-109.082
0
LINE
8
BLACK
6
CONTINUOUS
10
130.137
20
-109.082
11
130.135
21
-109.077
0
LINE
8
BLACK
6
CONTINUOUS
10
130.135
20
-109.077
11
130.135
21
-109.077
0
LINE
8
BLACK
6
CONTINUOUS
10
130.135
20
-109.077
11
130.115
21
-109.043
0
LINE
8
BLACK
6
CONTINUOUS
10
130.115
20
-109.043
11
130.115
21
-109.043
0
LINE
8
BLACK
6
CONTINUOUS
10
130.115
20
-109.043
11
130.089
21
-108.997
0
LINE
8
BLACK
6
CONTINUOUS
10
130.089
20
-108.997
11
130.089
21
-108.997
0
LINE
8
BLACK
6
CONTINUOUS
10
130.089
20
-108.997
11
130.055
21
-108.939
0
LINE
8
BLACK
6
CONTINUOUS
10
130.055
20
-108.939
11
130.055
21
-108.939
0
LINE
8
BLACK
6
CONTINUOUS
10
130.055
20
-108.939
11
129.993
21
-108.832
0
LINE
8
BLACK
6
CONTINUOUS
10
129.993
20
-108.832
11
129.993
21
-108.832
0
LINE
8
BLACK
6
CONTINUOUS
10
129.993
20
-108.832
11
129.902
21
-108.674
0
LINE
8
BLACK
6
CONTINUOUS
10
129.902
20
-108.674
11
129.902
21
-108.674
0
LINE
8
BLACK
6
CONTINUOUS
10
129.902
20
-108.674
11
129.774
21
-108.451
0
LINE
8
BLACK
6
CONTINUOUS
10
129.774
20
-108.451
11
129.774
21
-108.451
0
LINE
8
BLACK
6
CONTINUOUS
10
129.774
20
-108.451
11
129.6
21
-108.151
0
LINE
8
BLACK
6
CONTINUOUS
10
129.6
20
-108.151
11
129.6
21
-108.151
0
LINE
8
BLACK
6
CONTINUOUS
10
129.6
20
-108.151
11
129.374
21
-107.759
0
LINE
8
BLACK
6
CONTINUOUS
10
129.374
20
-107.759
11
129.374
21
-107.759
0
LINE
8
BLACK
6
CONTINUOUS
10
129.374
20
-107.759
11
129.09
21
-107.267
0
LINE
8
BLACK
6
CONTINUOUS
10
129.09
20
-107.267
11
129.09
21
-107.267
0
LINE
8
BLACK
6
CONTINUOUS
10
129.09
20
-107.267
11
128.755
21
-106.687
0
LINE
8
BLACK
6
CONTINUOUS
10
128.755
20
-106.687
11
128.755
21
-106.687
0
LINE
8
BLACK
6
CONTINUOUS
10
128.755
20
-106.687
11
128.385
21
-106.045
0
LINE
8
BLACK
6
CONTINUOUS
10
128.385
20
-106.045
11
128.384
21
-106.045
0
LINE
8
BLACK
6
CONTINUOUS
10
128.384
20
-106.045
11
127.993
21
-105.367
0
LINE
8
BLACK
6
CONTINUOUS
10
127.993
20
-105.367
11
127.993
21
-105.367
0
LINE
8
BLACK
6
CONTINUOUS
10
127.993
20
-105.367
11
127.593
21
-104.675
0
LINE
8
BLACK
6
CONTINUOUS
10
127.593
20
-104.675
11
127.593
21
-104.675
0
LINE
8
BLACK
6
CONTINUOUS
10
127.593
20
-104.675
11
127.199
21
-103.991
0
LINE
8
BLACK
6
CONTINUOUS
10
127.199
20
-103.991
11
126.458
21
-102.775
0
LINE
8
BLACK
6
CONTINUOUS
10
126.458
20
-102.775
11
123.993
21
-102.775
0
LINE
8
BLACK
6
CONTINUOUS
10
123.993
20
-102.775
11
123.989
21
-102.774
0
LINE
8
BLACK
6
CONTINUOUS
10
123.989
20
-102.774
11
123.347
21
-102.697
0
LINE
8
BLACK
6
CONTINUOUS
10
123.347
20
-102.697
11
123.346
21
-102.696
0
LINE
8
BLACK
6
CONTINUOUS
10
123.346
20
-102.696
11
123.338
21
-102.694
0
LINE
8
BLACK
6
CONTINUOUS
10
123.338
20
-102.694
11
123.329
21
-102.692
0
LINE
8
BLACK
6
CONTINUOUS
10
123.329
20
-102.692
11
122.723
21
-102.463
0
LINE
8
BLACK
6
CONTINUOUS
10
122.723
20
-102.463
11
122.722
21
-102.463
0
LINE
8
BLACK
6
CONTINUOUS
10
122.722
20
-102.463
11
122.714
21
-102.459
0
LINE
8
BLACK
6
CONTINUOUS
10
122.714
20
-102.459
11
122.707
21
-102.455
0
LINE
8
BLACK
6
CONTINUOUS
10
122.707
20
-102.455
11
122.172
21
-102.087
0
LINE
8
BLACK
6
CONTINUOUS
10
122.172
20
-102.087
11
122.172
21
-102.087
0
LINE
8
BLACK
6
CONTINUOUS
10
122.172
20
-102.087
11
122.172
21
-102.087
0
LINE
8
BLACK
6
CONTINUOUS
10
122.172
20
-102.087
11
122.171
21
-102.087
0
LINE
8
BLACK
6
CONTINUOUS
10
122.171
20
-102.087
11
122.165
21
-102.081
0
LINE
8
BLACK
6
CONTINUOUS
10
122.165
20
-102.081
11
122.158
21
-102.075
0
LINE
8
BLACK
6
CONTINUOUS
10
122.158
20
-102.075
11
121.727
21
-101.591
0
LINE
8
BLACK
6
CONTINUOUS
10
121.727
20
-101.591
11
121.727
21
-101.591
0
LINE
8
BLACK
6
CONTINUOUS
10
121.727
20
-101.591
11
121.727
21
-101.591
0
LINE
8
BLACK
6
CONTINUOUS
10
121.727
20
-101.591
11
121.726
21
-101.59
0
LINE
8
BLACK
6
CONTINUOUS
10
121.726
20
-101.59
11
121.722
21
-101.583
0
LINE
8
BLACK
6
CONTINUOUS
10
121.722
20
-101.583
11
121.717
21
-101.576
0
LINE
8
BLACK
6
CONTINUOUS
10
121.717
20
-101.576
11
121.413
21
-101.003
0
LINE
8
BLACK
6
CONTINUOUS
10
121.413
20
-101.003
11
121.413
21
-101.002
0
LINE
8
BLACK
6
CONTINUOUS
10
121.413
20
-101.002
11
121.41
21
-100.994
0
LINE
8
BLACK
6
CONTINUOUS
10
121.41
20
-100.994
11
121.407
21
-100.986
0
LINE
8
BLACK
6
CONTINUOUS
10
121.407
20
-100.986
11
121.249
21
-100.357
0
LINE
8
BLACK
6
CONTINUOUS
10
121.249
20
-100.357
11
121.248
21
-100.356
0
LINE
8
BLACK
6
CONTINUOUS
10
121.248
20
-100.356
11
121.247
21
-100.347
0
LINE
8
BLACK
6
CONTINUOUS
10
121.247
20
-100.347
11
121.246
21
-100.339
0
LINE
8
BLACK
6
CONTINUOUS
10
121.246
20
-100.339
11
121.243
21
-99.6901
0
LINE
8
BLACK
6
CONTINUOUS
10
121.243
20
-99.6901
11
121.243
21
-99.6893
0
LINE
8
BLACK
6
CONTINUOUS
10
121.243
20
-99.6893
11
121.244
21
-99.6807
0
LINE
8
BLACK
6
CONTINUOUS
10
121.244
20
-99.6807
11
121.245
21
-99.6722
0
LINE
8
BLACK
6
CONTINUOUS
10
121.245
20
-99.6722
11
121.396
21
-99.0413
0
LINE
8
BLACK
6
CONTINUOUS
10
121.396
20
-99.0413
11
121.397
21
-99.0406
0
LINE
8
BLACK
6
CONTINUOUS
10
121.397
20
-99.0406
11
121.4
21
-99.0325
0
LINE
8
BLACK
6
CONTINUOUS
10
121.4
20
-99.0325
11
121.403
21
-99.0245
0
LINE
8
BLACK
6
CONTINUOUS
10
121.403
20
-99.0245
11
121.7
21
-98.448
0
LINE
8
BLACK
6
CONTINUOUS
10
121.7
20
-98.448
11
121.701
21
-98.4473
0
LINE
8
BLACK
6
CONTINUOUS
10
121.701
20
-98.4473
11
121.706
21
-98.4402
0
LINE
8
BLACK
6
CONTINUOUS
10
121.706
20
-98.4402
11
121.71
21
-98.4331
0
LINE
8
BLACK
6
CONTINUOUS
10
121.71
20
-98.4331
11
122.137
21
-97.9442
0
LINE
8
BLACK
6
CONTINUOUS
10
122.137
20
-97.9442
11
122.137
21
-97.9436
0
LINE
8
BLACK
6
CONTINUOUS
10
122.137
20
-97.9436
11
122.144
21
-97.9379
0
LINE
8
BLACK
6
CONTINUOUS
10
122.144
20
-97.9379
11
122.15
21
-97.9321
0
LINE
8
BLACK
6
CONTINUOUS
10
122.15
20
-97.9321
11
122.681
21
-97.5591
0
LINE
8
BLACK
6
CONTINUOUS
10
122.681
20
-97.5591
11
122.682
21
-97.5587
0
LINE
8
BLACK
6
CONTINUOUS
10
122.682
20
-97.5587
11
122.689
21
-97.5547
0
LINE
8
BLACK
6
CONTINUOUS
10
122.689
20
-97.5547
11
122.697
21
-97.5506
0
LINE
8
BLACK
6
CONTINUOUS
10
122.697
20
-97.5506
11
123.301
21
-97.3149
0
LINE
8
BLACK
6
CONTINUOUS
10
123.301
20
-97.3149
11
123.302
21
-97.3147
0
LINE
8
BLACK
6
CONTINUOUS
10
123.302
20
-97.3147
11
123.31
21
-97.3126
0
LINE
8
BLACK
6
CONTINUOUS
10
123.31
20
-97.3126
11
123.319
21
-97.3105
0
LINE
8
BLACK
6
CONTINUOUS
10
123.319
20
-97.3105
11
123.962
21
-97.2258
0
LINE
8
BLACK
6
CONTINUOUS
10
123.962
20
-97.2258
11
123.963
21
-97.2257
0
LINE
8
BLACK
6
CONTINUOUS
10
123.963
20
-97.2257
11
123.967
21
-97.2257
0
LINE
8
BLACK
6
CONTINUOUS
10
123.967
20
-97.2257
11
123.971
21
-97.2251
0
LINE
8
BLACK
6
CONTINUOUS
10
123.971
20
-97.2251
11
123.993
21
-97.225
0
LINE
8
BLACK
6
CONTINUOUS
10
123.993
20
-97.225
11
123.993
21
-97.225
0
LINE
8
BLACK
6
CONTINUOUS
10
123.993
20
-97.225
11
126.458
21
-97.225
0
LINE
8
BLACK
6
CONTINUOUS
10
126.458
20
-97.225
11
127.303
21
-95.824
0
LINE
8
BLACK
6
CONTINUOUS
10
127.303
20
-95.824
11
127.701
21
-95.1342
0
LINE
8
BLACK
6
CONTINUOUS
10
127.701
20
-95.1342
11
127.701
21
-95.1342
0
LINE
8
BLACK
6
CONTINUOUS
10
127.701
20
-95.1342
11
128.1
21
-94.4438
0
LINE
8
BLACK
6
CONTINUOUS
10
128.1
20
-94.4438
11
128.1
21
-94.4438
0
LINE
8
BLACK
6
CONTINUOUS
10
128.1
20
-94.4438
11
128.487
21
-93.7725
0
LINE
8
BLACK
6
CONTINUOUS
10
128.487
20
-93.7725
11
128.487
21
-93.7725
0
LINE
8
BLACK
6
CONTINUOUS
10
128.487
20
-93.7725
11
128.85
21
-93.1451
0
LINE
8
BLACK
6
CONTINUOUS
10
128.85
20
-93.1451
11
128.85
21
-93.1451
0
LINE
8
BLACK
6
CONTINUOUS
10
128.85
20
-93.1451
11
129.172
21
-92.5866
0
LINE
8
BLACK
6
CONTINUOUS
10
129.172
20
-92.5866
11
129.172
21
-92.5866
0
LINE
8
BLACK
6
CONTINUOUS
10
129.172
20
-92.5866
11
129.441
21
-92.1211
0
LINE
8
BLACK
6
CONTINUOUS
10
129.441
20
-92.1211
11
129.441
21
-92.1211
0
LINE
8
BLACK
6
CONTINUOUS
10
129.441
20
-92.1211
11
129.652
21
-91.7555
0
LINE
8
BLACK
6
CONTINUOUS
10
129.652
20
-91.7555
11
129.652
21
-91.7555
0
LINE
8
BLACK
6
CONTINUOUS
10
129.652
20
-91.7555
11
129.812
21
-91.4775
0
LINE
8
BLACK
6
CONTINUOUS
10
129.812
20
-91.4775
11
129.812
21
-91.4775
0
LINE
8
BLACK
6
CONTINUOUS
10
129.812
20
-91.4775
11
129.93
21
-91.2736
0
LINE
8
BLACK
6
CONTINUOUS
10
129.93
20
-91.2736
11
129.93
21
-91.2736
0
LINE
8
BLACK
6
CONTINUOUS
10
129.93
20
-91.2736
11
130.013
21
-91.1305
0
LINE
8
BLACK
6
CONTINUOUS
10
130.013
20
-91.1305
11
130.013
21
-91.1305
0
LINE
8
BLACK
6
CONTINUOUS
10
130.013
20
-91.1305
11
130.065
21
-91.0399
0
LINE
8
BLACK
6
CONTINUOUS
10
130.065
20
-91.0399
11
130.097
21
-90.9845
0
LINE
8
BLACK
6
CONTINUOUS
10
130.097
20
-90.9845
11
130.097
21
-90.9844
0
LINE
8
BLACK
6
CONTINUOUS
10
130.097
20
-90.9844
11
130.121
21
-90.9434
0
LINE
8
BLACK
6
CONTINUOUS
10
130.121
20
-90.9434
11
130.121
21
-90.9433
0
LINE
8
BLACK
6
CONTINUOUS
10
130.121
20
-90.9433
11
130.14
21
-90.9094
0
LINE
8
BLACK
6
CONTINUOUS
10
130.14
20
-90.9094
11
130.14
21
-90.9094
0
LINE
8
BLACK
6
CONTINUOUS
10
130.14
20
-90.9094
11
130.144
21
-90.9036
0
LINE
8
BLACK
6
CONTINUOUS
10
130.144
20
-90.9036
11
130.147
21
-90.8981
0
LINE
8
BLACK
6
CONTINUOUS
10
130.147
20
-90.8981
11
130.147
21
-90.8981
0
LINE
8
BLACK
6
CONTINUOUS
10
130.147
20
-90.8981
11
130.163
21
-90.8705
0
LINE
8
BLACK
6
CONTINUOUS
10
130.163
20
-90.8705
11
130.163
21
-90.8702
0
LINE
8
BLACK
6
CONTINUOUS
10
130.163
20
-90.8702
11
130.166
21
-90.8649
0
LINE
8
BLACK
6
CONTINUOUS
10
130.166
20
-90.8649
11
130.169
21
-90.8595
0
LINE
8
BLACK
6
CONTINUOUS
10
130.169
20
-90.8595
11
130.169
21
-90.8592
0
LINE
8
BLACK
6
CONTINUOUS
10
130.169
20
-90.8592
11
130.19
21
-90.8239
0
LINE
8
BLACK
6
CONTINUOUS
10
130.19
20
-90.8239
11
130.191
21
-90.8233
0
LINE
8
BLACK
6
CONTINUOUS
10
130.191
20
-90.8233
11
130.194
21
-90.8182
0
LINE
8
BLACK
6
CONTINUOUS
10
130.194
20
-90.8182
11
130.197
21
-90.8131
0
LINE
8
BLACK
6
CONTINUOUS
10
130.197
20
-90.8131
11
130.197
21
-90.8127
0
LINE
8
BLACK
6
CONTINUOUS
10
130.197
20
-90.8127
11
130.223
21
-90.7709
0
LINE
8
BLACK
6
CONTINUOUS
10
130.223
20
-90.7709
11
130.223
21
-90.7701
0
LINE
8
BLACK
6
CONTINUOUS
10
130.223
20
-90.7701
11
130.226
21
-90.7653
0
LINE
8
BLACK
6
CONTINUOUS
10
130.226
20
-90.7653
11
130.229
21
-90.7605
0
LINE
8
BLACK
6
CONTINUOUS
10
130.229
20
-90.7605
11
130.23
21
-90.7598
0
LINE
8
BLACK
6
CONTINUOUS
10
130.23
20
-90.7598
11
130.26
21
-90.7131
0
LINE
8
BLACK
6
CONTINUOUS
10
130.26
20
-90.7131
11
130.26
21
-90.7121
0
LINE
8
BLACK
6
CONTINUOUS
10
130.26
20
-90.7121
11
130.263
21
-90.7076
0
LINE
8
BLACK
6
CONTINUOUS
10
130.263
20
-90.7076
11
130.266
21
-90.7029
0
LINE
8
BLACK
6
CONTINUOUS
10
130.266
20
-90.7029
11
130.267
21
-90.7022
0
LINE
8
BLACK
6
CONTINUOUS
10
130.267
20
-90.7022
11
130.302
21
-90.6517
0
LINE
8
BLACK
6
CONTINUOUS
10
130.302
20
-90.6517
11
130.302
21
-90.6505
0
LINE
8
BLACK
6
CONTINUOUS
10
130.302
20
-90.6505
11
130.306
21
-90.6463
0
LINE
8
BLACK
6
CONTINUOUS
10
130.306
20
-90.6463
11
130.309
21
-90.6419
0
LINE
8
BLACK
6
CONTINUOUS
10
130.309
20
-90.6419
11
130.309
21
-90.641
0
LINE
8
BLACK
6
CONTINUOUS
10
130.309
20
-90.641
11
130.349
21
-90.5881
0
LINE
8
BLACK
6
CONTINUOUS
10
130.349
20
-90.5881
11
130.349
21
-90.5868
0
LINE
8
BLACK
6
CONTINUOUS
10
130.349
20
-90.5868
11
130.352
21
-90.5828
0
LINE
8
BLACK
6
CONTINUOUS
10
130.352
20
-90.5828
11
130.355
21
-90.5787
0
LINE
8
BLACK
6
CONTINUOUS
10
130.355
20
-90.5787
11
130.356
21
-90.5777
0
LINE
8
BLACK
6
CONTINUOUS
10
130.356
20
-90.5777
11
130.4
21
-90.5236
0
LINE
8
BLACK
6
CONTINUOUS
10
130.4
20
-90.5236
11
130.401
21
-90.5221
0
LINE
8
BLACK
6
CONTINUOUS
10
130.401
20
-90.5221
11
130.404
21
-90.5185
0
LINE
8
BLACK
6
CONTINUOUS
10
130.404
20
-90.5185
11
130.407
21
-90.5148
0
LINE
8
BLACK
6
CONTINUOUS
10
130.407
20
-90.5148
11
130.408
21
-90.5136
0
LINE
8
BLACK
6
CONTINUOUS
10
130.408
20
-90.5136
11
130.456
21
-90.4596
0
LINE
8
BLACK
6
CONTINUOUS
10
130.456
20
-90.4596
11
130.457
21
-90.4579
0
LINE
8
BLACK
6
CONTINUOUS
10
130.457
20
-90.4579
11
130.46
21
-90.4547
0
LINE
8
BLACK
6
CONTINUOUS
10
130.46
20
-90.4547
11
130.463
21
-90.4513
0
LINE
8
BLACK
6
CONTINUOUS
10
130.463
20
-90.4513
11
130.465
21
-90.45
0
LINE
8
BLACK
6
CONTINUOUS
10
130.465
20
-90.45
11
130.516
21
-90.3975
0
LINE
8
BLACK
6
CONTINUOUS
10
130.516
20
-90.3975
11
130.518
21
-90.3957
0
LINE
8
BLACK
6
CONTINUOUS
10
130.518
20
-90.3957
11
130.521
21
-90.3928
0
LINE
8
BLACK
6
CONTINUOUS
10
130.521
20
-90.3928
11
130.524
21
-90.3898
0
LINE
8
BLACK
6
CONTINUOUS
10
130.524
20
-90.3898
11
130.526
21
-90.3885
0
LINE
8
BLACK
6
CONTINUOUS
10
130.526
20
-90.3885
11
130.581
21
-90.3385
0
LINE
8
BLACK
6
CONTINUOUS
10
130.581
20
-90.3385
11
130.583
21
-90.3369
0
LINE
8
BLACK
6
CONTINUOUS
10
130.583
20
-90.3369
11
130.586
21
-90.3342
0
LINE
8
BLACK
6
CONTINUOUS
10
130.586
20
-90.3342
11
130.589
21
-90.3313
0
LINE
8
BLACK
6
CONTINUOUS
10
130.589
20
-90.3313
11
130.591
21
-90.3301
0
LINE
8
BLACK
6
CONTINUOUS
10
130.591
20
-90.3301
11
130.65
21
-90.2833
0
LINE
8
BLACK
6
CONTINUOUS
10
130.65
20
-90.2833
11
130.651
21
-90.2818
0
LINE
8
BLACK
6
CONTINUOUS
10
130.651
20
-90.2818
11
130.655
21
-90.2793
0
LINE
8
BLACK
6
CONTINUOUS
10
130.655
20
-90.2793
11
130.658
21
-90.2765
0
LINE
8
BLACK
6
CONTINUOUS
10
130.658
20
-90.2765
11
130.66
21
-90.2755
0
LINE
8
BLACK
6
CONTINUOUS
10
130.66
20
-90.2755
11
130.722
21
-90.2321
0
LINE
8
BLACK
6
CONTINUOUS
10
130.722
20
-90.2321
11
130.723
21
-90.2306
0
LINE
8
BLACK
6
CONTINUOUS
10
130.723
20
-90.2306
11
130.727
21
-90.2283
0
LINE
8
BLACK
6
CONTINUOUS
10
130.727
20
-90.2283
11
130.731
21
-90.2257
0
LINE
8
BLACK
6
CONTINUOUS
10
130.731
20
-90.2257
11
130.733
21
-90.2248
0
LINE
8
BLACK
6
CONTINUOUS
10
130.733
20
-90.2248
11
130.797
21
-90.1849
0
LINE
8
BLACK
6
CONTINUOUS
10
130.797
20
-90.1849
11
130.798
21
-90.1836
0
LINE
8
BLACK
6
CONTINUOUS
10
130.798
20
-90.1836
11
130.802
21
-90.1814
0
LINE
8
BLACK
6
CONTINUOUS
10
130.802
20
-90.1814
11
130.806
21
-90.1791
0
LINE
8
BLACK
6
CONTINUOUS
10
130.806
20
-90.1791
11
130.808
21
-90.1783
0
LINE
8
BLACK
6
CONTINUOUS
10
130.808
20
-90.1783
11
130.874
21
-90.1421
0
LINE
8
BLACK
6
CONTINUOUS
10
130.874
20
-90.1421
11
130.876
21
-90.1409
0
LINE
8
BLACK
6
CONTINUOUS
10
130.876
20
-90.1409
11
130.88
21
-90.139
0
LINE
8
BLACK
6
CONTINUOUS
10
130.88
20
-90.139
11
130.884
21
-90.1369
0
LINE
8
BLACK
6
CONTINUOUS
10
130.884
20
-90.1369
11
130.886
21
-90.1362
0
LINE
8
BLACK
6
CONTINUOUS
10
130.886
20
-90.1362
11
130.954
21
-90.1039
0
LINE
8
BLACK
6
CONTINUOUS
10
130.954
20
-90.1039
11
130.956
21
-90.1027
0
LINE
8
BLACK
6
CONTINUOUS
10
130.956
20
-90.1027
11
130.96
21
-90.1011
0
LINE
8
BLACK
6
CONTINUOUS
10
130.96
20
-90.1011
11
130.964
21
-90.0992
0
LINE
8
BLACK
6
CONTINUOUS
10
130.964
20
-90.0992
11
130.966
21
-90.0986
0
LINE
8
BLACK
6
CONTINUOUS
10
130.966
20
-90.0986
11
131.035
21
-90.0704
0
LINE
8
BLACK
6
CONTINUOUS
10
131.035
20
-90.0704
11
131.037
21
-90.0693
0
LINE
8
BLACK
6
CONTINUOUS
10
131.037
20
-90.0693
11
131.042
21
-90.0679
0
LINE
8
BLACK
6
CONTINUOUS
10
131.042
20
-90.0679
11
131.046
21
-90.0663
0
LINE
8
BLACK
6
CONTINUOUS
10
131.046
20
-90.0663
11
131.048
21
-90.0659
0
LINE
8
BLACK
6
CONTINUOUS
10
131.048
20
-90.0659
11
131.119
21
-90.042
0
LINE
8
BLACK
6
CONTINUOUS
10
131.119
20
-90.042
11
131.121
21
-90.041
0
LINE
8
BLACK
6
CONTINUOUS
10
131.121
20
-90.041
11
131.125
21
-90.0399
0
LINE
8
BLACK
6
CONTINUOUS
10
131.125
20
-90.0399
11
131.129
21
-90.0385
0
LINE
8
BLACK
6
CONTINUOUS
10
131.129
20
-90.0385
11
131.131
21
-90.0382
0
LINE
8
BLACK
6
CONTINUOUS
10
131.131
20
-90.0382
11
131.202
21
-90.0188
0
LINE
8
BLACK
6
CONTINUOUS
10
131.202
20
-90.0188
11
131.204
21
-90.018
0
LINE
8
BLACK
6
CONTINUOUS
10
131.204
20
-90.018
11
131.209
21
-90.0171
0
LINE
8
BLACK
6
CONTINUOUS
10
131.209
20
-90.0171
11
131.213
21
-90.0159
0
LINE
8
BLACK
6
CONTINUOUS
10
131.213
20
-90.0159
11
131.215
21
-90.0157
0
LINE
8
BLACK
6
CONTINUOUS
10
131.215
20
-90.0157
11
131.286
21
-90.0007
0
LINE
8
BLACK
6
CONTINUOUS
10
131.286
20
-90.0007
11
131.288
21
-90.0001
0
LINE
8
BLACK
6
CONTINUOUS
10
131.288
20
-90.0001
11
131.292
21
-89.9994
0
LINE
8
BLACK
6
CONTINUOUS
10
131.292
20
-89.9994
11
131.297
21
-89.9984
0
LINE
8
BLACK
6
CONTINUOUS
10
131.297
20
-89.9984
11
131.299
21
-89.9983
0
LINE
8
BLACK
6
CONTINUOUS
10
131.299
20
-89.9983
11
131.368
21
-89.9872
0
LINE
8
BLACK
6
CONTINUOUS
10
131.368
20
-89.9872
11
131.369
21
-89.9868
0
LINE
8
BLACK
6
CONTINUOUS
10
131.369
20
-89.9868
11
131.374
21
-89.9862
0
LINE
8
BLACK
6
CONTINUOUS
10
131.374
20
-89.9862
11
131.379
21
-89.9854
0
LINE
8
BLACK
6
CONTINUOUS
10
131.379
20
-89.9854
11
131.381
21
-89.9854
0
LINE
8
BLACK
6
CONTINUOUS
10
131.381
20
-89.9854
11
131.447
21
-89.9775
0
LINE
8
BLACK
6
CONTINUOUS
10
131.447
20
-89.9775
11
131.448
21
-89.9771
0
LINE
8
BLACK
6
CONTINUOUS
10
131.448
20
-89.9771
11
131.453
21
-89.9767
0
LINE
8
BLACK
6
CONTINUOUS
10
131.453
20
-89.9767
11
131.458
21
-89.9761
0
LINE
8
BLACK
6
CONTINUOUS
10
131.458
20
-89.9761
11
131.46
21
-89.9762
0
LINE
8
BLACK
6
CONTINUOUS
10
131.46
20
-89.9762
11
131.522
21
-89.9709
0
LINE
8
BLACK
6
CONTINUOUS
10
131.522
20
-89.9709
11
131.523
21
-89.9707
0
LINE
8
BLACK
6
CONTINUOUS
10
131.523
20
-89.9707
11
131.528
21
-89.9704
0
LINE
8
BLACK
6
CONTINUOUS
10
131.528
20
-89.9704
11
131.534
21
-89.9699
0
LINE
8
BLACK
6
CONTINUOUS
10
131.534
20
-89.9699
11
131.535
21
-89.97
0
LINE
8
BLACK
6
CONTINUOUS
10
131.535
20
-89.97
11
131.592
21
-89.9669
0
LINE
8
BLACK
6
CONTINUOUS
10
131.592
20
-89.9669
11
131.592
21
-89.9667
0
LINE
8
BLACK
6
CONTINUOUS
10
131.592
20
-89.9667
11
131.598
21
-89.9666
0
LINE
8
BLACK
6
CONTINUOUS
10
131.598
20
-89.9666
11
131.604
21
-89.9662
0
LINE
8
BLACK
6
CONTINUOUS
10
131.604
20
-89.9662
11
131.605
21
-89.9663
0
LINE
8
BLACK
6
CONTINUOUS
10
131.605
20
-89.9663
11
131.655
21
-89.9648
0
LINE
8
BLACK
6
CONTINUOUS
10
131.655
20
-89.9648
11
131.656
21
-89.9647
0
LINE
8
BLACK
6
CONTINUOUS
10
131.656
20
-89.9647
11
131.661
21
-89.9646
0
LINE
8
BLACK
6
CONTINUOUS
10
131.661
20
-89.9646
11
131.667
21
-89.9644
0
LINE
8
BLACK
6
CONTINUOUS
10
131.667
20
-89.9644
11
131.668
21
-89.9645
0
LINE
8
BLACK
6
CONTINUOUS
10
131.668
20
-89.9645
11
131.711
21
-89.9639
0
LINE
8
BLACK
6
CONTINUOUS
10
131.711
20
-89.9639
11
131.711
21
-89.9639
0
LINE
8
BLACK
6
CONTINUOUS
10
131.711
20
-89.9639
11
131.717
21
-89.9638
0
LINE
8
BLACK
6
CONTINUOUS
10
131.717
20
-89.9638
11
131.723
21
-89.9638
0
LINE
8
BLACK
6
CONTINUOUS
10
131.723
20
-89.9638
11
131.724
21
-89.9638
0
LINE
8
BLACK
6
CONTINUOUS
10
131.724
20
-89.9638
11
131.757
21
-89.9638
0
LINE
8
BLACK
6
CONTINUOUS
10
131.757
20
-89.9638
11
131.758
21
-89.9637
0
LINE
8
BLACK
6
CONTINUOUS
10
131.758
20
-89.9637
11
131.764
21
-89.9637
0
LINE
8
BLACK
6
CONTINUOUS
10
131.764
20
-89.9637
11
131.77
21
-89.9637
0
LINE
8
BLACK
6
CONTINUOUS
10
131.77
20
-89.9637
11
131.771
21
-89.9637
0
LINE
8
BLACK
6
CONTINUOUS
10
131.771
20
-89.9637
11
141.192
21
-89.9637
0
LINE
8
BLACK
6
CONTINUOUS
10
141.192
20
-89.9637
11
141.192
21
-89.9637
0
LINE
8
BLACK
6
CONTINUOUS
10
141.192
20
-89.9637
11
141.198
21
-89.9637
0
LINE
8
BLACK
6
CONTINUOUS
10
141.198
20
-89.9637
11
141.205
21
-89.9637
0
LINE
8
BLACK
6
CONTINUOUS
10
141.205
20
-89.9637
11
141.205
21
-89.9638
0
LINE
8
BLACK
6
CONTINUOUS
10
141.205
20
-89.9638
11
141.24
21
-89.9639
0
LINE
8
BLACK
6
CONTINUOUS
10
141.24
20
-89.9639
11
141.24
21
-89.9638
0
LINE
8
BLACK
6
CONTINUOUS
10
141.24
20
-89.9638
11
141.246
21
-89.9639
0
LINE
8
BLACK
6
CONTINUOUS
10
141.246
20
-89.9639
11
141.252
21
-89.9639
0
LINE
8
BLACK
6
CONTINUOUS
10
141.252
20
-89.9639
11
141.253
21
-89.964
0
LINE
8
BLACK
6
CONTINUOUS
10
141.253
20
-89.964
11
141.296
21
-89.9646
0
LINE
8
BLACK
6
CONTINUOUS
10
141.296
20
-89.9646
11
141.297
21
-89.9645
0
LINE
8
BLACK
6
CONTINUOUS
10
141.297
20
-89.9645
11
141.303
21
-89.9647
0
LINE
8
BLACK
6
CONTINUOUS
10
141.303
20
-89.9647
11
141.308
21
-89.9648
0
LINE
8
BLACK
6
CONTINUOUS
10
141.308
20
-89.9648
11
141.309
21
-89.9649
0
LINE
8
BLACK
6
CONTINUOUS
10
141.309
20
-89.9649
11
141.36
21
-89.9666
0
LINE
8
BLACK
6
CONTINUOUS
10
141.36
20
-89.9666
11
141.361
21
-89.9665
0
LINE
8
BLACK
6
CONTINUOUS
10
141.361
20
-89.9665
11
141.367
21
-89.9668
0
LINE
8
BLACK
6
CONTINUOUS
10
141.367
20
-89.9668
11
141.372
21
-89.967
0
LINE
8
BLACK
6
CONTINUOUS
10
141.372
20
-89.967
11
141.373
21
-89.9672
0
LINE
8
BLACK
6
CONTINUOUS
10
141.373
20
-89.9672
11
141.43
21
-89.9704
0
LINE
8
BLACK
6
CONTINUOUS
10
141.43
20
-89.9704
11
141.431
21
-89.9703
0
LINE
8
BLACK
6
CONTINUOUS
10
141.431
20
-89.9703
11
141.437
21
-89.9708
0
LINE
8
BLACK
6
CONTINUOUS
10
141.437
20
-89.9708
11
141.442
21
-89.9711
0
LINE
8
BLACK
6
CONTINUOUS
10
141.442
20
-89.9711
11
141.443
21
-89.9714
0
LINE
8
BLACK
6
CONTINUOUS
10
141.443
20
-89.9714
11
141.506
21
-89.9768
0
LINE
8
BLACK
6
CONTINUOUS
10
141.506
20
-89.9768
11
141.507
21
-89.9767
0
LINE
8
BLACK
6
CONTINUOUS
10
141.507
20
-89.9767
11
141.512
21
-89.9773
0
LINE
8
BLACK
6
CONTINUOUS
10
141.512
20
-89.9773
11
141.517
21
-89.9778
0
LINE
8
BLACK
6
CONTINUOUS
10
141.517
20
-89.9778
11
141.519
21
-89.9781
0
LINE
8
BLACK
6
CONTINUOUS
10
141.519
20
-89.9781
11
141.585
21
-89.9863
0
LINE
8
BLACK
6
CONTINUOUS
10
141.585
20
-89.9863
11
141.587
21
-89.9863
0
LINE
8
BLACK
6
CONTINUOUS
10
141.587
20
-89.9863
11
141.592
21
-89.9871
0
LINE
8
BLACK
6
CONTINUOUS
10
141.592
20
-89.9871
11
141.596
21
-89.9877
0
LINE
8
BLACK
6
CONTINUOUS
10
141.596
20
-89.9877
11
141.598
21
-89.9881
0
LINE
8
BLACK
6
CONTINUOUS
10
141.598
20
-89.9881
11
141.667
21
-89.9996
0
LINE
8
BLACK
6
CONTINUOUS
10
141.667
20
-89.9996
11
141.669
21
-89.9996
0
LINE
8
BLACK
6
CONTINUOUS
10
141.669
20
-89.9996
11
141.674
21
-90.0006
0
LINE
8
BLACK
6
CONTINUOUS
10
141.674
20
-90.0006
11
141.678
21
-90.0014
0
LINE
8
BLACK
6
CONTINUOUS
10
141.678
20
-90.0014
11
141.68
21
-90.002
0
LINE
8
BLACK
6
CONTINUOUS
10
141.68
20
-90.002
11
141.751
21
-90.0173
0
LINE
8
BLACK
6
CONTINUOUS
10
141.751
20
-90.0173
11
141.753
21
-90.0175
0
LINE
8
BLACK
6
CONTINUOUS
10
141.753
20
-90.0175
11
141.757
21
-90.0187
0
LINE
8
BLACK
6
CONTINUOUS
10
141.757
20
-90.0187
11
141.762
21
-90.0197
0
LINE
8
BLACK
6
CONTINUOUS
10
141.762
20
-90.0197
11
141.764
21
-90.0205
0
LINE
8
BLACK
6
CONTINUOUS
10
141.764
20
-90.0205
11
141.835
21
-90.0402
0
LINE
8
BLACK
6
CONTINUOUS
10
141.835
20
-90.0402
11
141.837
21
-90.0406
0
LINE
8
BLACK
6
CONTINUOUS
10
141.837
20
-90.0406
11
141.841
21
-90.0419
0
LINE
8
BLACK
6
CONTINUOUS
10
141.841
20
-90.0419
11
141.845
21
-90.0431
0
LINE
8
BLACK
6
CONTINUOUS
10
141.845
20
-90.0431
11
141.847
21
-90.0441
0
LINE
8
BLACK
6
CONTINUOUS
10
141.847
20
-90.0441
11
141.918
21
-90.0683
0
LINE
8
BLACK
6
CONTINUOUS
10
141.918
20
-90.0683
11
141.92
21
-90.0688
0
LINE
8
BLACK
6
CONTINUOUS
10
141.92
20
-90.0688
11
141.924
21
-90.0705
0
LINE
8
BLACK
6
CONTINUOUS
10
141.924
20
-90.0705
11
141.928
21
-90.0719
0
LINE
8
BLACK
6
CONTINUOUS
10
141.928
20
-90.0719
11
141.93
21
-90.0729
0
LINE
8
BLACK
6
CONTINUOUS
10
141.93
20
-90.0729
11
142
21
-90.1015
0
LINE
8
BLACK
6
CONTINUOUS
10
142
20
-90.1015
11
142.002
21
-90.1021
0
LINE
8
BLACK
6
CONTINUOUS
10
142.002
20
-90.1021
11
142.006
21
-90.104
0
LINE
8
BLACK
6
CONTINUOUS
10
142.006
20
-90.104
11
142.01
21
-90.1056
0
LINE
8
BLACK
6
CONTINUOUS
10
142.01
20
-90.1056
11
142.012
21
-90.1068
0
LINE
8
BLACK
6
CONTINUOUS
10
142.012
20
-90.1068
11
142.08
21
-90.1394
0
LINE
8
BLACK
6
CONTINUOUS
10
142.08
20
-90.1394
11
142.082
21
-90.1401
0
LINE
8
BLACK
6
CONTINUOUS
10
142.082
20
-90.1401
11
142.086
21
-90.1423
0
LINE
8
BLACK
6
CONTINUOUS
10
142.086
20
-90.1423
11
142.09
21
-90.1442
0
LINE
8
BLACK
6
CONTINUOUS
10
142.09
20
-90.1442
11
142.091
21
-90.1454
0
LINE
8
BLACK
6
CONTINUOUS
10
142.091
20
-90.1454
11
142.157
21
-90.1819
0
LINE
8
BLACK
6
CONTINUOUS
10
142.157
20
-90.1819
11
142.159
21
-90.1827
0
LINE
8
BLACK
6
CONTINUOUS
10
142.159
20
-90.1827
11
142.163
21
-90.1851
0
LINE
8
BLACK
6
CONTINUOUS
10
142.163
20
-90.1851
11
142.167
21
-90.1872
0
LINE
8
BLACK
6
CONTINUOUS
10
142.167
20
-90.1872
11
142.169
21
-90.1886
0
LINE
8
BLACK
6
CONTINUOUS
10
142.169
20
-90.1886
11
142.232
21
-90.2288
0
LINE
8
BLACK
6
CONTINUOUS
10
142.232
20
-90.2288
11
142.234
21
-90.2297
0
LINE
8
BLACK
6
CONTINUOUS
10
142.234
20
-90.2297
11
142.238
21
-90.2323
0
LINE
8
BLACK
6
CONTINUOUS
10
142.238
20
-90.2323
11
142.242
21
-90.2346
0
LINE
8
BLACK
6
CONTINUOUS
10
142.242
20
-90.2346
11
142.243
21
-90.2361
0
LINE
8
BLACK
6
CONTINUOUS
10
142.243
20
-90.2361
11
142.305
21
-90.2798
0
LINE
8
BLACK
6
CONTINUOUS
10
142.305
20
-90.2798
11
142.306
21
-90.2808
0
LINE
8
BLACK
6
CONTINUOUS
10
142.306
20
-90.2808
11
142.31
21
-90.2836
0
LINE
8
BLACK
6
CONTINUOUS
10
142.31
20
-90.2836
11
142.313
21
-90.2861
0
LINE
8
BLACK
6
CONTINUOUS
10
142.313
20
-90.2861
11
142.315
21
-90.2877
0
LINE
8
BLACK
6
CONTINUOUS
10
142.315
20
-90.2877
11
142.373
21
-90.3347
0
LINE
8
BLACK
6
CONTINUOUS
10
142.373
20
-90.3347
11
142.375
21
-90.3359
0
LINE
8
BLACK
6
CONTINUOUS
10
142.375
20
-90.3359
11
142.378
21
-90.3388
0
LINE
8
BLACK
6
CONTINUOUS
10
142.378
20
-90.3388
11
142.382
21
-90.3415
0
LINE
8
BLACK
6
CONTINUOUS
10
142.382
20
-90.3415
11
142.383
21
-90.3432
0
LINE
8
BLACK
6
CONTINUOUS
10
142.383
20
-90.3432
11
142.438
21
-90.3933
0
LINE
8
BLACK
6
CONTINUOUS
10
142.438
20
-90.3933
11
142.44
21
-90.3947
0
LINE
8
BLACK
6
CONTINUOUS
10
142.44
20
-90.3947
11
142.443
21
-90.3977
0
LINE
8
BLACK
6
CONTINUOUS
10
142.443
20
-90.3977
11
142.446
21
-90.4006
0
LINE
8
BLACK
6
CONTINUOUS
10
142.446
20
-90.4006
11
142.448
21
-90.4024
0
LINE
8
BLACK
6
CONTINUOUS
10
142.448
20
-90.4024
11
142.499
21
-90.4552
0
LINE
8
BLACK
6
CONTINUOUS
10
142.499
20
-90.4552
11
142.501
21
-90.4564
0
LINE
8
BLACK
6
CONTINUOUS
10
142.501
20
-90.4564
11
142.504
21
-90.4598
0
LINE
8
BLACK
6
CONTINUOUS
10
142.504
20
-90.4598
11
142.507
21
-90.4631
0
LINE
8
BLACK
6
CONTINUOUS
10
142.507
20
-90.4631
11
142.508
21
-90.4648
0
LINE
8
BLACK
6
CONTINUOUS
10
142.508
20
-90.4648
11
142.555
21
-90.5188
0
LINE
8
BLACK
6
CONTINUOUS
10
142.555
20
-90.5188
11
142.557
21
-90.52
0
LINE
8
BLACK
6
CONTINUOUS
10
142.557
20
-90.52
11
142.56
21
-90.5237
0
LINE
8
BLACK
6
CONTINUOUS
10
142.56
20
-90.5237
11
142.563
21
-90.5274
0
LINE
8
BLACK
6
CONTINUOUS
10
142.563
20
-90.5274
11
142.564
21
-90.5289
0
LINE
8
BLACK
6
CONTINUOUS
10
142.564
20
-90.5289
11
142.607
21
-90.5829
0
LINE
8
BLACK
6
CONTINUOUS
10
142.607
20
-90.5829
11
142.608
21
-90.5839
0
LINE
8
BLACK
6
CONTINUOUS
10
142.608
20
-90.5839
11
142.611
21
-90.588
0
LINE
8
BLACK
6
CONTINUOUS
10
142.611
20
-90.588
11
142.614
21
-90.592
0
LINE
8
BLACK
6
CONTINUOUS
10
142.614
20
-90.592
11
142.615
21
-90.5933
0
LINE
8
BLACK
6
CONTINUOUS
10
142.615
20
-90.5933
11
142.653
21
-90.6461
0
LINE
8
BLACK
6
CONTINUOUS
10
142.653
20
-90.6461
11
142.654
21
-90.647
0
LINE
8
BLACK
6
CONTINUOUS
10
142.654
20
-90.647
11
142.657
21
-90.6513
0
LINE
8
BLACK
6
CONTINUOUS
10
142.657
20
-90.6513
11
142.66
21
-90.6556
0
LINE
8
BLACK
6
CONTINUOUS
10
142.66
20
-90.6556
11
142.661
21
-90.6567
0
LINE
8
BLACK
6
CONTINUOUS
10
142.661
20
-90.6567
11
142.695
21
-90.707
0
LINE
8
BLACK
6
CONTINUOUS
10
142.695
20
-90.707
11
142.696
21
-90.7078
0
LINE
8
BLACK
6
CONTINUOUS
10
142.696
20
-90.7078
11
142.699
21
-90.7124
0
LINE
8
BLACK
6
CONTINUOUS
10
142.699
20
-90.7124
11
142.702
21
-90.7169
0
LINE
8
BLACK
6
CONTINUOUS
10
142.702
20
-90.7169
11
142.702
21
-90.7179
0
LINE
8
BLACK
6
CONTINUOUS
10
142.702
20
-90.7179
11
142.732
21
-90.7643
0
LINE
8
BLACK
6
CONTINUOUS
10
142.732
20
-90.7643
11
142.733
21
-90.7649
0
LINE
8
BLACK
6
CONTINUOUS
10
142.733
20
-90.7649
11
142.736
21
-90.7698
0
LINE
8
BLACK
6
CONTINUOUS
10
142.736
20
-90.7698
11
142.739
21
-90.7746
0
LINE
8
BLACK
6
CONTINUOUS
10
142.739
20
-90.7746
11
142.739
21
-90.7754
0
LINE
8
BLACK
6
CONTINUOUS
10
142.739
20
-90.7754
11
142.765
21
-90.8167
0
LINE
8
BLACK
6
CONTINUOUS
10
142.765
20
-90.8167
11
142.765
21
-90.8171
0
LINE
8
BLACK
6
CONTINUOUS
10
142.765
20
-90.8171
11
142.768
21
-90.8223
0
LINE
8
BLACK
6
CONTINUOUS
10
142.768
20
-90.8223
11
142.771
21
-90.8273
0
LINE
8
BLACK
6
CONTINUOUS
10
142.771
20
-90.8273
11
142.771
21
-90.8279
0
LINE
8
BLACK
6
CONTINUOUS
10
142.771
20
-90.8279
11
142.792
21
-90.8627
0
LINE
8
BLACK
6
CONTINUOUS
10
142.792
20
-90.8627
11
142.792
21
-90.8629
0
LINE
8
BLACK
6
CONTINUOUS
10
142.792
20
-90.8629
11
142.795
21
-90.8682
0
LINE
8
BLACK
6
CONTINUOUS
10
142.795
20
-90.8682
11
142.798
21
-90.8737
0
LINE
8
BLACK
6
CONTINUOUS
10
142.798
20
-90.8737
11
142.798
21
-90.874
0
LINE
8
BLACK
6
CONTINUOUS
10
142.798
20
-90.874
11
142.814
21
-90.9009
0
LINE
8
BLACK
6
CONTINUOUS
10
142.814
20
-90.9009
11
142.814
21
-90.9009
0
LINE
8
BLACK
6
CONTINUOUS
10
142.814
20
-90.9009
11
142.817
21
-90.9063
0
LINE
8
BLACK
6
CONTINUOUS
10
142.817
20
-90.9063
11
142.821
21
-90.9122
0
LINE
8
BLACK
6
CONTINUOUS
10
142.821
20
-90.9122
11
142.821
21
-90.9122
0
LINE
8
BLACK
6
CONTINUOUS
10
142.821
20
-90.9122
11
142.834
21
-90.9349
0
LINE
8
BLACK
6
CONTINUOUS
10
142.834
20
-90.9349
11
142.865
21
-90.9885
0
LINE
8
BLACK
6
CONTINUOUS
10
142.865
20
-90.9885
11
142.865
21
-90.9885
0
LINE
8
BLACK
6
CONTINUOUS
10
142.865
20
-90.9885
11
142.902
21
-91.0525
0
LINE
8
BLACK
6
CONTINUOUS
10
142.902
20
-91.0525
11
142.902
21
-91.0525
0
LINE
8
BLACK
6
CONTINUOUS
10
142.902
20
-91.0525
11
142.952
21
-91.1402
0
LINE
8
BLACK
6
CONTINUOUS
10
142.952
20
-91.1402
11
142.952
21
-91.1402
0
LINE
8
BLACK
6
CONTINUOUS
10
142.952
20
-91.1402
11
143.044
21
-91.2991
0
LINE
8
BLACK
6
CONTINUOUS
10
143.044
20
-91.2991
11
143.044
21
-91.2991
0
LINE
8
BLACK
6
CONTINUOUS
10
143.044
20
-91.2991
11
143.158
21
-91.4971
0
LINE
8
BLACK
6
CONTINUOUS
10
143.158
20
-91.4971
11
143.158
21
-91.4971
0
LINE
8
BLACK
6
CONTINUOUS
10
143.158
20
-91.4971
11
143.323
21
-91.7817
0
LINE
8
BLACK
6
CONTINUOUS
10
143.323
20
-91.7817
11
143.545
21
-92.1663
0
LINE
8
BLACK
6
CONTINUOUS
10
143.545
20
-92.1663
11
143.545
21
-92.1663
0
LINE
8
BLACK
6
CONTINUOUS
10
143.545
20
-92.1663
11
143.812
21
-92.6287
0
LINE
8
BLACK
6
CONTINUOUS
10
143.812
20
-92.6287
11
144.144
21
-93.2051
0
LINE
8
BLACK
6
CONTINUOUS
10
144.144
20
-93.2051
11
144.144
21
-93.2051
0
LINE
8
BLACK
6
CONTINUOUS
10
144.144
20
-93.2051
11
144.504
21
-93.8289
0
LINE
8
BLACK
6
CONTINUOUS
10
144.504
20
-93.8289
11
144.898
21
-94.5107
0
LINE
8
BLACK
6
CONTINUOUS
10
144.898
20
-94.5107
11
144.898
21
-94.5107
0
LINE
8
BLACK
6
CONTINUOUS
10
144.898
20
-94.5107
11
145.291
21
-95.1906
0
LINE
8
BLACK
6
CONTINUOUS
10
145.291
20
-95.1906
11
145.685
21
-95.8739
0
LINE
8
BLACK
6
CONTINUOUS
10
145.685
20
-95.8739
11
145.685
21
-95.8742
0
LINE
8
BLACK
6
CONTINUOUS
10
145.685
20
-95.8742
11
145.688
21
-95.8795
0
LINE
8
BLACK
6
CONTINUOUS
10
145.688
20
-95.8795
11
145.691
21
-95.8848
0
LINE
8
BLACK
6
CONTINUOUS
10
145.691
20
-95.8848
11
145.692
21
-95.8852
0
LINE
8
BLACK
6
CONTINUOUS
10
145.692
20
-95.8852
11
146.444
21
-97.225
0
LINE
8
BLACK
6
CONTINUOUS
10
146.444
20
-97.225
11
149.007
21
-97.225
0
LINE
8
BLACK
6
CONTINUOUS
10
149.007
20
-97.225
11
149.011
21
-97.2258
0
LINE
8
BLACK
6
CONTINUOUS
10
149.011
20
-97.2258
11
149.653
21
-97.3035
0
LINE
8
BLACK
6
CONTINUOUS
10
149.653
20
-97.3035
11
149.654
21
-97.3036
0
LINE
8
BLACK
6
CONTINUOUS
10
149.654
20
-97.3036
11
149.662
21
-97.3057
0
LINE
8
BLACK
6
CONTINUOUS
10
149.662
20
-97.3057
11
149.671
21
-97.3078
0
LINE
8
BLACK
6
CONTINUOUS
10
149.671
20
-97.3078
11
150.277
21
-97.5371
0
LINE
8
BLACK
6
CONTINUOUS
10
150.277
20
-97.5371
11
150.278
21
-97.5374
0
LINE
8
BLACK
6
CONTINUOUS
10
150.278
20
-97.5374
11
150.286
21
-97.5415
0
LINE
8
BLACK
6
CONTINUOUS
10
150.286
20
-97.5415
11
150.293
21
-97.5454
0
LINE
8
BLACK
6
CONTINUOUS
10
150.293
20
-97.5454
11
150.828
21
-97.9129
0
LINE
8
BLACK
6
CONTINUOUS
10
150.828
20
-97.9129
11
150.829
21
-97.9133
0
LINE
8
BLACK
6
CONTINUOUS
10
150.829
20
-97.9133
11
150.835
21
-97.9191
0
LINE
8
BLACK
6
CONTINUOUS
10
150.835
20
-97.9191
11
150.842
21
-97.9248
0
LINE
8
BLACK
6
CONTINUOUS
10
150.842
20
-97.9248
11
151.273
21
-98.4092
0
LINE
8
BLACK
6
CONTINUOUS
10
151.273
20
-98.4092
11
151.274
21
-98.4098
0
LINE
8
BLACK
6
CONTINUOUS
10
151.274
20
-98.4098
11
151.278
21
-98.4169
0
LINE
8
BLACK
6
CONTINUOUS
10
151.278
20
-98.4169
11
151.283
21
-98.424
0
LINE
8
BLACK
6
CONTINUOUS
10
151.283
20
-98.424
11
151.587
21
-98.9973
0
LINE
8
BLACK
6
CONTINUOUS
10
151.587
20
-98.9973
11
151.587
21
-98.998
0
LINE
8
BLACK
6
CONTINUOUS
10
151.587
20
-98.998
11
151.59
21
-99.0061
0
LINE
8
BLACK
6
CONTINUOUS
10
151.59
20
-99.0061
11
151.593
21
-99.0141
0
LINE
8
BLACK
6
CONTINUOUS
10
151.593
20
-99.0141
11
151.751
21
-99.6433
0
LINE
8
BLACK
6
CONTINUOUS
10
151.751
20
-99.6433
11
151.752
21
-99.6441
0
LINE
8
BLACK
6
CONTINUOUS
10
151.752
20
-99.6441
11
151.753
21
-99.6527
0
LINE
8
BLACK
6
CONTINUOUS
10
151.753
20
-99.6527
11
151.754
21
-99.6612
0
LINE
8
BLACK
6
CONTINUOUS
10
151.754
20
-99.6612
11
151.757
21
-100.31
0
LINE
8
BLACK
6
CONTINUOUS
10
151.757
20
-100.31
11
151.757
21
-100.311
0
LINE
8
BLACK
6
CONTINUOUS
10
151.757
20
-100.311
11
151.756
21
-100.319
0
LINE
8
BLACK
6
CONTINUOUS
10
151.756
20
-100.319
11
151.755
21
-100.328
0
LINE
8
BLACK
6
CONTINUOUS
10
151.755
20
-100.328
11
151.604
21
-100.959
0
LINE
8
BLACK
6
CONTINUOUS
10
151.604
20
-100.959
11
151.603
21
-100.959
0
LINE
8
BLACK
6
CONTINUOUS
10
151.603
20
-100.959
11
151.6
21
-100.968
0
LINE
8
BLACK
6
CONTINUOUS
10
151.6
20
-100.968
11
151.597
21
-100.976
0
LINE
8
BLACK
6
CONTINUOUS
10
151.597
20
-100.976
11
151.3
21
-101.552
0
LINE
8
BLACK
6
CONTINUOUS
10
151.3
20
-101.552
11
151.299
21
-101.553
0
LINE
8
BLACK
6
CONTINUOUS
10
151.299
20
-101.553
11
151.294
21
-101.56
0
LINE
8
BLACK
6
CONTINUOUS
10
151.294
20
-101.56
11
151.29
21
-101.567
0
LINE
8
BLACK
6
CONTINUOUS
10
151.29
20
-101.567
11
150.863
21
-102.056
0
LINE
8
BLACK
6
CONTINUOUS
10
150.863
20
-102.056
11
150.863
21
-102.056
0
LINE
8
BLACK
6
CONTINUOUS
10
150.863
20
-102.056
11
150.856
21
-102.062
0
LINE
8
BLACK
6
CONTINUOUS
10
150.856
20
-102.062
11
150.85
21
-102.068
0
LINE
8
BLACK
6
CONTINUOUS
10
150.85
20
-102.068
11
150.319
21
-102.441
0
LINE
8
BLACK
6
CONTINUOUS
10
150.319
20
-102.441
11
150.319
21
-102.441
0
LINE
8
BLACK
6
CONTINUOUS
10
150.319
20
-102.441
11
150.319
21
-102.441
0
LINE
8
BLACK
6
CONTINUOUS
10
150.319
20
-102.441
11
150.318
21
-102.441
0
LINE
8
BLACK
6
CONTINUOUS
10
150.318
20
-102.441
11
150.311
21
-102.445
0
LINE
8
BLACK
6
CONTINUOUS
10
150.311
20
-102.445
11
150.303
21
-102.449
0
LINE
8
BLACK
6
CONTINUOUS
10
150.303
20
-102.449
11
149.699
21
-102.685
0
LINE
8
BLACK
6
CONTINUOUS
10
149.699
20
-102.685
11
149.698
21
-102.685
0
LINE
8
BLACK
6
CONTINUOUS
10
149.698
20
-102.685
11
149.69
21
-102.687
0
LINE
8
BLACK
6
CONTINUOUS
10
149.69
20
-102.687
11
149.681
21
-102.69
0
LINE
8
BLACK
6
CONTINUOUS
10
149.681
20
-102.69
11
149.038
21
-102.774
0
LINE
8
BLACK
6
CONTINUOUS
10
149.038
20
-102.774
11
149.037
21
-102.774
0
LINE
8
BLACK
6
CONTINUOUS
10
149.037
20
-102.774
11
149.033
21
-102.774
0
LINE
8
BLACK
6
CONTINUOUS
10
149.033
20
-102.774
11
149.029
21
-102.775
0
LINE
8
BLACK
6
CONTINUOUS
10
149.029
20
-102.775
11
149.007
21
-102.775
0
LINE
8
BLACK
6
CONTINUOUS
10
149.007
20
-102.775
11
149.007
21
-102.775
0
LINE
8
BLACK
6
CONTINUOUS
10
149.007
20
-102.775
11
146.444
21
-102.775
0
LINE
8
BLACK
6
CONTINUOUS
10
146.444
20
-102.775
11
145.586
21
-104.293
0
LINE
8
BLACK
6
CONTINUOUS
10
145.586
20
-104.293
11
145.586
21
-104.294
0
LINE
8
BLACK
6
CONTINUOUS
10
145.586
20
-104.294
11
145.583
21
-104.299
0
LINE
8
BLACK
6
CONTINUOUS
10
145.583
20
-104.299
11
145.58
21
-104.304
0
LINE
8
BLACK
6
CONTINUOUS
10
145.58
20
-104.304
11
145.58
21
-104.305
0
LINE
8
BLACK
6
CONTINUOUS
10
145.58
20
-104.305
11
145.189
21
-104.981
0
LINE
8
BLACK
6
CONTINUOUS
10
145.189
20
-104.981
11
145.189
21
-104.981
0
LINE
8
BLACK
6
CONTINUOUS
10
145.189
20
-104.981
11
144.791
21
-105.67
0
LINE
8
BLACK
6
CONTINUOUS
10
144.791
20
-105.67
11
144.791
21
-105.67
0
LINE
8
BLACK
6
CONTINUOUS
10
144.791
20
-105.67
11
144.408
21
-106.335
0
LINE
8
BLACK
6
CONTINUOUS
10
144.408
20
-106.335
11
144.408
21
-106.335
0
LINE
8
BLACK
6
CONTINUOUS
10
144.408
20
-106.335
11
144.052
21
-106.951
0
LINE
8
BLACK
6
CONTINUOUS
10
144.052
20
-106.951
11
144.052
21
-106.951
0
LINE
8
BLACK
6
CONTINUOUS
10
144.052
20
-106.951
11
143.738
21
-107.494
0
LINE
8
BLACK
6
CONTINUOUS
10
143.738
20
-107.494
11
143.738
21
-107.494
0
LINE
8
BLACK
6
CONTINUOUS
10
143.738
20
-107.494
11
143.481
21
-107.94
0
LINE
8
BLACK
6
CONTINUOUS
10
143.481
20
-107.94
11
143.481
21
-107.94
0
LINE
8
BLACK
6
CONTINUOUS
10
143.481
20
-107.94
11
143.28
21
-108.288
0
LINE
8
BLACK
6
CONTINUOUS
10
143.28
20
-108.288
11
143.28
21
-108.288
0
LINE
8
BLACK
6
CONTINUOUS
10
143.28
20
-108.288
11
143.128
21
-108.551
0
LINE
8
BLACK
6
CONTINUOUS
10
143.128
20
-108.551
11
143.128
21
-108.551
0
LINE
8
BLACK
6
CONTINUOUS
10
143.128
20
-108.551
11
143.018
21
-108.742
0
LINE
8
BLACK
6
CONTINUOUS
10
143.018
20
-108.742
11
143.018
21
-108.742
0
LINE
8
BLACK
6
CONTINUOUS
10
143.018
20
-108.742
11
142.941
21
-108.875
0
LINE
8
BLACK
6
CONTINUOUS
10
142.941
20
-108.875
11
142.941
21
-108.875
0
LINE
8
BLACK
6
CONTINUOUS
10
142.941
20
-108.875
11
142.89
21
-108.964
0
LINE
8
BLACK
6
CONTINUOUS
10
142.89
20
-108.964
11
142.857
21
-109.021
0
LINE
8
BLACK
6
CONTINUOUS
10
142.857
20
-109.021
11
142.857
21
-109.021
0
LINE
8
BLACK
6
CONTINUOUS
10
142.857
20
-109.021
11
142.835
21
-109.059
0
LINE
8
BLACK
6
CONTINUOUS
10
142.835
20
-109.059
11
142.835
21
-109.059
0
LINE
8
BLACK
6
CONTINUOUS
10
142.835
20
-109.059
11
142.815
21
-109.093
0
LINE
8
BLACK
6
CONTINUOUS
10
142.815
20
-109.093
11
142.815
21
-109.093
0
LINE
8
BLACK
6
CONTINUOUS
10
142.815
20
-109.093
11
142.812
21
-109.099
0
LINE
8
BLACK
6
CONTINUOUS
10
142.812
20
-109.099
11
142.809
21
-109.105
0
LINE
8
BLACK
6
CONTINUOUS
10
142.809
20
-109.105
11
142.808
21
-109.105
0
LINE
8
BLACK
6
CONTINUOUS
10
142.808
20
-109.105
11
142.792
21
-109.134
0
LINE
8
BLACK
6
CONTINUOUS
10
142.792
20
-109.134
11
142.791
21
-109.134
0
LINE
8
BLACK
6
CONTINUOUS
10
142.791
20
-109.134
11
142.788
21
-109.14
0
LINE
8
BLACK
6
CONTINUOUS
10
142.788
20
-109.14
11
142.785
21
-109.145
0
LINE
8
BLACK
6
CONTINUOUS
10
142.785
20
-109.145
11
142.785
21
-109.145
0
LINE
8
BLACK
6
CONTINUOUS
10
142.785
20
-109.145
11
142.763
21
-109.182
0
LINE
8
BLACK
6
CONTINUOUS
10
142.763
20
-109.182
11
142.763
21
-109.182
0
LINE
8
BLACK
6
CONTINUOUS
10
142.763
20
-109.182
11
142.76
21
-109.187
0
LINE
8
BLACK
6
CONTINUOUS
10
142.76
20
-109.187
11
142.757
21
-109.192
0
LINE
8
BLACK
6
CONTINUOUS
10
142.757
20
-109.192
11
142.756
21
-109.193
0
LINE
8
BLACK
6
CONTINUOUS
10
142.756
20
-109.193
11
142.73
21
-109.236
0
LINE
8
BLACK
6
CONTINUOUS
10
142.73
20
-109.236
11
142.729
21
-109.237
0
LINE
8
BLACK
6
CONTINUOUS
10
142.729
20
-109.237
11
142.726
21
-109.241
0
LINE
8
BLACK
6
CONTINUOUS
10
142.726
20
-109.241
11
142.723
21
-109.246
0
LINE
8
BLACK
6
CONTINUOUS
10
142.723
20
-109.246
11
142.723
21
-109.247
0
LINE
8
BLACK
6
CONTINUOUS
10
142.723
20
-109.247
11
142.692
21
-109.294
0
LINE
8
BLACK
6
CONTINUOUS
10
142.692
20
-109.294
11
142.691
21
-109.295
0
LINE
8
BLACK
6
CONTINUOUS
10
142.691
20
-109.295
11
142.688
21
-109.3
0
LINE
8
BLACK
6
CONTINUOUS
10
142.688
20
-109.3
11
142.685
21
-109.304
0
LINE
8
BLACK
6
CONTINUOUS
10
142.685
20
-109.304
11
142.684
21
-109.305
0
LINE
8
BLACK
6
CONTINUOUS
10
142.684
20
-109.305
11
142.649
21
-109.356
0
LINE
8
BLACK
6
CONTINUOUS
10
142.649
20
-109.356
11
142.648
21
-109.357
0
LINE
8
BLACK
6
CONTINUOUS
10
142.648
20
-109.357
11
142.645
21
-109.362
0
LINE
8
BLACK
6
CONTINUOUS
10
142.645
20
-109.362
11
142.642
21
-109.366
0
LINE
8
BLACK
6
CONTINUOUS
10
142.642
20
-109.366
11
142.641
21
-109.367
0
LINE
8
BLACK
6
CONTINUOUS
10
142.641
20
-109.367
11
142.601
21
-109.42
0
LINE
8
BLACK
6
CONTINUOUS
10
142.601
20
-109.42
11
142.601
21
-109.421
0
LINE
8
BLACK
6
CONTINUOUS
10
142.601
20
-109.421
11
142.597
21
-109.425
0
LINE
8
BLACK
6
CONTINUOUS
10
142.597
20
-109.425
11
142.594
21
-109.429
0
LINE
8
BLACK
6
CONTINUOUS
10
142.594
20
-109.429
11
142.593
21
-109.43
0
LINE
8
BLACK
6
CONTINUOUS
10
142.593
20
-109.43
11
142.549
21
-109.485
0
LINE
8
BLACK
6
CONTINUOUS
10
142.549
20
-109.485
11
142.548
21
-109.486
0
LINE
8
BLACK
6
CONTINUOUS
10
142.548
20
-109.486
11
142.545
21
-109.49
0
LINE
8
BLACK
6
CONTINUOUS
10
142.545
20
-109.49
11
142.542
21
-109.493
0
LINE
8
BLACK
6
CONTINUOUS
10
142.542
20
-109.493
11
142.541
21
-109.495
0
LINE
8
BLACK
6
CONTINUOUS
10
142.541
20
-109.495
11
142.492
21
-109.548
0
LINE
8
BLACK
6
CONTINUOUS
10
142.492
20
-109.548
11
142.491
21
-109.55
0
LINE
8
BLACK
6
CONTINUOUS
10
142.491
20
-109.55
11
142.488
21
-109.553
0
LINE
8
BLACK
6
CONTINUOUS
10
142.488
20
-109.553
11
142.485
21
-109.557
0
LINE
8
BLACK
6
CONTINUOUS
10
142.485
20
-109.557
11
142.483
21
-109.558
0
LINE
8
BLACK
6
CONTINUOUS
10
142.483
20
-109.558
11
142.431
21
-109.61
0
LINE
8
BLACK
6
CONTINUOUS
10
142.431
20
-109.61
11
142.429
21
-109.612
0
LINE
8
BLACK
6
CONTINUOUS
10
142.429
20
-109.612
11
142.426
21
-109.615
0
LINE
8
BLACK
6
CONTINUOUS
10
142.426
20
-109.615
11
142.423
21
-109.618
0
LINE
8
BLACK
6
CONTINUOUS
10
142.423
20
-109.618
11
142.421
21
-109.619
0
LINE
8
BLACK
6
CONTINUOUS
10
142.421
20
-109.619
11
142.365
21
-109.668
0
LINE
8
BLACK
6
CONTINUOUS
10
142.365
20
-109.668
11
142.364
21
-109.67
0
LINE
8
BLACK
6
CONTINUOUS
10
142.364
20
-109.67
11
142.36
21
-109.673
0
LINE
8
BLACK
6
CONTINUOUS
10
142.36
20
-109.673
11
142.357
21
-109.675
0
LINE
8
BLACK
6
CONTINUOUS
10
142.357
20
-109.675
11
142.355
21
-109.677
0
LINE
8
BLACK
6
CONTINUOUS
10
142.355
20
-109.677
11
142.296
21
-109.723
0
LINE
8
BLACK
6
CONTINUOUS
10
142.296
20
-109.723
11
142.294
21
-109.724
0
LINE
8
BLACK
6
CONTINUOUS
10
142.294
20
-109.724
11
142.291
21
-109.727
0
LINE
8
BLACK
6
CONTINUOUS
10
142.291
20
-109.727
11
142.287
21
-109.729
0
LINE
8
BLACK
6
CONTINUOUS
10
142.287
20
-109.729
11
142.285
21
-109.73
0
LINE
8
BLACK
6
CONTINUOUS
10
142.285
20
-109.73
11
142.223
21
-109.773
0
LINE
8
BLACK
6
CONTINUOUS
10
142.223
20
-109.773
11
142.222
21
-109.775
0
LINE
8
BLACK
6
CONTINUOUS
10
142.222
20
-109.775
11
142.218
21
-109.777
0
LINE
8
BLACK
6
CONTINUOUS
10
142.218
20
-109.777
11
142.214
21
-109.779
0
LINE
8
BLACK
6
CONTINUOUS
10
142.214
20
-109.779
11
142.212
21
-109.78
0
LINE
8
BLACK
6
CONTINUOUS
10
142.212
20
-109.78
11
142.148
21
-109.82
0
LINE
8
BLACK
6
CONTINUOUS
10
142.148
20
-109.82
11
142.146
21
-109.821
0
LINE
8
BLACK
6
CONTINUOUS
10
142.146
20
-109.821
11
142.142
21
-109.823
0
LINE
8
BLACK
6
CONTINUOUS
10
142.142
20
-109.823
11
142.139
21
-109.825
0
LINE
8
BLACK
6
CONTINUOUS
10
142.139
20
-109.825
11
142.137
21
-109.826
0
LINE
8
BLACK
6
CONTINUOUS
10
142.137
20
-109.826
11
142.07
21
-109.862
0
LINE
8
BLACK
6
CONTINUOUS
10
142.07
20
-109.862
11
142.068
21
-109.863
0
LINE
8
BLACK
6
CONTINUOUS
10
142.068
20
-109.863
11
142.064
21
-109.865
0
LINE
8
BLACK
6
CONTINUOUS
10
142.064
20
-109.865
11
142.06
21
-109.867
0
LINE
8
BLACK
6
CONTINUOUS
10
142.06
20
-109.867
11
142.058
21
-109.867
0
LINE
8
BLACK
6
CONTINUOUS
10
142.058
20
-109.867
11
141.99
21
-109.899
0
LINE
8
BLACK
6
CONTINUOUS
10
141.99
20
-109.899
11
141.988
21
-109.9
0
LINE
8
BLACK
6
CONTINUOUS
10
141.988
20
-109.9
11
141.984
21
-109.902
0
LINE
8
BLACK
6
CONTINUOUS
10
141.984
20
-109.902
11
141.98
21
-109.903
0
LINE
8
BLACK
6
CONTINUOUS
10
141.98
20
-109.903
11
141.978
21
-109.904
0
LINE
8
BLACK
6
CONTINUOUS
10
141.978
20
-109.904
11
141.908
21
-109.931
0
LINE
8
BLACK
6
CONTINUOUS
10
141.908
20
-109.931
11
141.906
21
-109.932
0
LINE
8
BLACK
6
CONTINUOUS
10
141.906
20
-109.932
11
141.902
21
-109.934
0
LINE
8
BLACK
6
CONTINUOUS
10
141.902
20
-109.934
11
141.898
21
-109.935
0
LINE
8
BLACK
6
CONTINUOUS
10
141.898
20
-109.935
11
141.896
21
-109.936
0
LINE
8
BLACK
6
CONTINUOUS
10
141.896
20
-109.936
11
141.825
21
-109.959
0
LINE
8
BLACK
6
CONTINUOUS
10
141.825
20
-109.959
11
141.823
21
-109.96
0
LINE
8
BLACK
6
CONTINUOUS
10
141.823
20
-109.96
11
141.819
21
-109.961
0
LINE
8
BLACK
6
CONTINUOUS
10
141.819
20
-109.961
11
141.815
21
-109.962
0
LINE
8
BLACK
6
CONTINUOUS
10
141.815
20
-109.962
11
141.812
21
-109.963
0
LINE
8
BLACK
6
CONTINUOUS
10
141.812
20
-109.963
11
141.741
21
-109.981
0
LINE
8
BLACK
6
CONTINUOUS
10
141.741
20
-109.981
11
141.739
21
-109.982
0
LINE
8
BLACK
6
CONTINUOUS
10
141.739
20
-109.982
11
141.735
21
-109.983
0
LINE
8
BLACK
6
CONTINUOUS
10
141.735
20
-109.983
11
141.73
21
-109.984
0
LINE
8
BLACK
6
CONTINUOUS
10
141.73
20
-109.984
11
141.728
21
-109.984
0
LINE
8
BLACK
6
CONTINUOUS
10
141.728
20
-109.984
11
141.658
21
-109.998
0
LINE
8
BLACK
6
CONTINUOUS
10
141.658
20
-109.998
11
141.656
21
-109.999
0
LINE
8
BLACK
6
CONTINUOUS
10
141.656
20
-109.999
11
141.651
21
-109.999
0
LINE
8
BLACK
6
CONTINUOUS
10
141.651
20
-109.999
11
141.647
21
-110
0
LINE
8
BLACK
6
CONTINUOUS
10
141.647
20
-110
11
141.645
21
-110
0
LINE
8
BLACK
6
CONTINUOUS
10
141.645
20
-110
11
141.576
21
-110.011
0
LINE
8
BLACK
6
CONTINUOUS
10
141.576
20
-110.011
11
141.575
21
-110.011
0
LINE
8
BLACK
6
CONTINUOUS
10
141.575
20
-110.011
11
141.57
21
-110.012
0
LINE
8
BLACK
6
CONTINUOUS
10
141.57
20
-110.012
11
141.565
21
-110.013
0
LINE
8
BLACK
6
CONTINUOUS
10
141.565
20
-110.013
11
141.563
21
-110.013
0
LINE
8
BLACK
6
CONTINUOUS
10
141.563
20
-110.013
11
141.498
21
-110.02
0
LINE
8
BLACK
6
CONTINUOUS
10
141.498
20
-110.02
11
141.497
21
-110.02
0
LINE
8
BLACK
6
CONTINUOUS
10
141.497
20
-110.02
11
141.491
21
-110.021
0
LINE
8
BLACK
6
CONTINUOUS
10
141.491
20
-110.021
11
141.486
21
-110.021
0
LINE
8
BLACK
6
CONTINUOUS
10
141.486
20
-110.021
11
141.485
21
-110.021
0
LINE
8
BLACK
6
CONTINUOUS
10
141.485
20
-110.021
11
141.424
21
-110.026
0
LINE
8
BLACK
6
CONTINUOUS
10
141.424
20
-110.026
11
141.423
21
-110.026
0
LINE
8
BLACK
6
CONTINUOUS
10
141.423
20
-110.026
11
141.417
21
-110.027
0
LINE
8
BLACK
6
CONTINUOUS
10
141.417
20
-110.027
11
141.412
21
-110.027
0
LINE
8
BLACK
6
CONTINUOUS
10
141.412
20
-110.027
11
141.411
21
-110.027
0
LINE
8
BLACK
6
CONTINUOUS
10
141.411
20
-110.027
11
141.355
21
-110.03
0
LINE
8
BLACK
6
CONTINUOUS
10
141.355
20
-110.03
11
141.354
21
-110.03
0
LINE
8
BLACK
6
CONTINUOUS
10
141.354
20
-110.03
11
141.349
21
-110.03
0
LINE
8
BLACK
6
CONTINUOUS
10
141.349
20
-110.03
11
141.343
21
-110.03
0
LINE
8
BLACK
6
CONTINUOUS
10
141.343
20
-110.03
11
141.342
21
-110.03
0
LINE
8
BLACK
6
CONTINUOUS
10
141.342
20
-110.03
11
141.293
21
-110.032
0
LINE
8
BLACK
6
CONTINUOUS
10
141.293
20
-110.032
11
141.292
21
-110.032
0
LINE
8
BLACK
6
CONTINUOUS
10
141.292
20
-110.032
11
141.287
21
-110.032
0
LINE
8
BLACK
6
CONTINUOUS
10
141.287
20
-110.032
11
141.281
21
-110.032
0
LINE
8
BLACK
6
CONTINUOUS
10
141.281
20
-110.032
11
141.28
21
-110.032
0
LINE
8
BLACK
6
CONTINUOUS
10
141.28
20
-110.032
11
141.239
21
-110.032
0
LINE
8
BLACK
6
CONTINUOUS
10
141.239
20
-110.032
11
141.239
21
-110.032
0
LINE
8
BLACK
6
CONTINUOUS
10
141.239
20
-110.032
11
141.232
21
-110.032
0
LINE
8
BLACK
6
CONTINUOUS
10
141.232
20
-110.032
11
141.226
21
-110.032
0
LINE
8
BLACK
6
CONTINUOUS
10
141.226
20
-110.032
11
141.226
21
-110.032
0
LINE
8
BLACK
6
CONTINUOUS
10
141.226
20
-110.032
11
141.194
21
-110.032
0
LINE
8
BLACK
6
CONTINUOUS
10
141.194
20
-110.032
11
141.194
21
-110.032
0
LINE
8
BLACK
6
CONTINUOUS
10
141.194
20
-110.032
11
141.187
21
-110.032
0
LINE
8
BLACK
6
CONTINUOUS
10
141.187
20
-110.032
11
141.181
21
-110.032
0
LINE
8
BLACK
6
CONTINUOUS
10
141.181
20
-110.032
11
141.181
21
-110.032
0
LINE
8
BLACK
6
CONTINUOUS
10
141.181
20
-110.032
11
131.786
21
-110.032
0
LINE
8
BLACK
6
CONTINUOUS
10
131.786
20
-110.032
11
131.786
21
-110.032
0
LINE
8
BLACK
6
CONTINUOUS
10
141.232
20
-109.882
11
141.284
21
-109.882
0
LINE
8
BLACK
6
CONTINUOUS
10
141.284
20
-109.882
11
141.343
21
-109.88
0
LINE
8
BLACK
6
CONTINUOUS
10
141.343
20
-109.88
11
141.408
21
-109.877
0
LINE
8
BLACK
6
CONTINUOUS
10
141.408
20
-109.877
11
141.477
21
-109.871
0
LINE
8
BLACK
6
CONTINUOUS
10
141.477
20
-109.871
11
141.55
21
-109.863
0
LINE
8
BLACK
6
CONTINUOUS
10
141.55
20
-109.863
11
141.625
21
-109.852
0
LINE
8
BLACK
6
CONTINUOUS
10
141.625
20
-109.852
11
141.701
21
-109.836
0
LINE
8
BLACK
6
CONTINUOUS
10
141.701
20
-109.836
11
141.777
21
-109.817
0
LINE
8
BLACK
6
CONTINUOUS
10
141.777
20
-109.817
11
141.851
21
-109.793
0
LINE
8
BLACK
6
CONTINUOUS
10
141.851
20
-109.793
11
141.925
21
-109.764
0
LINE
8
BLACK
6
CONTINUOUS
10
141.925
20
-109.764
11
141.998
21
-109.73
0
LINE
8
BLACK
6
CONTINUOUS
10
141.998
20
-109.73
11
142.068
21
-109.693
0
LINE
8
BLACK
6
CONTINUOUS
10
142.068
20
-109.693
11
142.136
21
-109.651
0
LINE
8
BLACK
6
CONTINUOUS
10
142.136
20
-109.651
11
142.202
21
-109.606
0
LINE
8
BLACK
6
CONTINUOUS
10
142.202
20
-109.606
11
142.265
21
-109.557
0
LINE
8
BLACK
6
CONTINUOUS
10
142.265
20
-109.557
11
142.324
21
-109.505
0
LINE
8
BLACK
6
CONTINUOUS
10
142.324
20
-109.505
11
142.379
21
-109.45
0
LINE
8
BLACK
6
CONTINUOUS
10
142.379
20
-109.45
11
142.431
21
-109.392
0
LINE
8
BLACK
6
CONTINUOUS
10
142.431
20
-109.392
11
142.479
21
-109.333
0
LINE
8
BLACK
6
CONTINUOUS
10
142.479
20
-109.333
11
142.523
21
-109.274
0
LINE
8
BLACK
6
CONTINUOUS
10
142.523
20
-109.274
11
142.564
21
-109.216
0
LINE
8
BLACK
6
CONTINUOUS
10
142.564
20
-109.216
11
142.6
21
-109.161
0
LINE
8
BLACK
6
CONTINUOUS
10
142.6
20
-109.161
11
142.632
21
-109.11
0
LINE
8
BLACK
6
CONTINUOUS
10
142.632
20
-109.11
11
142.659
21
-109.063
0
LINE
8
BLACK
6
CONTINUOUS
10
142.659
20
-109.063
11
142.682
21
-109.024
0
LINE
8
BLACK
6
CONTINUOUS
10
142.682
20
-109.024
11
142.701
21
-108.99
0
LINE
8
BLACK
6
CONTINUOUS
10
142.701
20
-108.99
11
142.727
21
-108.946
0
LINE
8
BLACK
6
CONTINUOUS
10
142.727
20
-108.946
11
142.727
21
-108.946
0
LINE
8
BLACK
6
CONTINUOUS
10
142.727
20
-108.946
11
142.76
21
-108.889
0
LINE
8
BLACK
6
CONTINUOUS
10
142.76
20
-108.889
11
142.811
21
-108.8
0
LINE
8
BLACK
6
CONTINUOUS
10
142.811
20
-108.8
11
142.811
21
-108.8
0
LINE
8
BLACK
6
CONTINUOUS
10
142.811
20
-108.8
11
142.888
21
-108.667
0
LINE
8
BLACK
6
CONTINUOUS
10
142.888
20
-108.667
11
142.888
21
-108.667
0
LINE
8
BLACK
6
CONTINUOUS
10
142.888
20
-108.667
11
142.998
21
-108.476
0
LINE
8
BLACK
6
CONTINUOUS
10
142.998
20
-108.476
11
142.998
21
-108.476
0
LINE
8
BLACK
6
CONTINUOUS
10
142.998
20
-108.476
11
143.15
21
-108.213
0
LINE
8
BLACK
6
CONTINUOUS
10
143.15
20
-108.213
11
143.15
21
-108.213
0
LINE
8
BLACK
6
CONTINUOUS
10
143.15
20
-108.213
11
143.351
21
-107.865
0
LINE
8
BLACK
6
CONTINUOUS
10
143.351
20
-107.865
11
143.351
21
-107.865
0
LINE
8
BLACK
6
CONTINUOUS
10
143.351
20
-107.865
11
143.609
21
-107.419
0
LINE
8
BLACK
6
CONTINUOUS
10
143.609
20
-107.419
11
143.609
21
-107.419
0
LINE
8
BLACK
6
CONTINUOUS
10
143.609
20
-107.419
11
143.922
21
-106.876
0
LINE
8
BLACK
6
CONTINUOUS
10
143.922
20
-106.876
11
143.922
21
-106.876
0
LINE
8
BLACK
6
CONTINUOUS
10
143.922
20
-106.876
11
144.278
21
-106.26
0
LINE
8
BLACK
6
CONTINUOUS
10
144.278
20
-106.26
11
144.278
21
-106.26
0
LINE
8
BLACK
6
CONTINUOUS
10
144.278
20
-106.26
11
144.662
21
-105.595
0
LINE
8
BLACK
6
CONTINUOUS
10
144.662
20
-105.595
11
144.662
21
-105.595
0
LINE
8
BLACK
6
CONTINUOUS
10
144.662
20
-105.595
11
145.059
21
-104.906
0
LINE
8
BLACK
6
CONTINUOUS
10
145.059
20
-104.906
11
145.059
21
-104.906
0
LINE
8
BLACK
6
CONTINUOUS
10
145.059
20
-104.906
11
145.453
21
-104.225
0
LINE
8
BLACK
6
CONTINUOUS
10
145.453
20
-104.225
11
146.332
21
-102.669
0
LINE
8
BLACK
6
CONTINUOUS
10
146.332
20
-102.669
11
146.334
21
-102.662
0
LINE
8
BLACK
6
CONTINUOUS
10
146.334
20
-102.662
11
146.342
21
-102.652
0
LINE
8
BLACK
6
CONTINUOUS
10
146.342
20
-102.652
11
146.35
21
-102.642
0
LINE
8
BLACK
6
CONTINUOUS
10
146.35
20
-102.642
11
146.351
21
-102.642
0
LINE
8
BLACK
6
CONTINUOUS
10
146.351
20
-102.642
11
146.351
21
-102.642
0
LINE
8
BLACK
6
CONTINUOUS
10
146.351
20
-102.642
11
146.362
21
-102.635
0
LINE
8
BLACK
6
CONTINUOUS
10
146.362
20
-102.635
11
146.373
21
-102.629
0
LINE
8
BLACK
6
CONTINUOUS
10
146.373
20
-102.629
11
146.374
21
-102.629
0
LINE
8
BLACK
6
CONTINUOUS
10
146.374
20
-102.629
11
146.374
21
-102.628
0
LINE
8
BLACK
6
CONTINUOUS
10
146.374
20
-102.628
11
146.387
21
-102.626
0
LINE
8
BLACK
6
CONTINUOUS
10
146.387
20
-102.626
11
146.399
21
-102.624
0
LINE
8
BLACK
6
CONTINUOUS
10
146.399
20
-102.624
11
146.406
21
-102.625
0
LINE
8
BLACK
6
CONTINUOUS
10
146.406
20
-102.625
11
149
21
-102.625
0
LINE
8
BLACK
6
CONTINUOUS
10
149
20
-102.625
11
149.023
21
-102.625
0
LINE
8
BLACK
6
CONTINUOUS
10
149.023
20
-102.625
11
149.653
21
-102.542
0
LINE
8
BLACK
6
CONTINUOUS
10
149.653
20
-102.542
11
150.24
21
-102.313
0
LINE
8
BLACK
6
CONTINUOUS
10
150.24
20
-102.313
11
150.756
21
-101.95
0
LINE
8
BLACK
6
CONTINUOUS
10
150.756
20
-101.95
11
151.171
21
-101.475
0
LINE
8
BLACK
6
CONTINUOUS
10
151.171
20
-101.475
11
151.46
21
-100.915
0
LINE
8
BLACK
6
CONTINUOUS
10
151.46
20
-100.915
11
151.607
21
-100.302
0
LINE
8
BLACK
6
CONTINUOUS
10
151.607
20
-100.302
11
151.604
21
-99.6711
0
LINE
8
BLACK
6
CONTINUOUS
10
151.604
20
-99.6711
11
151.45
21
-99.0595
0
LINE
8
BLACK
6
CONTINUOUS
10
151.45
20
-99.0595
11
151.155
21
-98.5022
0
LINE
8
BLACK
6
CONTINUOUS
10
151.155
20
-98.5022
11
150.736
21
-98.0314
0
LINE
8
BLACK
6
CONTINUOUS
10
150.736
20
-98.0314
11
150.216
21
-97.6742
0
LINE
8
BLACK
6
CONTINUOUS
10
150.216
20
-97.6742
11
149.626
21
-97.4513
0
LINE
8
BLACK
6
CONTINUOUS
10
149.626
20
-97.4513
11
148.995
21
-97.375
0
LINE
8
BLACK
6
CONTINUOUS
10
148.995
20
-97.375
11
146.406
21
-97.375
0
LINE
8
BLACK
6
CONTINUOUS
10
146.406
20
-97.375
11
146.399
21
-97.3761
0
LINE
8
BLACK
6
CONTINUOUS
10
146.399
20
-97.3761
11
146.387
21
-97.3738
0
LINE
8
BLACK
6
CONTINUOUS
10
146.387
20
-97.3738
11
146.374
21
-97.3716
0
LINE
8
BLACK
6
CONTINUOUS
10
146.374
20
-97.3716
11
146.374
21
-97.3713
0
LINE
8
BLACK
6
CONTINUOUS
10
146.374
20
-97.3713
11
146.373
21
-97.3712
0
LINE
8
BLACK
6
CONTINUOUS
10
146.373
20
-97.3712
11
146.362
21
-97.3647
0
LINE
8
BLACK
6
CONTINUOUS
10
146.362
20
-97.3647
11
146.351
21
-97.3583
0
LINE
8
BLACK
6
CONTINUOUS
10
146.351
20
-97.3583
11
146.351
21
-97.358
0
LINE
8
BLACK
6
CONTINUOUS
10
146.351
20
-97.358
11
146.35
21
-97.3577
0
LINE
8
BLACK
6
CONTINUOUS
10
146.35
20
-97.3577
11
146.342
21
-97.3479
0
LINE
8
BLACK
6
CONTINUOUS
10
146.342
20
-97.3479
11
146.334
21
-97.3381
0
LINE
8
BLACK
6
CONTINUOUS
10
146.334
20
-97.3381
11
146.332
21
-97.3314
0
LINE
8
BLACK
6
CONTINUOUS
10
146.332
20
-97.3314
11
145.558
21
-95.9538
0
LINE
8
BLACK
6
CONTINUOUS
10
145.558
20
-95.9538
11
145.167
21
-95.2766
0
LINE
8
BLACK
6
CONTINUOUS
10
145.167
20
-95.2766
11
145.167
21
-95.2766
0
LINE
8
BLACK
6
CONTINUOUS
10
145.167
20
-95.2766
11
144.768
21
-94.5857
0
LINE
8
BLACK
6
CONTINUOUS
10
144.768
20
-94.5857
11
144.768
21
-94.5857
0
LINE
8
BLACK
6
CONTINUOUS
10
144.768
20
-94.5857
11
144.373
21
-93.9006
0
LINE
8
BLACK
6
CONTINUOUS
10
144.373
20
-93.9006
11
144.373
21
-93.9006
0
LINE
8
BLACK
6
CONTINUOUS
10
144.373
20
-93.9006
11
144.014
21
-93.2801
0
LINE
8
BLACK
6
CONTINUOUS
10
144.014
20
-93.2801
11
144.014
21
-93.2801
0
LINE
8
BLACK
6
CONTINUOUS
10
144.014
20
-93.2801
11
143.682
21
-92.7037
0
LINE
8
BLACK
6
CONTINUOUS
10
143.682
20
-92.7037
11
143.415
21
-92.2413
0
LINE
8
BLACK
6
CONTINUOUS
10
143.415
20
-92.2413
11
143.415
21
-92.2413
0
LINE
8
BLACK
6
CONTINUOUS
10
143.415
20
-92.2413
11
143.193
21
-91.8567
0
LINE
8
BLACK
6
CONTINUOUS
10
143.193
20
-91.8567
11
143.193
21
-91.8567
0
LINE
8
BLACK
6
CONTINUOUS
10
143.193
20
-91.8567
11
143.035
21
-91.5835
0
LINE
8
BLACK
6
CONTINUOUS
10
143.035
20
-91.5835
11
143.035
21
-91.5835
0
LINE
8
BLACK
6
CONTINUOUS
10
143.035
20
-91.5835
11
142.914
21
-91.3741
0
LINE
8
BLACK
6
CONTINUOUS
10
142.914
20
-91.3741
11
142.914
21
-91.3741
0
LINE
8
BLACK
6
CONTINUOUS
10
142.914
20
-91.3741
11
142.822
21
-91.2152
0
LINE
8
BLACK
6
CONTINUOUS
10
142.822
20
-91.2152
11
142.77
21
-91.125
0
LINE
8
BLACK
6
CONTINUOUS
10
142.77
20
-91.125
11
142.728
21
-91.0521
0
LINE
8
BLACK
6
CONTINUOUS
10
142.728
20
-91.0521
11
142.704
21
-91.0099
0
LINE
8
BLACK
6
CONTINUOUS
10
142.704
20
-91.0099
11
142.704
21
-91.0099
0
LINE
8
BLACK
6
CONTINUOUS
10
142.704
20
-91.0099
11
142.688
21
-90.9821
0
LINE
8
BLACK
6
CONTINUOUS
10
142.688
20
-90.9821
11
142.666
21
-90.9439
0
LINE
8
BLACK
6
CONTINUOUS
10
142.666
20
-90.9439
11
142.639
21
-90.8995
0
LINE
8
BLACK
6
CONTINUOUS
10
142.639
20
-90.8995
11
142.609
21
-90.8496
0
LINE
8
BLACK
6
CONTINUOUS
10
142.609
20
-90.8496
11
142.574
21
-90.7953
0
LINE
8
BLACK
6
CONTINUOUS
10
142.574
20
-90.7953
11
142.535
21
-90.738
0
LINE
8
BLACK
6
CONTINUOUS
10
142.535
20
-90.738
11
142.492
21
-90.6791
0
LINE
8
BLACK
6
CONTINUOUS
10
142.492
20
-90.6791
11
142.444
21
-90.6199
0
LINE
8
BLACK
6
CONTINUOUS
10
142.444
20
-90.6199
11
142.394
21
-90.5616
0
LINE
8
BLACK
6
CONTINUOUS
10
142.394
20
-90.5616
11
142.339
21
-90.5057
0
LINE
8
BLACK
6
CONTINUOUS
10
142.339
20
-90.5057
11
142.281
21
-90.4528
0
LINE
8
BLACK
6
CONTINUOUS
10
142.281
20
-90.4528
11
142.219
21
-90.4031
0
LINE
8
BLACK
6
CONTINUOUS
10
142.219
20
-90.4031
11
142.154
21
-90.3569
0
LINE
8
BLACK
6
CONTINUOUS
10
142.154
20
-90.3569
11
142.087
21
-90.3143
0
LINE
8
BLACK
6
CONTINUOUS
10
142.087
20
-90.3143
11
142.017
21
-90.2756
0
LINE
8
BLACK
6
CONTINUOUS
10
142.017
20
-90.2756
11
141.945
21
-90.2411
0
LINE
8
BLACK
6
CONTINUOUS
10
141.945
20
-90.2411
11
141.871
21
-90.2109
0
LINE
8
BLACK
6
CONTINUOUS
10
141.871
20
-90.2109
11
141.797
21
-90.1853
0
LINE
8
BLACK
6
CONTINUOUS
10
141.797
20
-90.1853
11
141.721
21
-90.1644
0
LINE
8
BLACK
6
CONTINUOUS
10
141.721
20
-90.1644
11
141.646
21
-90.148
0
LINE
8
BLACK
6
CONTINUOUS
10
141.646
20
-90.148
11
141.57
21
-90.1356
0
LINE
8
BLACK
6
CONTINUOUS
10
141.57
20
-90.1356
11
141.497
21
-90.1266
0
LINE
8
BLACK
6
CONTINUOUS
10
141.497
20
-90.1266
11
141.426
21
-90.1204
0
LINE
8
BLACK
6
CONTINUOUS
10
141.426
20
-90.1204
11
141.36
21
-90.1166
0
LINE
8
BLACK
6
CONTINUOUS
10
141.36
20
-90.1166
11
141.299
21
-90.1146
0
LINE
8
BLACK
6
CONTINUOUS
10
141.299
20
-90.1146
11
141.245
21
-90.1139
0
LINE
8
BLACK
6
CONTINUOUS
10
141.245
20
-90.1139
11
141.199
21
-90.1137
0
LINE
8
BLACK
6
CONTINUOUS
10
141.199
20
-90.1137
11
131.764
21
-90.1137
0
LINE
8
BLACK
6
CONTINUOUS
10
131.764
20
-90.1137
11
131.718
21
-90.1138
0
LINE
8
BLACK
6
CONTINUOUS
10
131.718
20
-90.1138
11
131.665
21
-90.1145
0
LINE
8
BLACK
6
CONTINUOUS
10
131.665
20
-90.1145
11
131.605
21
-90.1164
0
LINE
8
BLACK
6
CONTINUOUS
10
131.605
20
-90.1164
11
131.539
21
-90.12
0
LINE
8
BLACK
6
CONTINUOUS
10
131.539
20
-90.12
11
131.468
21
-90.126
0
LINE
8
BLACK
6
CONTINUOUS
10
131.468
20
-90.126
11
131.395
21
-90.1347
0
LINE
8
BLACK
6
CONTINUOUS
10
131.395
20
-90.1347
11
131.32
21
-90.1469
0
LINE
8
BLACK
6
CONTINUOUS
10
131.32
20
-90.1469
11
131.244
21
-90.1629
0
LINE
8
BLACK
6
CONTINUOUS
10
131.244
20
-90.1629
11
131.168
21
-90.1834
0
LINE
8
BLACK
6
CONTINUOUS
10
131.168
20
-90.1834
11
131.094
21
-90.2086
0
LINE
8
BLACK
6
CONTINUOUS
10
131.094
20
-90.2086
11
131.02
21
-90.2384
0
LINE
8
BLACK
6
CONTINUOUS
10
131.02
20
-90.2384
11
130.948
21
-90.2726
0
LINE
8
BLACK
6
CONTINUOUS
10
130.948
20
-90.2726
11
130.878
21
-90.311
0
LINE
8
BLACK
6
CONTINUOUS
10
130.878
20
-90.311
11
130.81
21
-90.3533
0
LINE
8
BLACK
6
CONTINUOUS
10
130.81
20
-90.3533
11
130.745
21
-90.3992
0
LINE
8
BLACK
6
CONTINUOUS
10
130.745
20
-90.3992
11
130.683
21
-90.4487
0
LINE
8
BLACK
6
CONTINUOUS
10
130.683
20
-90.4487
11
130.625
21
-90.5013
0
LINE
8
BLACK
6
CONTINUOUS
10
130.625
20
-90.5013
11
130.57
21
-90.557
0
LINE
8
BLACK
6
CONTINUOUS
10
130.57
20
-90.557
11
130.519
21
-90.615
0
LINE
8
BLACK
6
CONTINUOUS
10
130.519
20
-90.615
11
130.471
21
-90.6743
0
LINE
8
BLACK
6
CONTINUOUS
10
130.471
20
-90.6743
11
130.428
21
-90.7333
0
LINE
8
BLACK
6
CONTINUOUS
10
130.428
20
-90.7333
11
130.388
21
-90.7907
0
LINE
8
BLACK
6
CONTINUOUS
10
130.388
20
-90.7907
11
130.353
21
-90.8453
0
LINE
8
BLACK
6
CONTINUOUS
10
130.353
20
-90.8453
11
130.322
21
-90.8957
0
LINE
8
BLACK
6
CONTINUOUS
10
130.322
20
-90.8957
11
130.296
21
-90.9406
0
LINE
8
BLACK
6
CONTINUOUS
10
130.296
20
-90.9406
11
130.274
21
-90.9782
0
LINE
8
BLACK
6
CONTINUOUS
10
130.274
20
-90.9782
11
130.257
21
-91.007
0
LINE
8
BLACK
6
CONTINUOUS
10
130.257
20
-91.007
11
130.257
21
-91.007
0
LINE
8
BLACK
6
CONTINUOUS
10
130.257
20
-91.007
11
130.233
21
-91.0481
0
LINE
8
BLACK
6
CONTINUOUS
10
130.233
20
-91.0481
11
130.233
21
-91.0481
0
LINE
8
BLACK
6
CONTINUOUS
10
130.233
20
-91.0481
11
130.198
21
-91.1098
0
LINE
8
BLACK
6
CONTINUOUS
10
130.198
20
-91.1098
11
130.198
21
-91.1098
0
LINE
8
BLACK
6
CONTINUOUS
10
130.198
20
-91.1098
11
130.143
21
-91.2055
0
LINE
8
BLACK
6
CONTINUOUS
10
130.143
20
-91.2055
11
130.143
21
-91.2055
0
LINE
8
BLACK
6
CONTINUOUS
10
130.143
20
-91.2055
11
130.06
21
-91.3486
0
LINE
8
BLACK
6
CONTINUOUS
10
130.06
20
-91.3486
11
129.942
21
-91.5525
0
LINE
8
BLACK
6
CONTINUOUS
10
129.942
20
-91.5525
11
129.942
21
-91.5525
0
LINE
8
BLACK
6
CONTINUOUS
10
129.942
20
-91.5525
11
129.782
21
-91.8305
0
LINE
8
BLACK
6
CONTINUOUS
10
129.782
20
-91.8305
11
129.782
21
-91.8305
0
LINE
8
BLACK
6
CONTINUOUS
10
129.782
20
-91.8305
11
129.571
21
-92.1961
0
LINE
8
BLACK
6
CONTINUOUS
10
129.571
20
-92.1961
11
129.571
21
-92.1961
0
LINE
8
BLACK
6
CONTINUOUS
10
129.571
20
-92.1961
11
129.302
21
-92.6616
0
LINE
8
BLACK
6
CONTINUOUS
10
129.302
20
-92.6616
11
129.302
21
-92.6616
0
LINE
8
BLACK
6
CONTINUOUS
10
129.302
20
-92.6616
11
128.979
21
-93.2201
0
LINE
8
BLACK
6
CONTINUOUS
10
128.979
20
-93.2201
11
128.979
21
-93.2201
0
LINE
8
BLACK
6
CONTINUOUS
10
128.979
20
-93.2201
11
128.617
21
-93.8475
0
LINE
8
BLACK
6
CONTINUOUS
10
128.617
20
-93.8475
11
128.617
21
-93.8475
0
LINE
8
BLACK
6
CONTINUOUS
10
128.617
20
-93.8475
11
128.23
21
-94.5188
0
LINE
8
BLACK
6
CONTINUOUS
10
128.23
20
-94.5188
11
128.23
21
-94.5188
0
LINE
8
BLACK
6
CONTINUOUS
10
128.23
20
-94.5188
11
127.831
21
-95.2092
0
LINE
8
BLACK
6
CONTINUOUS
10
127.831
20
-95.2092
11
127.831
21
-95.2092
0
LINE
8
BLACK
6
CONTINUOUS
10
127.831
20
-95.2092
11
127.435
21
-95.8946
0
LINE
8
BLACK
6
CONTINUOUS
10
127.435
20
-95.8946
11
127.435
21
-95.8953
0
LINE
8
BLACK
6
CONTINUOUS
10
127.435
20
-95.8953
11
127.432
21
-95.9003
0
LINE
8
BLACK
6
CONTINUOUS
10
127.432
20
-95.9003
11
127.429
21
-95.9053
0
LINE
8
BLACK
6
CONTINUOUS
10
127.429
20
-95.9053
11
127.429
21
-95.9059
0
LINE
8
BLACK
6
CONTINUOUS
10
127.429
20
-95.9059
11
126.568
21
-97.3325
0
LINE
8
BLACK
6
CONTINUOUS
10
126.568
20
-97.3325
11
126.566
21
-97.3381
0
LINE
8
BLACK
6
CONTINUOUS
10
126.566
20
-97.3381
11
126.561
21
-97.3437
0
LINE
8
BLACK
6
CONTINUOUS
10
126.561
20
-97.3437
11
126.561
21
-97.3444
0
LINE
8
BLACK
6
CONTINUOUS
10
126.561
20
-97.3444
11
126.557
21
-97.3487
0
LINE
8
BLACK
6
CONTINUOUS
10
126.557
20
-97.3487
11
126.549
21
-97.3583
0
LINE
8
BLACK
6
CONTINUOUS
10
126.549
20
-97.3583
11
126.548
21
-97.3587
0
LINE
8
BLACK
6
CONTINUOUS
10
126.548
20
-97.3587
11
126.548
21
-97.3593
0
LINE
8
BLACK
6
CONTINUOUS
10
126.548
20
-97.3593
11
126.537
21
-97.3653
0
LINE
8
BLACK
6
CONTINUOUS
10
126.537
20
-97.3653
11
126.526
21
-97.3716
0
LINE
8
BLACK
6
CONTINUOUS
10
126.526
20
-97.3716
11
126.525
21
-97.3717
0
LINE
8
BLACK
6
CONTINUOUS
10
126.525
20
-97.3717
11
126.525
21
-97.3721
0
LINE
8
BLACK
6
CONTINUOUS
10
126.525
20
-97.3721
11
126.512
21
-97.374
0
LINE
8
BLACK
6
CONTINUOUS
10
126.512
20
-97.374
11
126.507
21
-97.375
0
LINE
8
BLACK
6
CONTINUOUS
10
126.507
20
-97.375
11
126.506
21
-97.375
0
LINE
8
BLACK
6
CONTINUOUS
10
126.506
20
-97.375
11
126.499
21
-97.3761
0
LINE
8
BLACK
6
CONTINUOUS
10
126.499
20
-97.3761
11
126.493
21
-97.375
0
LINE
8
BLACK
6
CONTINUOUS
10
126.493
20
-97.375
11
124
21
-97.375
0
LINE
8
BLACK
6
CONTINUOUS
10
124
20
-97.375
11
123.977
21
-97.3751
0
LINE
8
BLACK
6
CONTINUOUS
10
123.977
20
-97.3751
11
123.347
21
-97.458
0
LINE
8
BLACK
6
CONTINUOUS
10
123.347
20
-97.458
11
122.76
21
-97.6871
0
LINE
8
BLACK
6
CONTINUOUS
10
122.76
20
-97.6871
11
122.244
21
-98.0497
0
LINE
8
BLACK
6
CONTINUOUS
10
122.244
20
-98.0497
11
121.829
21
-98.5248
0
LINE
8
BLACK
6
CONTINUOUS
10
121.829
20
-98.5248
11
121.54
21
-99.0852
0
LINE
8
BLACK
6
CONTINUOUS
10
121.54
20
-99.0852
11
121.393
21
-99.6984
0
LINE
8
BLACK
6
CONTINUOUS
10
121.393
20
-99.6984
11
121.396
21
-100.329
0
LINE
8
BLACK
6
CONTINUOUS
10
121.396
20
-100.329
11
121.55
21
-100.941
0
LINE
8
BLACK
6
CONTINUOUS
10
121.55
20
-100.941
11
121.845
21
-101.498
0
LINE
8
BLACK
6
CONTINUOUS
10
121.845
20
-101.498
11
122.264
21
-101.969
0
LINE
8
BLACK
6
CONTINUOUS
10
122.264
20
-101.969
11
122.784
21
-102.326
0
LINE
8
BLACK
6
CONTINUOUS
10
122.784
20
-102.326
11
123.374
21
-102.549
0
LINE
8
BLACK
6
CONTINUOUS
10
123.374
20
-102.549
11
124.005
21
-102.625
0
LINE
8
BLACK
6
CONTINUOUS
10
124.005
20
-102.625
11
126.493
21
-102.625
0
LINE
8
BLACK
6
CONTINUOUS
10
126.493
20
-102.625
11
126.498
21
-102.624
0
LINE
8
BLACK
6
CONTINUOUS
10
126.498
20
-102.624
11
126.506
21
-102.625
0
LINE
8
BLACK
6
CONTINUOUS
10
126.506
20
-102.625
11
126.507
21
-102.625
0
LINE
8
BLACK
6
CONTINUOUS
10
126.507
20
-102.625
11
126.512
21
-102.626
0
LINE
8
BLACK
6
CONTINUOUS
10
126.512
20
-102.626
11
126.524
21
-102.628
0
LINE
8
BLACK
6
CONTINUOUS
10
126.524
20
-102.628
11
126.525
21
-102.628
0
LINE
8
BLACK
6
CONTINUOUS
10
126.525
20
-102.628
11
126.526
21
-102.628
0
LINE
8
BLACK
6
CONTINUOUS
10
126.526
20
-102.628
11
126.537
21
-102.635
0
LINE
8
BLACK
6
CONTINUOUS
10
126.537
20
-102.635
11
126.548
21
-102.641
0
LINE
8
BLACK
6
CONTINUOUS
10
126.548
20
-102.641
11
126.548
21
-102.641
0
LINE
8
BLACK
6
CONTINUOUS
10
126.548
20
-102.641
11
126.549
21
-102.642
0
LINE
8
BLACK
6
CONTINUOUS
10
126.549
20
-102.642
11
126.557
21
-102.651
0
LINE
8
BLACK
6
CONTINUOUS
10
126.557
20
-102.651
11
126.561
21
-102.655
0
LINE
8
BLACK
6
CONTINUOUS
10
126.561
20
-102.655
11
126.561
21
-102.656
0
LINE
8
BLACK
6
CONTINUOUS
10
126.561
20
-102.656
11
126.566
21
-102.662
0
LINE
8
BLACK
6
CONTINUOUS
10
126.566
20
-102.662
11
126.568
21
-102.667
0
LINE
8
BLACK
6
CONTINUOUS
10
126.568
20
-102.667
11
127.324
21
-103.909
0
LINE
8
BLACK
6
CONTINUOUS
10
127.324
20
-103.909
11
127.325
21
-103.91
0
LINE
8
BLACK
6
CONTINUOUS
10
127.325
20
-103.91
11
127.328
21
-103.915
0
LINE
8
BLACK
6
CONTINUOUS
10
127.328
20
-103.915
11
127.331
21
-103.92
0
LINE
8
BLACK
6
CONTINUOUS
10
127.331
20
-103.92
11
127.331
21
-103.92
0
LINE
8
BLACK
6
CONTINUOUS
10
127.331
20
-103.92
11
127.723
21
-104.6
0
LINE
8
BLACK
6
CONTINUOUS
10
127.723
20
-104.6
11
127.723
21
-104.6
0
LINE
8
BLACK
6
CONTINUOUS
10
127.723
20
-104.6
11
128.122
21
-105.292
0
LINE
8
BLACK
6
CONTINUOUS
10
128.122
20
-105.292
11
128.122
21
-105.292
0
LINE
8
BLACK
6
CONTINUOUS
10
128.122
20
-105.292
11
128.514
21
-105.97
0
LINE
8
BLACK
6
CONTINUOUS
10
128.514
20
-105.97
11
128.514
21
-105.97
0
LINE
8
BLACK
6
CONTINUOUS
10
128.514
20
-105.97
11
128.885
21
-106.612
0
LINE
8
BLACK
6
CONTINUOUS
10
128.885
20
-106.612
11
128.885
21
-106.612
0
LINE
8
BLACK
6
CONTINUOUS
10
128.885
20
-106.612
11
129.219
21
-107.192
0
LINE
8
BLACK
6
CONTINUOUS
10
129.219
20
-107.192
11
129.219
21
-107.192
0
LINE
8
BLACK
6
CONTINUOUS
10
129.219
20
-107.192
11
129.504
21
-107.684
0
LINE
8
BLACK
6
CONTINUOUS
10
129.504
20
-107.684
11
129.504
21
-107.684
0
LINE
8
BLACK
6
CONTINUOUS
10
129.504
20
-107.684
11
129.73
21
-108.076
0
LINE
8
BLACK
6
CONTINUOUS
10
129.73
20
-108.076
11
129.73
21
-108.076
0
LINE
8
BLACK
6
CONTINUOUS
10
129.73
20
-108.076
11
129.903
21
-108.376
0
LINE
8
BLACK
6
CONTINUOUS
10
129.903
20
-108.376
11
129.903
21
-108.376
0
LINE
8
BLACK
6
CONTINUOUS
10
129.903
20
-108.376
11
130.032
21
-108.599
0
LINE
8
BLACK
6
CONTINUOUS
10
130.032
20
-108.599
11
130.032
21
-108.599
0
LINE
8
BLACK
6
CONTINUOUS
10
130.032
20
-108.599
11
130.123
21
-108.757
0
LINE
8
BLACK
6
CONTINUOUS
10
130.123
20
-108.757
11
130.123
21
-108.757
0
LINE
8
BLACK
6
CONTINUOUS
10
130.123
20
-108.757
11
130.182
21
-108.858
0
LINE
8
BLACK
6
CONTINUOUS
10
130.182
20
-108.858
11
130.225
21
-108.934
0
LINE
8
BLACK
6
CONTINUOUS
10
130.225
20
-108.934
11
130.225
21
-108.934
0
LINE
8
BLACK
6
CONTINUOUS
10
130.225
20
-108.934
11
130.245
21
-108.968
0
LINE
8
BLACK
6
CONTINUOUS
10
130.245
20
-108.968
11
130.245
21
-108.968
0
LINE
8
BLACK
6
CONTINUOUS
10
130.245
20
-108.968
11
130.268
21
-109.008
0
LINE
8
BLACK
6
CONTINUOUS
10
130.268
20
-109.008
11
130.289
21
-109.044
0
LINE
8
BLACK
6
CONTINUOUS
10
130.289
20
-109.044
11
130.315
21
-109.088
0
LINE
8
BLACK
6
CONTINUOUS
10
130.315
20
-109.088
11
130.344
21
-109.137
0
LINE
8
BLACK
6
CONTINUOUS
10
130.344
20
-109.137
11
130.378
21
-109.19
0
LINE
8
BLACK
6
CONTINUOUS
10
130.378
20
-109.19
11
130.417
21
-109.247
0
LINE
8
BLACK
6
CONTINUOUS
10
130.417
20
-109.247
11
130.459
21
-109.306
0
LINE
8
BLACK
6
CONTINUOUS
10
130.459
20
-109.306
11
130.506
21
-109.365
0
LINE
8
BLACK
6
CONTINUOUS
10
130.506
20
-109.365
11
130.556
21
-109.424
0
LINE
8
BLACK
6
CONTINUOUS
10
130.556
20
-109.424
11
130.61
21
-109.48
0
LINE
8
BLACK
6
CONTINUOUS
10
130.61
20
-109.48
11
130.667
21
-109.533
0
LINE
8
BLACK
6
CONTINUOUS
10
130.667
20
-109.533
11
130.728
21
-109.584
0
LINE
8
BLACK
6
CONTINUOUS
10
130.728
20
-109.584
11
130.792
21
-109.631
0
LINE
8
BLACK
6
CONTINUOUS
10
130.792
20
-109.631
11
130.86
21
-109.674
0
LINE
8
BLACK
6
CONTINUOUS
10
130.86
20
-109.674
11
130.929
21
-109.713
0
LINE
8
BLACK
6
CONTINUOUS
10
130.929
20
-109.713
11
131.001
21
-109.749
0
LINE
8
BLACK
6
CONTINUOUS
10
131.001
20
-109.749
11
131.074
21
-109.78
0
LINE
8
BLACK
6
CONTINUOUS
10
131.074
20
-109.78
11
131.148
21
-109.806
0
LINE
8
BLACK
6
CONTINUOUS
10
131.148
20
-109.806
11
131.223
21
-109.828
0
LINE
8
BLACK
6
CONTINUOUS
10
131.223
20
-109.828
11
131.299
21
-109.845
0
LINE
8
BLACK
6
CONTINUOUS
10
131.299
20
-109.845
11
131.375
21
-109.858
0
LINE
8
BLACK
6
CONTINUOUS
10
131.375
20
-109.858
11
131.449
21
-109.868
0
LINE
8
BLACK
6
CONTINUOUS
10
131.449
20
-109.868
11
131.52
21
-109.875
0
LINE
8
BLACK
6
CONTINUOUS
10
131.52
20
-109.875
11
131.587
21
-109.879
0
LINE
8
BLACK
6
CONTINUOUS
10
131.587
20
-109.879
11
131.649
21
-109.881
0
LINE
8
BLACK
6
CONTINUOUS
10
131.649
20
-109.881
11
131.705
21
-109.882
0
LINE
8
BLACK
6
CONTINUOUS
10
131.705
20
-109.882
11
131.753
21
-109.882
0
LINE
8
BLACK
6
CONTINUOUS
10
131.753
20
-109.882
11
131.786
21
-109.882
0
LINE
8
BLACK
6
CONTINUOUS
10
131.786
20
-109.882
11
141.188
21
-109.882
0
LINE
8
BLACK
6
CONTINUOUS
10
141.188
20
-109.882
11
141.232
21
-109.882
  0
ENDSEC
  0
EOF
