  0
SECTION
  2
HEADER
  9
$ANGBASE
  50
0.0
  9
$ANGDIR
  70
  1
  9
$MEASUREMENT
  70
0
  0
ENDSEC
  0
SECTION
  2
TABLES
  0
TABLE
  2
LTYPE
  70
4
  0
LTYPE
  5
40F
  2
CONTINUOUS
  70
0
  3
Solid line
  72
65
  73
0
  40
0.0
  0
LTYPE
  5
410
  2
DASHDOT
 70
0
  3
Dash Dot ____ _ ____ _
 72
65
 73
4
 40
2.0
 49
1.25
 49
-0.25
 49
0.25
 49
-0.25
  0
LTYPE
  5
411
  2
DASHED
 70
0
  3
Dashed __ __ __ __ __
 72
65
 73
2
 40
0.75
 49
0.5
 49
-0.25
  0
LTYPE
  5
43B
  2
DOTTED
 70
0
  3
Dotted .  .  .  .
 72
65
 73
2
 40
0.2
 49
0.0
 49
-0.2
  0
ENDTAB
  0
TABLE
  2
STYLE
  70
4
  0
STYLE
  2
KICAD
  70
0
  40
0
  41
1
  42
1
  50
0
  71
0
  3
isocp.shx
  0
STYLE
  2
KICADB
  70
0
  40
0
  41
1
  42
1
  50
0
  71
0
  3
isocp.shx
  0
STYLE
  2
KICADI
  70
0
  40
0
  41
1
  42
1
  50
15
  71
0
  3
isocp.shx
  0
STYLE
  2
KICADBI
  70
0
  40
0
  41
1
  42
1
  50
15
  71
0
  3
isocp.shx
  0
ENDTAB
  0
TABLE
  2
LAYER
  70
30
  0
LAYER
  2
BLACK
  70
0
  62
7
  6
CONTINUOUS
  0
LAYER
  2
GRAY1
  70
0
  62
251
  6
CONTINUOUS
  0
LAYER
  2
GRAY2
  70
0
  62
8
  6
CONTINUOUS
  0
LAYER
  2
GRAY3
  70
0
  62
9
  6
CONTINUOUS
  0
LAYER
  2
WHITE
  70
0
  62
7
  6
CONTINUOUS
  0
LAYER
  2
LYELLOW
  70
0
  62
51
  6
CONTINUOUS
  0
LAYER
  2
BLUE1
  70
0
  62
178
  6
CONTINUOUS
  0
LAYER
  2
GREEN1
  70
0
  62
98
  6
CONTINUOUS
  0
LAYER
  2
CYAN1
  70
0
  62
138
  6
CONTINUOUS
  0
LAYER
  2
RED1
  70
0
  62
18
  6
CONTINUOUS
  0
LAYER
  2
MAGENTA1
  70
0
  62
228
  6
CONTINUOUS
  0
LAYER
  2
BROWN1
  70
0
  62
58
  6
CONTINUOUS
  0
LAYER
  2
BLUE2
  70
0
  62
5
  6
CONTINUOUS
  0
LAYER
  2
GREEN2
  70
0
  62
3
  6
CONTINUOUS
  0
LAYER
  2
CYAN2
  70
0
  62
4
  6
CONTINUOUS
  0
LAYER
  2
RED2
  70
0
  62
1
  6
CONTINUOUS
  0
LAYER
  2
MAGENTA2
  70
0
  62
6
  6
CONTINUOUS
  0
LAYER
  2
BROWN2
  70
0
  62
54
  6
CONTINUOUS
  0
LAYER
  2
BLUE3
  70
0
  62
171
  6
CONTINUOUS
  0
LAYER
  2
GREEN3
  70
0
  62
91
  6
CONTINUOUS
  0
LAYER
  2
CYAN3
  70
0
  62
131
  6
CONTINUOUS
  0
LAYER
  2
RED3
  70
0
  62
11
  6
CONTINUOUS
  0
LAYER
  2
MAGENTA3
  70
0
  62
221
  6
CONTINUOUS
  0
LAYER
  2
YELLOW3
  70
0
  62
2
  6
CONTINUOUS
  0
LAYER
  2
BLUE4
  70
0
  62
5
  6
CONTINUOUS
  0
LAYER
  2
GREEN4
  70
0
  62
3
  6
CONTINUOUS
  0
LAYER
  2
CYAN4
  70
0
  62
4
  6
CONTINUOUS
  0
LAYER
  2
RED4
  70
0
  62
1
  6
CONTINUOUS
  0
LAYER
  2
MAGENTA4
  70
0
  62
6
  6
CONTINUOUS
  0
LAYER
  2
YELLOW4
  70
0
  62
2
  6
CONTINUOUS
  0
ENDTAB
  0
ENDSEC
  0
SECTION
  2
ENTITIES
0
LINE
8
BLACK
6
CONTINUOUS
10
159.5
20
-112.5
11
159.5
21
-109.96
0
LINE
8
BLACK
6
CONTINUOUS
10
152.5
20
-112.5
11
152.5
21
-109.975
0
LINE
8
BLACK
6
CONTINUOUS
10
127.5
20
-112.5
11
127.5
21
-109.96
0
LINE
8
BLACK
6
CONTINUOUS
10
134.5
20
-112.5
11
134.5
21
-109.975
0
ARC
8
BLACK
10
156
20
-112.5
40
3.5
50
180
51
360
0
ARC
8
BLACK
10
131
20
-112.5
40
3.5
50
180
51
360
0
LINE
8
BLACK
6
CONTINUOUS
10
159.5
20
-87.5
11
159.5
21
-90.05
0
LINE
8
BLACK
6
CONTINUOUS
10
152.5
20
-87.5
11
152.5
21
-90.05
0
ARC
8
BLACK
10
156
20
-87.5
40
3.5
50
-0
51
180
0
LINE
8
BLACK
6
CONTINUOUS
10
127.5
20
-87.5
11
127.5
21
-90.05
0
LINE
8
BLACK
6
CONTINUOUS
10
134.5
20
-87.5
11
134.5
21
-90.05
0
ARC
8
BLACK
10
131
20
-87.5
40
3.5
50
-0
51
180
0
LINE
8
BLACK
6
CONTINUOUS
10
160.255
20
-90.0979
11
160.175
21
-90.0806
0
LINE
8
BLACK
6
CONTINUOUS
10
159.879
20
-90.048
11
159.817
21
-90.046
0
LINE
8
BLACK
6
CONTINUOUS
10
159.714
20
-90.045
11
159.675
21
-90.045
0
LINE
8
BLACK
6
CONTINUOUS
10
160.964
20
-90.517
11
160.907
21
-90.458
0
LINE
8
BLACK
6
CONTINUOUS
10
161.349
20
-91.0906
11
161.312
21
-91.0266
0
LINE
8
BLACK
6
CONTINUOUS
10
159.817
20
-90.046
11
159.761
21
-90.0452
0
LINE
8
BLACK
6
CONTINUOUS
10
161.067
20
-90.6398
11
161.018
21
-90.5781
0
LINE
8
BLACK
6
CONTINUOUS
10
163.346
20
-94.5488
11
162.957
21
-93.8751
0
LINE
8
BLACK
6
CONTINUOUS
10
161.018
20
-90.5781
11
160.964
21
-90.517
0
LINE
8
BLACK
6
CONTINUOUS
10
161.288
20
-90.9844
11
161.268
21
-90.9504
0
LINE
8
BLACK
6
CONTINUOUS
10
162.957
20
-93.8751
11
162.592
21
-93.2432
0
LINE
8
BLACK
6
CONTINUOUS
10
160.712
20
-90.3009
11
160.641
21
-90.256
0
LINE
8
BLACK
6
CONTINUOUS
10
160.02
20
-90.0583
11
159.947
21
-90.0519
0
LINE
8
BLACK
6
CONTINUOUS
10
162.592
20
-93.2432
11
162.266
21
-92.6782
0
LINE
8
BLACK
6
CONTINUOUS
10
161.491
20
-91.3372
11
161.406
21
-91.1897
0
LINE
8
BLACK
6
CONTINUOUS
10
161.112
20
-90.701
11
161.067
21
-90.6398
0
LINE
8
BLACK
6
CONTINUOUS
10
160.414
20
-90.147
11
160.335
21
-90.1199
0
LINE
8
BLACK
6
CONTINUOUS
10
161.312
20
-91.0266
11
161.288
21
-90.9844
0
LINE
8
BLACK
6
CONTINUOUS
10
160.175
20
-90.0806
11
160.097
21
-90.0676
0
LINE
8
BLACK
6
CONTINUOUS
10
160.335
20
-90.1199
11
160.255
21
-90.0979
0
LINE
8
BLACK
6
CONTINUOUS
10
160.491
20
-90.1788
11
160.414
21
-90.147
0
LINE
8
BLACK
6
CONTINUOUS
10
159.947
20
-90.0519
11
159.879
21
-90.048
0
LINE
8
BLACK
6
CONTINUOUS
10
161.992
20
-92.2045
11
161.777
21
-91.8312
0
LINE
8
BLACK
6
CONTINUOUS
10
161.777
20
-91.8312
11
161.612
21
-91.5466
0
LINE
8
BLACK
6
CONTINUOUS
10
160.907
20
-90.458
11
160.845
21
-90.4021
0
LINE
8
BLACK
6
CONTINUOUS
10
163.745
20
-95.2398
11
163.346
21
-94.5488
0
LINE
8
BLACK
6
CONTINUOUS
10
160.567
20
-90.2152
11
160.491
21
-90.1788
0
LINE
8
BLACK
6
CONTINUOUS
10
162.266
20
-92.6782
11
161.992
21
-92.2045
0
LINE
8
BLACK
6
CONTINUOUS
10
161.152
20
-90.7601
11
161.112
21
-90.701
0
LINE
8
BLACK
6
CONTINUOUS
10
160.78
20
-90.3497
11
160.712
21
-90.3009
0
LINE
8
BLACK
6
CONTINUOUS
10
159.761
20
-90.0452
11
159.714
21
-90.045
0
LINE
8
BLACK
6
CONTINUOUS
10
161.188
20
-90.816
11
161.152
21
-90.7601
0
LINE
8
BLACK
6
CONTINUOUS
10
159.631
20
-90.045
11
159.5
21
-90.05
0
LINE
8
BLACK
6
CONTINUOUS
10
160.845
20
-90.4021
11
160.78
21
-90.3497
0
LINE
8
BLACK
6
CONTINUOUS
10
160.641
20
-90.256
11
160.567
21
-90.2152
0
LINE
8
BLACK
6
CONTINUOUS
10
161.406
20
-91.1897
11
161.349
21
-91.0906
0
LINE
8
BLACK
6
CONTINUOUS
10
161.612
20
-91.5466
11
161.491
21
-91.3372
0
LINE
8
BLACK
6
CONTINUOUS
10
160.097
20
-90.0676
11
160.02
21
-90.0583
0
LINE
8
BLACK
6
CONTINUOUS
10
161.219
20
-90.8672
11
161.188
21
-90.816
0
LINE
8
BLACK
6
CONTINUOUS
10
161.246
20
-90.9124
11
161.219
21
-90.8672
0
LINE
8
BLACK
6
CONTINUOUS
10
159.675
20
-90.045
11
159.631
21
-90.045
0
LINE
8
BLACK
6
CONTINUOUS
10
161.268
20
-90.9504
11
161.246
21
-90.9124
0
LINE
8
BLACK
6
CONTINUOUS
10
164.139
20
-95.9229
11
163.745
21
-95.2398
0
LINE
8
BLACK
6
CONTINUOUS
10
165.152
20
-97.6778
11
164.857
21
-97.1668
0
LINE
8
BLACK
6
CONTINUOUS
10
164.515
20
-96.5736
11
164.139
21
-95.9229
0
LINE
8
BLACK
6
CONTINUOUS
10
164.857
20
-97.1668
11
164.515
21
-96.5736
0
LINE
8
BLACK
6
CONTINUOUS
10
166.218
20
-99.6579
11
166.196
21
-99.5786
0
LINE
8
BLACK
6
CONTINUOUS
10
166.225
20
-100.322
11
166.241
21
-100.241
0
LINE
8
BLACK
6
CONTINUOUS
10
166.241
20
-100.241
11
166.252
21
-100.158
0
LINE
8
BLACK
6
CONTINUOUS
10
165.783
20
-101.238
11
165.857
21
-101.109
0
LINE
8
BLACK
6
CONTINUOUS
10
162.499
20
-106.926
11
162.855
21
-106.31
0
LINE
8
BLACK
6
CONTINUOUS
10
166.02
20
-99.1827
11
165.994
21
-99.137
0
LINE
8
BLACK
6
CONTINUOUS
10
166.26
20
-99.9895
11
166.257
21
-99.9054
0
LINE
8
BLACK
6
CONTINUOUS
10
165.527
20
-101.681
11
165.675
21
-101.424
0
LINE
8
BLACK
6
CONTINUOUS
10
165.675
20
-101.424
11
165.783
21
-101.238
0
LINE
8
BLACK
6
CONTINUOUS
10
163.239
20
-105.645
11
163.637
21
-104.956
0
LINE
8
BLACK
6
CONTINUOUS
10
165.96
20
-100.931
11
165.98
21
-100.897
0
LINE
8
BLACK
6
CONTINUOUS
10
166.249
20
-99.8218
11
166.236
21
-99.7391
0
LINE
8
BLACK
6
CONTINUOUS
10
166.252
20
-100.158
11
166.259
21
-100.074
0
LINE
8
BLACK
6
CONTINUOUS
10
161.337
20
-108.938
11
161.388
21
-108.85
0
LINE
8
BLACK
6
CONTINUOUS
10
161.928
20
-107.915
11
162.186
21
-107.468
0
LINE
8
BLACK
6
CONTINUOUS
10
166.257
20
-99.9054
11
166.249
21
-99.8218
0
LINE
8
BLACK
6
CONTINUOUS
10
165.918
20
-99.0048
11
165.918
21
-99.0043
0
LINE
8
BLACK
6
CONTINUOUS
10
165.942
20
-99.0461
11
165.932
21
-99.0294
0
LINE
8
BLACK
6
CONTINUOUS
10
166.049
20
-99.2354
11
166.02
21
-99.1827
0
LINE
8
BLACK
6
CONTINUOUS
10
166.141
20
-99.4284
11
166.11
21
-99.359
0
LINE
8
BLACK
6
CONTINUOUS
10
166.06
20
-100.753
11
166.09
21
-100.692
0
LINE
8
BLACK
6
CONTINUOUS
10
165.331
20
-102.022
11
165.527
21
-101.681
0
LINE
8
BLACK
6
CONTINUOUS
10
166.196
20
-99.5786
11
166.17
21
-99.5018
0
LINE
8
BLACK
6
CONTINUOUS
10
162.855
20
-106.31
11
163.239
21
-105.645
0
LINE
8
BLACK
6
CONTINUOUS
10
166.179
20
-100.48
11
166.204
21
-100.402
0
LINE
8
BLACK
6
CONTINUOUS
10
165.919
20
-99.0065
11
165.918
21
-99.0048
0
LINE
8
BLACK
6
CONTINUOUS
10
165.922
20
-99.0105
11
165.919
21
-99.0065
0
LINE
8
BLACK
6
CONTINUOUS
10
165.926
20
-99.0178
11
165.922
21
-99.0105
0
LINE
8
BLACK
6
CONTINUOUS
10
165.932
20
-99.0294
11
165.926
21
-99.0178
0
LINE
8
BLACK
6
CONTINUOUS
10
166.121
20
-100.626
11
166.151
21
-100.555
0
LINE
8
BLACK
6
CONTINUOUS
10
165.955
20
-99.069
11
165.942
21
-99.0461
0
LINE
8
BLACK
6
CONTINUOUS
10
165.973
20
-99.099
11
165.955
21
-99.069
0
LINE
8
BLACK
6
CONTINUOUS
10
161.465
20
-108.717
11
161.576
21
-108.526
0
LINE
8
BLACK
6
CONTINUOUS
10
161.576
20
-108.526
11
161.727
21
-108.263
0
LINE
8
BLACK
6
CONTINUOUS
10
166.204
20
-100.402
11
166.225
21
-100.322
0
LINE
8
BLACK
6
CONTINUOUS
10
165.857
20
-101.109
11
165.907
21
-101.024
0
LINE
8
BLACK
6
CONTINUOUS
10
165.994
20
-99.137
11
165.973
21
-99.099
0
LINE
8
BLACK
6
CONTINUOUS
10
166.003
20
-100.856
11
166.03
21
-100.808
0
LINE
8
BLACK
6
CONTINUOUS
10
161.388
20
-108.85
11
161.465
21
-108.717
0
LINE
8
BLACK
6
CONTINUOUS
10
165.078
20
-102.459
11
165.331
21
-102.022
0
LINE
8
BLACK
6
CONTINUOUS
10
166.17
20
-99.5018
11
166.141
21
-99.4284
0
LINE
8
BLACK
6
CONTINUOUS
10
165.938
20
-100.969
11
165.96
21
-100.931
0
LINE
8
BLACK
6
CONTINUOUS
10
166.079
20
-99.2945
11
166.049
21
-99.2354
0
LINE
8
BLACK
6
CONTINUOUS
10
164.769
20
-102.995
11
165.078
21
-102.459
0
LINE
8
BLACK
6
CONTINUOUS
10
166.151
20
-100.555
11
166.179
21
-100.48
0
LINE
8
BLACK
6
CONTINUOUS
10
166.09
20
-100.692
11
166.121
21
-100.626
0
LINE
8
BLACK
6
CONTINUOUS
10
166.03
20
-100.808
11
166.06
21
-100.753
0
LINE
8
BLACK
6
CONTINUOUS
10
162.186
20
-107.468
11
162.499
21
-106.926
0
LINE
8
BLACK
6
CONTINUOUS
10
161.727
20
-108.263
11
161.928
21
-107.915
0
LINE
8
BLACK
6
CONTINUOUS
10
165.907
20
-101.024
11
165.938
21
-100.969
0
LINE
8
BLACK
6
CONTINUOUS
10
164.416
20
-103.606
11
164.769
21
-102.995
0
LINE
8
BLACK
6
CONTINUOUS
10
164.034
20
-104.268
11
164.416
21
-103.606
0
LINE
8
BLACK
6
CONTINUOUS
10
165.98
20
-100.897
11
166.003
21
-100.856
0
LINE
8
BLACK
6
CONTINUOUS
10
166.11
20
-99.359
11
166.079
21
-99.2945
0
LINE
8
BLACK
6
CONTINUOUS
10
166.236
20
-99.7391
11
166.218
21
-99.6579
0
LINE
8
BLACK
6
CONTINUOUS
10
166.259
20
-100.074
11
166.26
21
-99.9895
0
LINE
8
BLACK
6
CONTINUOUS
10
163.637
20
-104.956
11
164.034
21
-104.268
0
LINE
8
BLACK
6
CONTINUOUS
10
160.076
20
-109.944
11
160.154
21
-109.932
0
LINE
8
BLACK
6
CONTINUOUS
10
159.801
20
-109.963
11
159.861
21
-109.961
0
LINE
8
BLACK
6
CONTINUOUS
10
159.928
20
-109.958
11
160
21
-109.952
0
LINE
8
BLACK
6
CONTINUOUS
10
159.703
20
-109.964
11
159.748
21
-109.964
0
LINE
8
BLACK
6
CONTINUOUS
10
161.211
20
-109.155
11
161.239
21
-109.108
0
LINE
8
BLACK
6
CONTINUOUS
10
159.617
20
-109.964
11
159.664
21
-109.964
0
LINE
8
BLACK
6
CONTINUOUS
10
160.891
20
-109.566
11
160.949
21
-109.508
0
LINE
8
BLACK
6
CONTINUOUS
10
159.5
20
-109.96
11
159.617
21
-109.964
0
LINE
8
BLACK
6
CONTINUOUS
10
160.47
20
-109.839
11
160.547
21
-109.804
0
LINE
8
BLACK
6
CONTINUOUS
10
161.305
20
-108.995
11
161.337
21
-108.938
0
LINE
8
BLACK
6
CONTINUOUS
10
161.282
20
-109.034
11
161.305
21
-108.995
0
LINE
8
BLACK
6
CONTINUOUS
10
160.762
20
-109.673
11
160.828
21
-109.621
0
LINE
8
BLACK
6
CONTINUOUS
10
160.547
20
-109.804
11
160.621
21
-109.764
0
LINE
8
BLACK
6
CONTINUOUS
10
161.263
20
-109.068
11
161.282
21
-109.034
0
LINE
8
BLACK
6
CONTINUOUS
10
161.1
20
-109.324
11
161.142
21
-109.264
0
LINE
8
BLACK
6
CONTINUOUS
10
159.861
20
-109.961
11
159.928
21
-109.958
0
LINE
8
BLACK
6
CONTINUOUS
10
161.239
20
-109.108
11
161.263
21
-109.068
0
LINE
8
BLACK
6
CONTINUOUS
10
160.233
20
-109.916
11
160.313
21
-109.895
0
LINE
8
BLACK
6
CONTINUOUS
10
160.621
20
-109.764
11
160.693
21
-109.72
0
LINE
8
BLACK
6
CONTINUOUS
10
161.179
20
-109.207
11
161.211
21
-109.155
0
LINE
8
BLACK
6
CONTINUOUS
10
160.828
20
-109.621
11
160.891
21
-109.566
0
LINE
8
BLACK
6
CONTINUOUS
10
161.142
20
-109.264
11
161.179
21
-109.207
0
LINE
8
BLACK
6
CONTINUOUS
10
160.949
20
-109.508
11
161.004
21
-109.447
0
LINE
8
BLACK
6
CONTINUOUS
10
161.054
20
-109.385
11
161.1
21
-109.324
0
LINE
8
BLACK
6
CONTINUOUS
10
161.004
20
-109.447
11
161.054
21
-109.385
0
LINE
8
BLACK
6
CONTINUOUS
10
160.313
20
-109.895
11
160.392
21
-109.869
0
LINE
8
BLACK
6
CONTINUOUS
10
159.664
20
-109.964
11
159.703
21
-109.964
0
LINE
8
BLACK
6
CONTINUOUS
10
160.693
20
-109.72
11
160.762
21
-109.673
0
LINE
8
BLACK
6
CONTINUOUS
10
160.392
20
-109.869
11
160.47
21
-109.839
0
LINE
8
BLACK
6
CONTINUOUS
10
160
20
-109.952
11
160.076
21
-109.944
0
LINE
8
BLACK
6
CONTINUOUS
10
159.748
20
-109.964
11
159.801
21
-109.963
0
LINE
8
BLACK
6
CONTINUOUS
10
160.154
20
-109.932
11
160.233
21
-109.916
0
LINE
8
BLACK
6
CONTINUOUS
10
165.861
20
-98.906
11
165.8
21
-98.8
0
LINE
8
BLACK
6
CONTINUOUS
10
165.918
20
-99.0038
11
165.913
21
-98.9955
0
LINE
8
BLACK
6
CONTINUOUS
10
165.389
20
-98.0879
11
165.152
21
-97.6778
0
LINE
8
BLACK
6
CONTINUOUS
10
165.913
20
-98.9955
11
165.896
21
-98.967
0
LINE
8
BLACK
6
CONTINUOUS
10
165.706
20
-98.6366
11
165.571
21
-98.4034
0
LINE
8
BLACK
6
CONTINUOUS
10
165.571
20
-98.4034
11
165.389
21
-98.0879
0
LINE
8
BLACK
6
CONTINUOUS
10
165.918
20
-99.0043
11
165.918
21
-99.0038
0
LINE
8
BLACK
6
CONTINUOUS
10
165.896
20
-98.967
11
165.861
21
-98.906
0
LINE
8
BLACK
6
CONTINUOUS
10
165.8
20
-98.8
11
165.706
21
-98.6366
0
LINE
8
BLACK
6
CONTINUOUS
10
126.732
20
-109.907
11
126.812
21
-109.925
0
LINE
8
BLACK
6
CONTINUOUS
10
126.497
20
-109.823
11
126.574
21
-109.856
0
LINE
8
BLACK
6
CONTINUOUS
10
126.421
20
-109.786
11
126.497
21
-109.823
0
LINE
8
BLACK
6
CONTINUOUS
10
126.574
20
-109.856
11
126.653
21
-109.884
0
LINE
8
BLACK
6
CONTINUOUS
10
134.5
20
-109.975
11
152.5
21
-109.975
0
LINE
8
BLACK
6
CONTINUOUS
10
126.812
20
-109.925
11
126.891
21
-109.939
0
LINE
8
BLACK
6
CONTINUOUS
10
127.28
20
-109.964
11
127.32
21
-109.964
0
LINE
8
BLACK
6
CONTINUOUS
10
127.231
20
-109.963
11
127.28
21
-109.964
0
LINE
8
BLACK
6
CONTINUOUS
10
127.32
20
-109.964
11
127.362
21
-109.964
0
LINE
8
BLACK
6
CONTINUOUS
10
126.891
20
-109.939
11
126.968
21
-109.949
0
LINE
8
BLACK
6
CONTINUOUS
10
127.111
20
-109.96
11
127.175
21
-109.962
0
LINE
8
BLACK
6
CONTINUOUS
10
127.175
20
-109.962
11
127.231
21
-109.963
0
LINE
8
BLACK
6
CONTINUOUS
10
126.653
20
-109.884
11
126.732
21
-109.907
0
LINE
8
BLACK
6
CONTINUOUS
10
127.042
20
-109.956
11
127.111
21
-109.96
0
LINE
8
BLACK
6
CONTINUOUS
10
127.362
20
-109.964
11
127.5
21
-109.96
0
LINE
8
BLACK
6
CONTINUOUS
10
126.968
20
-109.949
11
127.042
21
-109.956
0
LINE
8
BLACK
6
CONTINUOUS
10
125.736
20
-90.9476
11
125.716
21
-90.9815
0
LINE
8
BLACK
6
CONTINUOUS
10
121.203
20
-98.7988
11
121.134
21
-98.9184
0
LINE
8
BLACK
6
CONTINUOUS
10
122.171
20
-97.1215
11
121.872
21
-97.64
0
LINE
8
BLACK
6
CONTINUOUS
10
125.519
20
-91.3231
11
125.401
21
-91.527
0
LINE
8
BLACK
6
CONTINUOUS
10
121.63
20
-98.0585
11
121.444
21
-98.3822
0
LINE
8
BLACK
6
CONTINUOUS
10
124.761
20
-92.6361
11
124.439
21
-93.1946
0
LINE
8
BLACK
6
CONTINUOUS
10
125.657
20
-91.0843
11
125.602
21
-91.18
0
LINE
8
BLACK
6
CONTINUOUS
10
125.03
20
-92.1706
11
124.761
21
-92.6361
0
LINE
8
BLACK
6
CONTINUOUS
10
125.693
20
-91.0226
11
125.657
21
-91.0843
0
LINE
8
BLACK
6
CONTINUOUS
10
121.018
20
-99.1185
11
120.994
21
-99.1608
0
LINE
8
BLACK
6
CONTINUOUS
10
121.134
20
-98.9184
11
121.089
21
-98.9969
0
LINE
8
BLACK
6
CONTINUOUS
10
121.039
20
-99.0836
11
121.018
21
-99.1185
0
LINE
8
BLACK
6
CONTINUOUS
10
121.06
20
-99.0474
11
121.039
21
-99.0836
0
LINE
8
BLACK
6
CONTINUOUS
10
121.304
20
-98.6245
11
121.203
21
-98.7988
0
LINE
8
BLACK
6
CONTINUOUS
10
124.076
20
-93.822
11
123.689
21
-94.4933
0
LINE
8
BLACK
6
CONTINUOUS
10
121.872
20
-97.64
11
121.63
21
-98.0585
0
LINE
8
BLACK
6
CONTINUOUS
10
123.29
20
-95.1837
11
122.895
21
-95.8685
0
LINE
8
BLACK
6
CONTINUOUS
10
125.716
20
-90.9815
11
125.693
21
-91.0226
0
LINE
8
BLACK
6
CONTINUOUS
10
125.241
20
-91.805
11
125.03
21
-92.1706
0
LINE
8
BLACK
6
CONTINUOUS
10
125.401
20
-91.527
11
125.241
21
-91.805
0
LINE
8
BLACK
6
CONTINUOUS
10
123.689
20
-94.4933
11
123.29
21
-95.1837
0
LINE
8
BLACK
6
CONTINUOUS
10
122.517
20
-96.5226
11
122.171
21
-97.1215
0
LINE
8
BLACK
6
CONTINUOUS
10
125.602
20
-91.18
11
125.519
21
-91.3231
0
LINE
8
BLACK
6
CONTINUOUS
10
122.895
20
-95.8685
11
122.517
21
-96.5226
0
LINE
8
BLACK
6
CONTINUOUS
10
121.444
20
-98.3822
11
121.304
21
-98.6245
0
LINE
8
BLACK
6
CONTINUOUS
10
124.439
20
-93.1946
11
124.076
21
-93.822
0
LINE
8
BLACK
6
CONTINUOUS
10
121.089
20
-98.9969
11
121.06
21
-99.0474
0
LINE
8
BLACK
6
CONTINUOUS
10
120.845
20
-99.4677
11
120.818
21
-99.543
0
LINE
8
BLACK
6
CONTINUOUS
10
120.906
20
-99.3288
11
120.875
21
-99.396
0
LINE
8
BLACK
6
CONTINUOUS
10
120.929
20
-100.726
11
120.959
21
-100.784
0
LINE
8
BLACK
6
CONTINUOUS
10
120.769
20
-100.285
11
120.788
21
-100.366
0
LINE
8
BLACK
6
CONTINUOUS
10
120.755
20
-100.203
11
120.769
21
-100.285
0
LINE
8
BLACK
6
CONTINUOUS
10
120.937
20
-99.2666
11
120.906
21
-99.3288
0
LINE
8
BLACK
6
CONTINUOUS
10
120.742
20
-100.035
11
120.746
21
-100.119
0
LINE
8
BLACK
6
CONTINUOUS
10
120.759
20
-99.7837
11
120.748
21
-99.8669
0
LINE
8
BLACK
6
CONTINUOUS
10
125.975
20
-109.419
11
126.028
21
-109.48
0
LINE
8
BLACK
6
CONTINUOUS
10
125.644
20
-108.902
11
125.685
21
-108.972
0
LINE
8
BLACK
6
CONTINUOUS
10
121.053
20
-100.951
11
121.08
21
-100.996
0
LINE
8
BLACK
6
CONTINUOUS
10
120.774
20
-99.7016
11
120.759
21
-99.7837
0
LINE
8
BLACK
6
CONTINUOUS
10
120.994
20
-99.1608
11
120.967
21
-99.2104
0
LINE
8
BLACK
6
CONTINUOUS
10
120.838
20
-100.521
11
120.867
21
-100.594
0
LINE
8
BLACK
6
CONTINUOUS
10
125.808
20
-109.183
11
125.843
21
-109.238
0
LINE
8
BLACK
6
CONTINUOUS
10
125.189
20
-108.114
11
125.363
21
-108.414
0
LINE
8
BLACK
6
CONTINUOUS
10
124.679
20
-107.23
11
124.963
21
-107.723
0
LINE
8
BLACK
6
CONTINUOUS
10
120.987
20
-100.835
11
121.012
21
-100.88
0
LINE
8
BLACK
6
CONTINUOUS
10
120.746
20
-100.119
11
120.755
21
-100.203
0
LINE
8
BLACK
6
CONTINUOUS
10
122.79
20
-103.959
11
123.182
21
-104.638
0
LINE
8
BLACK
6
CONTINUOUS
10
121.575
20
-101.854
11
121.801
21
-102.245
0
LINE
8
BLACK
6
CONTINUOUS
10
120.748
20
-99.8669
11
120.743
21
-99.9508
0
LINE
8
BLACK
6
CONTINUOUS
10
120.818
20
-99.543
11
120.794
21
-99.6212
0
LINE
8
BLACK
6
CONTINUOUS
10
126.084
20
-109.54
11
126.145
21
-109.596
0
LINE
8
BLACK
6
CONTINUOUS
10
126.348
20
-109.745
11
126.421
21
-109.786
0
LINE
8
BLACK
6
CONTINUOUS
10
125.685
20
-108.972
11
125.711
21
-109.017
0
LINE
8
BLACK
6
CONTINUOUS
10
125.582
20
-108.795
11
125.644
21
-108.902
0
LINE
8
BLACK
6
CONTINUOUS
10
124.344
20
-106.65
11
124.679
21
-107.23
0
LINE
8
BLACK
6
CONTINUOUS
10
123.582
20
-105.33
11
123.974
21
-106.009
0
LINE
8
BLACK
6
CONTINUOUS
10
120.867
20
-100.594
11
120.898
21
-100.662
0
LINE
8
BLACK
6
CONTINUOUS
10
121.012
20
-100.88
11
121.033
21
-100.916
0
LINE
8
BLACK
6
CONTINUOUS
10
120.794
20
-99.6212
11
120.774
21
-99.7016
0
LINE
8
BLACK
6
CONTINUOUS
10
120.967
20
-99.2104
11
120.937
21
-99.2666
0
LINE
8
BLACK
6
CONTINUOUS
10
120.743
20
-99.9508
11
120.742
21
-100.035
0
LINE
8
BLACK
6
CONTINUOUS
10
126.277
20
-109.699
11
126.348
21
-109.745
0
LINE
8
BLACK
6
CONTINUOUS
10
125.711
20
-109.017
11
125.731
21
-109.052
0
LINE
8
BLACK
6
CONTINUOUS
10
125.363
20
-108.414
11
125.491
21
-108.637
0
LINE
8
BLACK
6
CONTINUOUS
10
121.08
20
-100.996
11
121.12
21
-101.066
0
LINE
8
BLACK
6
CONTINUOUS
10
123.974
20
-106.009
11
124.344
21
-106.65
0
LINE
8
BLACK
6
CONTINUOUS
10
121.182
20
-101.173
11
121.273
21
-101.331
0
LINE
8
BLACK
6
CONTINUOUS
10
120.875
20
-99.396
11
120.845
21
-99.4677
0
LINE
8
BLACK
6
CONTINUOUS
10
121.273
20
-101.331
11
121.401
21
-101.554
0
LINE
8
BLACK
6
CONTINUOUS
10
121.401
20
-101.554
11
121.575
21
-101.854
0
LINE
8
BLACK
6
CONTINUOUS
10
121.12
20
-101.066
11
121.182
21
-101.173
0
LINE
8
BLACK
6
CONTINUOUS
10
126.21
20
-109.649
11
126.277
21
-109.699
0
LINE
8
BLACK
6
CONTINUOUS
10
126.145
20
-109.596
11
126.21
21
-109.649
0
LINE
8
BLACK
6
CONTINUOUS
10
126.028
20
-109.48
11
126.084
21
-109.54
0
LINE
8
BLACK
6
CONTINUOUS
10
125.491
20
-108.637
11
125.582
21
-108.795
0
LINE
8
BLACK
6
CONTINUOUS
10
125.927
20
-109.357
11
125.975
21
-109.419
0
LINE
8
BLACK
6
CONTINUOUS
10
125.883
20
-109.296
11
125.927
21
-109.357
0
LINE
8
BLACK
6
CONTINUOUS
10
125.843
20
-109.238
11
125.883
21
-109.296
0
LINE
8
BLACK
6
CONTINUOUS
10
125.731
20
-109.052
11
125.752
21
-109.088
0
LINE
8
BLACK
6
CONTINUOUS
10
125.778
20
-109.132
11
125.808
21
-109.183
0
LINE
8
BLACK
6
CONTINUOUS
10
125.752
20
-109.088
11
125.778
21
-109.132
0
LINE
8
BLACK
6
CONTINUOUS
10
124.963
20
-107.723
11
125.189
21
-108.114
0
LINE
8
BLACK
6
CONTINUOUS
10
120.898
20
-100.662
11
120.929
21
-100.726
0
LINE
8
BLACK
6
CONTINUOUS
10
120.811
20
-100.445
11
120.838
21
-100.521
0
LINE
8
BLACK
6
CONTINUOUS
10
121.033
20
-100.916
11
121.053
21
-100.951
0
LINE
8
BLACK
6
CONTINUOUS
10
123.182
20
-104.638
11
123.582
21
-105.33
0
LINE
8
BLACK
6
CONTINUOUS
10
122.42
20
-103.318
11
122.79
21
-103.959
0
LINE
8
BLACK
6
CONTINUOUS
10
122.085
20
-102.738
11
122.42
21
-103.318
0
LINE
8
BLACK
6
CONTINUOUS
10
121.801
20
-102.245
11
122.085
21
-102.738
0
LINE
8
BLACK
6
CONTINUOUS
10
120.959
20
-100.784
11
120.987
21
-100.835
0
LINE
8
BLACK
6
CONTINUOUS
10
120.788
20
-100.366
11
120.811
21
-100.445
0
LINE
8
BLACK
6
CONTINUOUS
10
126.228
20
-90.3456
11
126.162
21
-90.3978
0
LINE
8
BLACK
6
CONTINUOUS
10
125.853
20
-90.7555
11
125.817
21
-90.8116
0
LINE
8
BLACK
6
CONTINUOUS
10
125.894
20
-90.6961
11
125.853
21
-90.7555
0
LINE
8
BLACK
6
CONTINUOUS
10
125.939
20
-90.6349
11
125.894
21
-90.6961
0
LINE
8
BLACK
6
CONTINUOUS
10
127.5
20
-90.05
11
127.375
21
-90.0451
0
LINE
8
BLACK
6
CONTINUOUS
10
125.989
20
-90.5731
11
125.939
21
-90.6349
0
LINE
8
BLACK
6
CONTINUOUS
10
126.042
20
-90.5122
11
125.989
21
-90.5731
0
LINE
8
BLACK
6
CONTINUOUS
10
126.162
20
-90.3978
11
126.1
21
-90.4534
0
LINE
8
BLACK
6
CONTINUOUS
10
127.331
20
-90.0451
11
127.292
21
-90.0451
0
LINE
8
BLACK
6
CONTINUOUS
10
126.296
20
-90.2971
11
126.228
21
-90.3456
0
LINE
8
BLACK
6
CONTINUOUS
10
126.442
20
-90.2121
11
126.368
21
-90.2526
0
LINE
8
BLACK
6
CONTINUOUS
10
126.834
20
-90.0795
11
126.754
21
-90.0963
0
LINE
8
BLACK
6
CONTINUOUS
10
127.129
20
-90.0478
11
127.061
21
-90.0515
0
LINE
8
BLACK
6
CONTINUOUS
10
127.292
20
-90.0451
11
127.245
21
-90.0452
0
LINE
8
BLACK
6
CONTINUOUS
10
127.375
20
-90.0451
11
127.331
21
-90.0451
0
LINE
8
BLACK
6
CONTINUOUS
10
127.245
20
-90.0452
11
127.191
21
-90.0459
0
LINE
8
BLACK
6
CONTINUOUS
10
126.1
20
-90.4534
11
126.042
21
-90.5122
0
LINE
8
BLACK
6
CONTINUOUS
10
126.517
20
-90.1761
11
126.442
21
-90.2121
0
LINE
8
BLACK
6
CONTINUOUS
10
126.595
20
-90.1446
11
126.517
21
-90.1761
0
LINE
8
BLACK
6
CONTINUOUS
10
126.674
20
-90.118
11
126.595
21
-90.1446
0
LINE
8
BLACK
6
CONTINUOUS
10
126.754
20
-90.0963
11
126.674
21
-90.118
0
LINE
8
BLACK
6
CONTINUOUS
10
126.912
20
-90.0668
11
126.834
21
-90.0795
0
LINE
8
BLACK
6
CONTINUOUS
10
126.988
20
-90.0577
11
126.912
21
-90.0668
0
LINE
8
BLACK
6
CONTINUOUS
10
127.191
20
-90.0459
11
127.129
21
-90.0478
0
LINE
8
BLACK
6
CONTINUOUS
10
127.061
20
-90.0515
11
126.988
21
-90.0577
0
LINE
8
BLACK
6
CONTINUOUS
10
152.5
20
-90.05
11
134.5
21
-90.05
0
LINE
8
BLACK
6
CONTINUOUS
10
125.758
20
-90.9091
11
125.736
21
-90.9476
0
LINE
8
BLACK
6
CONTINUOUS
10
125.785
20
-90.8633
11
125.758
21
-90.9091
0
LINE
8
BLACK
6
CONTINUOUS
10
125.817
20
-90.8116
11
125.785
21
-90.8633
0
LINE
8
BLACK
6
CONTINUOUS
10
126.368
20
-90.2526
11
126.296
21
-90.2971
  0
ENDSEC
  0
EOF
